toadie.ufo
<glyph name="glyph00001" format="1">
  <advance width="378"/>
  <unicode hex="0021"/>
  <outline>
    <contour>
      <point x="96" y="1034" type="qcurve"/>
      <point x="96" y="1034" name="inserted"/>
      <point x="96" y="1034"/>
      <point x="96" y="1034" type="qcurve"/>
      <point x="93" y="1025"/>
      <point x="94" y="886"/>
      <point x="98" y="777" type="qcurve" smooth="yes"/>
      <point x="101" y="711"/>
      <point x="105" y="563"/>
      <point x="105" y="478" type="qcurve" smooth="yes"/>
      <point x="106" y="348"/>
      <point x="110" y="224"/>
      <point x="113" y="211" type="qcurve" smooth="yes"/>
      <point x="115" y="202"/>
      <point x="124" y="199"/>
      <point x="126" y="208" type="qcurve"/>
      <point x="126" y="210"/>
      <point x="125" y="243"/>
      <point x="124" y="267" type="qcurve" smooth="yes" name="inserted"/>
      <point x="123" y="289"/>
      <point x="121" y="412"/>
      <point x="121" y="482" type="qcurve" smooth="yes"/>
      <point x="120" y="567"/>
      <point x="116" y="716"/>
      <point x="114" y="782" type="qcurve" smooth="yes"/>
      <point x="112" y="838"/>
      <point x="109" y="946"/>
      <point x="109" y="970" type="qcurve" smooth="yes"/>
      <point x="109" y="1013"/>
      <point x="106" y="1040"/>
      <point x="101" y="1040" type="qcurve"/>
      <point x="100" y="1040" name="inserted"/>
      <point x="97" y="1036"/>
    </contour>
    <contour>
      <point x="111" y="92" type="qcurve"/>
      <point x="111" y="92" name="inserted"/>
      <point x="111" y="92"/>
      <point x="111" y="92" type="qcurve"/>
      <point x="107" y="89" name="inserted"/>
      <point x="102" y="78"/>
      <point x="99" y="69" type="qcurve" smooth="yes"/>
      <point x="98" y="60"/>
      <point x="102" y="50"/>
      <point x="106" y="50" type="qcurve" smooth="yes" name="inserted"/>
      <point x="108" y="50" name="inserted"/>
      <point x="111" y="46"/>
      <point x="112" y="41" type="qcurve" smooth="yes"/>
      <point x="115" y="28"/>
      <point x="129" y="21"/>
      <point x="136" y="28" type="qcurve"/>
      <point x="143" y="38"/>
      <point x="142" y="79"/>
      <point x="135" y="89" type="qcurve"/>
      <point x="130" y="94"/>
      <point x="116" y="96"/>
    </contour>
  </outline>
</glyph>
<glyph name="glyph00002" format="1">
  <advance width="310"/>
  <unicode hex="0022"/>
  <outline>
    <contour>
      <point x="118" y="932" type="qcurve"/>
      <point x="118" y="932" name="inserted"/>
      <point x="118" y="932"/>
      <point x="118" y="932" type="qcurve"/>
      <point x="112" y="917"/>
      <point x="107" y="886"/>
      <point x="106" y="853" type="qcurve" smooth="yes"/>
      <point x="105" y="834"/>
      <point x="100" y="787"/>
      <point x="98" y="767" type="qcurve" smooth="yes"/>
      <point x="93" y="733"/>
      <point x="87" y="670"/>
      <point x="86" y="660" type="qcurve"/>
      <point x="86" y="655"/>
      <point x="99" y="644"/>
      <point x="101" y="643" type="qcurve" smooth="yes"/>
      <point x="102" y="643"/>
      <point x="97" y="664"/>
      <point x="101" y="690" type="qcurve" smooth="yes"/>
      <point x="105" y="709"/>
      <point x="109" y="752"/>
      <point x="111" y="768" type="qcurve" smooth="yes" name="inserted"/>
      <point x="114" y="784"/>
      <point x="118" y="829"/>
      <point x="118" y="848" type="qcurve" smooth="yes"/>
      <point x="119" y="871"/>
      <point x="121" y="898"/>
      <point x="124" y="908" type="qcurve" smooth="yes"/>
      <point x="128" y="923"/>
      <point x="137" y="940"/>
      <point x="133" y="941" type="qcurve"/>
      <point x="131" y="942" name="inserted"/>
      <point x="119" y="937"/>
    </contour>
    <contour>
      <point x="164" y="909" type="qcurve"/>
      <point x="164" y="909" name="inserted"/>
      <point x="164" y="909"/>
      <point x="164" y="909" type="qcurve"/>
      <point x="162" y="902"/>
      <point x="154" y="876"/>
      <point x="153" y="860" type="qcurve" smooth="yes" name="inserted"/>
      <point x="152" y="845"/>
      <point x="149" y="801"/>
      <point x="146" y="780" type="qcurve" smooth="yes"/>
      <point x="143" y="740"/>
      <point x="137" y="675"/>
      <point x="138" y="666" type="qcurve"/>
      <point x="139" y="658"/>
      <point x="153" y="651"/>
      <point x="155" y="655" type="qcurve"/>
      <point x="157" y="659"/>
      <point x="151" y="684"/>
      <point x="151" y="697" type="qcurve" smooth="yes" name="inserted"/>
      <point x="152" y="711"/>
      <point x="156" y="754"/>
      <point x="159" y="773" type="qcurve" smooth="yes" name="inserted"/>
      <point x="161" y="792"/>
      <point x="164" y="831"/>
      <point x="164" y="843" type="qcurve" smooth="yes" name="inserted"/>
      <point x="166" y="856"/>
      <point x="172" y="880"/>
      <point x="172" y="885" type="qcurve" smooth="yes" name="inserted"/>
      <point x="173" y="890"/>
      <point x="184" y="904"/>
      <point x="184" y="909" type="qcurve"/>
      <point x="183" y="923"/>
      <point x="168" y="922"/>
    </contour>
  </outline>
</glyph>
<glyph name="glyph00003" format="1">
  <advance width="582"/>
  <unicode hex="0023"/>
  <outline>
    <contour>
      <point x="209" y="530" type="qcurve"/>
      <point x="209" y="530" name="inserted"/>
      <point x="209" y="530"/>
      <point x="209" y="530" type="qcurve"/>
      <point x="208" y="528"/>
      <point x="202" y="516"/>
      <point x="200" y="510" type="qcurve"/>
      <point x="197" y="502"/>
      <point x="195" y="464"/>
      <point x="194" y="409" type="qcurve" smooth="yes"/>
      <point x="192" y="325" type="line"/>
      <point x="188" y="323" type="line"/>
      <point x="181" y="320"/>
      <point x="136" y="314"/>
      <point x="122" y="313" type="qcurve" smooth="yes"/>
      <point x="113" y="312"/>
      <point x="106" y="305"/>
      <point x="109" y="300" type="qcurve" smooth="yes"/>
      <point x="111" y="298"/>
      <point x="120" y="295"/>
      <point x="135" y="296" type="qcurve" smooth="yes"/>
      <point x="145" y="296"/>
      <point x="167" y="298"/>
      <point x="173" y="300" type="qcurve" smooth="yes" name="inserted"/>
      <point x="180" y="301"/>
      <point x="191" y="302"/>
      <point x="192" y="302" type="qcurve"/>
      <point x="193" y="299"/>
      <point x="192" y="244"/>
      <point x="189" y="218" type="qcurve" smooth="yes"/>
      <point x="189" y="204" type="line"/>
      <point x="161" y="189" type="line" smooth="yes"/>
      <point x="134" y="174"/>
      <point x="112" y="156"/>
      <point x="113" y="151" type="qcurve"/>
      <point x="114" y="143"/>
      <point x="126" y="145"/>
      <point x="140" y="154" type="qcurve" smooth="yes" name="inserted"/>
      <point x="153" y="162"/>
      <point x="183" y="178"/>
      <point x="186" y="179" type="qcurve"/>
      <point x="188" y="179" name="inserted"/>
      <point x="189" y="138"/>
      <point x="189" y="95" type="qcurve"/>
      <point x="189" y="55"/>
      <point x="190" y="9"/>
      <point x="191" y="7" type="qcurve"/>
      <point x="194" y="3"/>
      <point x="204" y="2"/>
      <point x="208" y="5" type="qcurve"/>
      <point x="208" y="7"/>
      <point x="212" y="17"/>
      <point x="214" y="22" type="qcurve" smooth="yes"/>
      <point x="216" y="30"/>
      <point x="215" y="37"/>
      <point x="212" y="41" type="qcurve"/>
      <point x="209" y="44"/>
      <point x="208" y="71"/>
      <point x="208" y="118" type="qcurve" smooth="yes"/>
      <point x="208" y="189" type="line"/>
      <point x="221" y="195" type="line"/>
      <point x="233" y="200"/>
      <point x="290" y="222"/>
      <point x="295" y="222" type="qcurve"/>
      <point x="295" y="222"/>
      <point x="296" y="174"/>
      <point x="296" y="139" type="qcurve" smooth="yes"/>
      <point x="296" y="86"/>
      <point x="297" y="52"/>
      <point x="299" y="52" type="qcurve"/>
      <point x="302" y="48"/>
      <point x="307" y="48"/>
      <point x="310" y="52" type="qcurve"/>
      <point x="312" y="52"/>
      <point x="314" y="86"/>
      <point x="314" y="140" type="qcurve" smooth="yes"/>
      <point x="314" y="196"/>
      <point x="315" y="227"/>
      <point x="318" y="227" type="qcurve"/>
      <point x="322" y="229"/>
      <point x="353" y="235"/>
      <point x="376" y="237" type="qcurve" smooth="yes" name="inserted"/>
      <point x="399" y="240"/>
      <point x="433" y="246"/>
      <point x="436" y="249" type="qcurve" smooth="yes" name="inserted"/>
      <point x="439" y="252"/>
      <point x="439" y="261"/>
      <point x="434" y="263" type="qcurve"/>
      <point x="433" y="265"/>
      <point x="421" y="264"/>
      <point x="412" y="262" type="qcurve" smooth="yes"/>
      <point x="408" y="261" name="inserted"/>
      <point x="397" y="259"/>
      <point x="390" y="258" type="qcurve" smooth="yes"/>
      <point x="364" y="254" type="line"/>
      <point x="324" y="250" type="line"/>
      <point x="314" y="248" type="line"/>
      <point x="314" y="345" type="line"/>
      <point x="323" y="348" type="line" smooth="yes"/>
      <point x="333" y="352"/>
      <point x="391" y="369"/>
      <point x="407" y="373" type="qcurve" smooth="yes"/>
      <point x="412" y="374"/>
      <point x="421" y="378"/>
      <point x="422" y="378" type="qcurve"/>
      <point x="425" y="382"/>
      <point x="424" y="390"/>
      <point x="421" y="392" type="qcurve" smooth="yes" name="inserted"/>
      <point x="417" y="396"/>
      <point x="390" y="390"/>
      <point x="354" y="379" type="qcurve" smooth="yes"/>
      <point x="339" y="374"/>
      <point x="318" y="369"/>
      <point x="317" y="369" type="qcurve"/>
      <point x="315" y="374"/>
      <point x="321" y="439"/>
      <point x="324" y="452" type="qcurve" smooth="yes"/>
      <point x="324" y="457"/>
      <point x="330" y="470"/>
      <point x="333" y="476" type="qcurve" smooth="yes"/>
      <point x="340" y="490"/>
      <point x="338" y="503"/>
      <point x="329" y="502" type="qcurve" smooth="yes"/>
      <point x="327" y="501" name="inserted"/>
      <point x="319" y="492"/>
      <point x="315" y="483" type="qcurve" smooth="yes"/>
      <point x="308" y="469"/>
      <point x="301" y="431"/>
      <point x="299" y="395" type="qcurve" smooth="yes"/>
      <point x="298" y="382"/>
      <point x="296" y="363"/>
      <point x="296" y="362" type="qcurve" smooth="yes" name="inserted"/>
      <point x="295" y="361"/>
      <point x="272" y="351"/>
      <point x="256" y="346" type="qcurve" smooth="yes"/>
      <point x="214" y="331" type="line"/>
      <point x="212" y="329"/>
      <point x="212" y="360"/>
      <point x="213" y="410" type="qcurve" smooth="yes"/>
      <point x="214" y="464"/>
      <point x="216" y="499"/>
      <point x="219" y="507" type="qcurve" smooth="yes"/>
      <point x="224" y="520" name="inserted"/>
      <point x="223" y="534"/>
      <point x="217" y="535" type="qcurve"/>
      <point x="215" y="536" name="inserted"/>
      <point x="211" y="534"/>
    </contour>
    <contour>
      <point x="294" y="244" type="qcurve"/>
      <point x="294" y="244" name="inserted"/>
      <point x="294" y="244"/>
      <point x="294" y="244" type="qcurve"/>
      <point x="293" y="243"/>
      <point x="277" y="237"/>
      <point x="267" y="233" type="qcurve" smooth="yes"/>
      <point x="245" y="226" type="line" smooth="yes"/>
      <point x="239" y="223" name="inserted"/>
      <point x="230" y="220"/>
      <point x="227" y="218" type="qcurve" smooth="yes"/>
      <point x="215" y="214" type="line"/>
      <point x="211" y="213" type="line"/>
      <point x="209" y="218"/>
      <point x="212" y="302"/>
      <point x="214" y="309" type="qcurve"/>
      <point x="215" y="311"/>
      <point x="239" y="319"/>
      <point x="255" y="325" type="qcurve" smooth="yes"/>
      <point x="295" y="339" type="line"/>
      <point x="295" y="292" type="line" smooth="yes"/>
      <point x="295" y="272"/>
      <point x="295" y="244"/>
    </contour>
  </outline>
</glyph>
<glyph name="glyph00004" format="1">
  <advance width="549"/>
  <unicode hex="0024"/>
  <outline>
    <contour>
      <point x="217" y="532" type="qcurve"/>
      <point x="214" y="527"/>
      <point x="214" y="446"/>
      <point x="216" y="396" type="qcurve" smooth="yes"/>
      <point x="218" y="350" type="line"/>
      <point x="212" y="338" type="line" smooth="yes"/>
      <point x="204" y="325"/>
      <point x="195" y="283"/>
      <point x="195" y="263" type="qcurve" smooth="yes"/>
      <point x="196" y="245"/>
      <point x="207" y="219"/>
      <point x="220" y="199" type="qcurve"/>
      <point x="231" y="188"/>
      <point x="236" y="162"/>
      <point x="240" y="109" type="qcurve" smooth="yes"/>
      <point x="244" y="69" type="line" smooth="yes"/>
      <point x="244" y="59" name="inserted"/>
      <point x="245" y="47"/>
      <point x="246" y="44" type="qcurve"/>
      <point x="246" y="30" type="line"/>
      <point x="239" y="30" type="line" smooth="yes"/>
      <point x="231" y="30"/>
      <point x="209" y="42"/>
      <point x="204" y="50" type="qcurve" smooth="yes"/>
      <point x="200" y="55"/>
      <point x="192" y="72"/>
      <point x="187" y="80" type="qcurve" smooth="yes"/>
      <point x="181" y="96"/>
      <point x="172" y="110"/>
      <point x="167" y="109" type="qcurve"/>
      <point x="163" y="109"/>
      <point x="161" y="103"/>
      <point x="162" y="96" type="qcurve" smooth="yes"/>
      <point x="162" y="85"/>
      <point x="181" y="44"/>
      <point x="193" y="32" type="qcurve" smooth="yes"/>
      <point x="202" y="22"/>
      <point x="226" y="8"/>
      <point x="236" y="8" type="qcurve" smooth="yes"/>
      <point x="241" y="8"/>
      <point x="246" y="7"/>
      <point x="246" y="6" type="qcurve" smooth="yes" name="inserted"/>
      <point x="248" y="6" name="inserted"/>
      <point x="249" y="-2"/>
      <point x="250" y="-10" type="qcurve" smooth="yes"/>
      <point x="254" y="-41" type="line" smooth="yes"/>
      <point x="257" y="-62"/>
      <point x="260" y="-90"/>
      <point x="261" y="-92" type="qcurve"/>
      <point x="266" y="-95"/>
      <point x="275" y="-93"/>
      <point x="277" y="-89" type="qcurve"/>
      <point x="278" y="-85"/>
      <point x="278" y="-63"/>
      <point x="275" y="-39" type="qcurve" smooth="yes"/>
      <point x="272" y="-21"/>
      <point x="270" y="6"/>
      <point x="271" y="6" type="qcurve" smooth="yes" name="inserted"/>
      <point x="271" y="7"/>
      <point x="281" y="9"/>
      <point x="286" y="10" type="qcurve" smooth="yes"/>
      <point x="298" y="12" type="line"/>
      <point x="301" y="-9" type="line" smooth="yes"/>
      <point x="303" y="-31" name="inserted"/>
      <point x="312" y="-48"/>
      <point x="320" y="-39" type="qcurve" smooth="yes"/>
      <point x="323" y="-38" name="inserted"/>
      <point x="325" y="-31"/>
      <point x="324" y="-29" type="qcurve"/>
      <point x="323" y="-27"/>
      <point x="321" y="-12"/>
      <point x="321" y="-3" type="qcurve" smooth="yes"/>
      <point x="320" y="17" type="line"/>
      <point x="335" y="27" type="line" smooth="yes"/>
      <point x="356" y="41" name="inserted"/>
      <point x="366" y="71"/>
      <point x="359" y="87" type="qcurve" smooth="yes"/>
      <point x="357" y="92"/>
      <point x="342" y="110"/>
      <point x="333" y="118" type="qcurve" smooth="yes"/>
      <point x="310" y="141" type="line"/>
      <point x="310" y="239" type="line" smooth="yes"/>
      <point x="310" y="282"/>
      <point x="312" y="340"/>
      <point x="312" y="343" type="qcurve"/>
      <point x="313" y="350" type="line"/>
      <point x="326" y="341" type="line" smooth="yes"/>
      <point x="343" y="330"/>
      <point x="370" y="287"/>
      <point x="383" y="245" type="qcurve" smooth="yes"/>
      <point x="393" y="214"/>
      <point x="402" y="194"/>
      <point x="408" y="197" type="qcurve"/>
      <point x="415" y="197"/>
      <point x="412" y="220"/>
      <point x="401" y="255" type="qcurve" smooth="yes"/>
      <point x="392" y="283"/>
      <point x="380" y="309"/>
      <point x="372" y="321" type="qcurve" smooth="yes"/>
      <point x="362" y="336"/>
      <point x="338" y="360"/>
      <point x="326" y="367" type="qcurve"/>
      <point x="319" y="370" type="line" smooth="yes"/>
      <point x="315" y="372"/>
      <point x="314" y="373"/>
      <point x="314" y="380" type="qcurve"/>
      <point x="315" y="396" type="line" smooth="yes"/>
      <point x="322" y="465"/>
      <point x="325" y="502"/>
      <point x="323" y="504" type="qcurve"/>
      <point x="320" y="508"/>
      <point x="312" y="510"/>
      <point x="308" y="506" type="qcurve"/>
      <point x="307" y="503"/>
      <point x="302" y="466"/>
      <point x="298" y="439" type="qcurve" smooth="yes"/>
      <point x="294" y="376" type="line"/>
      <point x="275" y="374" type="line" smooth="yes"/>
      <point x="267" y="373"/>
      <point x="252" y="371"/>
      <point x="248" y="370" type="qcurve"/>
      <point x="245" y="369" name="inserted"/>
      <point x="240" y="368"/>
      <point x="239" y="369" type="qcurve"/>
      <point x="238" y="372"/>
      <point x="234" y="442"/>
      <point x="233" y="481" type="qcurve" smooth="yes"/>
      <point x="234" y="517"/>
      <point x="230" y="536"/>
      <point x="224" y="534" type="qcurve"/>
      <point x="222" y="534" name="inserted"/>
      <point x="218" y="533"/>
      <point x="217" y="532" type="qcurve"/>
      <point x="217" y="532" name="inserted"/>
      <point x="217" y="532"/>
    </contour>
    <contour>
      <point x="290" y="258" type="qcurve"/>
      <point x="289" y="219"/>
      <point x="289" y="164"/>
      <point x="288" y="162" type="qcurve"/>
      <point x="283" y="162"/>
      <point x="257" y="190"/>
      <point x="254" y="198" type="qcurve"/>
      <point x="253" y="203"/>
      <point x="249" y="246"/>
      <point x="246" y="273" type="qcurve" smooth="yes"/>
      <point x="244" y="315"/>
      <point x="242" y="342"/>
      <point x="244" y="343" type="qcurve"/>
      <point x="249" y="347"/>
      <point x="269" y="355"/>
      <point x="280" y="355" type="qcurve" smooth="yes"/>
      <point x="290" y="354" type="line"/>
      <point x="290" y="258" type="line"/>
      <point x="290" y="258" name="inserted"/>
      <point x="290" y="258"/>
    </contour>
    <contour>
      <point x="286" y="134" type="qcurve"/>
      <point x="289" y="132"/>
      <point x="293" y="107"/>
      <point x="296" y="59" type="qcurve" smooth="yes"/>
      <point x="297" y="35" type="line"/>
      <point x="288" y="32" type="line" smooth="yes"/>
      <point x="280" y="30"/>
      <point x="267" y="28"/>
      <point x="267" y="31" type="qcurve"/>
      <point x="256" y="161" type="line"/>
      <point x="268" y="150" type="line" smooth="yes"/>
      <point x="270" y="148" name="inserted"/>
      <point x="276" y="145"/>
      <point x="278" y="142" type="qcurve"/>
      <point x="286" y="134" type="line"/>
      <point x="286" y="134" name="inserted"/>
      <point x="286" y="134"/>
    </contour>
    <contour>
      <point x="327" y="94" type="qcurve"/>
      <point x="341" y="81"/>
      <point x="344" y="62"/>
      <point x="334" y="52" type="qcurve" smooth="yes" name="inserted"/>
      <point x="325" y="43"/>
      <point x="318" y="47"/>
      <point x="317" y="64" type="qcurve"/>
      <point x="315" y="83" type="line" smooth="yes"/>
      <point x="314" y="87" name="inserted"/>
      <point x="313" y="94"/>
      <point x="313" y="95" type="qcurve" smooth="yes"/>
      <point x="312" y="101" name="inserted"/>
      <point x="313" y="106"/>
      <point x="314" y="106" type="qcurve"/>
      <point x="315" y="106"/>
      <point x="322" y="99"/>
      <point x="327" y="94" type="qcurve"/>
      <point x="327" y="94" name="inserted"/>
      <point x="327" y="94"/>
    </contour>
  </outline>
</glyph>
<glyph name="glyph00005" format="1">
  <advance width="718"/>
  <unicode hex="0025"/>
  <outline>
    <contour>
      <point x="431" y="890" type="qcurve"/>
      <point x="431" y="890" name="inserted"/>
      <point x="431" y="890"/>
      <point x="431" y="890" type="qcurve"/>
      <point x="422" y="875"/>
      <point x="394" y="815"/>
      <point x="346" y="711" type="qcurve" smooth="yes"/>
      <point x="327" y="667"/>
      <point x="291" y="588"/>
      <point x="283" y="573" type="qcurve" smooth="yes"/>
      <point x="245" y="495"/>
      <point x="175" y="337"/>
      <point x="165" y="307" type="qcurve" smooth="yes"/>
      <point x="152" y="262"/>
      <point x="138" y="187"/>
      <point x="141" y="176" type="qcurve"/>
      <point x="143" y="170"/>
      <point x="151" y="169"/>
      <point x="154" y="174" type="qcurve" smooth="yes"/>
      <point x="155" y="175"/>
      <point x="157" y="186"/>
      <point x="158" y="191" type="qcurve" smooth="yes"/>
      <point x="162" y="228"/>
      <point x="187" y="316"/>
      <point x="206" y="360" type="qcurve" smooth="yes"/>
      <point x="223" y="397"/>
      <point x="278" y="517"/>
      <point x="307" y="576" type="qcurve" smooth="yes"/>
      <point x="318" y="599"/>
      <point x="354" y="679"/>
      <point x="371" y="715" type="qcurve" smooth="yes"/>
      <point x="405" y="794"/>
      <point x="437" y="860"/>
      <point x="446" y="876" type="qcurve" smooth="yes"/>
      <point x="456" y="893" name="inserted"/>
      <point x="458" y="912"/>
      <point x="450" y="913" type="qcurve"/>
      <point x="447" y="914"/>
      <point x="439" y="904"/>
    </contour>
    <contour>
      <point x="171" y="732" type="qcurve"/>
      <point x="171" y="732" name="inserted"/>
      <point x="171" y="732"/>
      <point x="171" y="732" type="qcurve"/>
      <point x="166" y="729"/>
      <point x="167" y="717"/>
      <point x="173" y="711" type="qcurve"/>
      <point x="179" y="704" type="line"/>
      <point x="174" y="694" type="line" smooth="yes"/>
      <point x="170" y="689" name="inserted"/>
      <point x="165" y="675"/>
      <point x="164" y="666" type="qcurve" smooth="yes"/>
      <point x="160" y="641"/>
      <point x="169" y="610"/>
      <point x="180" y="609" type="qcurve" smooth="yes"/>
      <point x="189" y="608" name="inserted"/>
      <point x="199" y="623"/>
      <point x="200" y="638" type="qcurve" smooth="yes"/>
      <point x="203" y="658"/>
      <point x="202" y="703"/>
      <point x="199" y="711" type="qcurve"/>
      <point x="194" y="723"/>
      <point x="178" y="736"/>
    </contour>
    <contour>
      <point x="392" y="436" type="qcurve"/>
      <point x="392" y="436" name="inserted"/>
      <point x="392" y="436"/>
      <point x="392" y="436" type="qcurve"/>
      <point x="388" y="434"/>
      <point x="384" y="429"/>
      <point x="383" y="425" type="qcurve" smooth="yes" name="inserted"/>
      <point x="383" y="420"/>
      <point x="376" y="401"/>
      <point x="371" y="390" type="qcurve" smooth="yes"/>
      <point x="360" y="370"/>
      <point x="357" y="348"/>
      <point x="364" y="339" type="qcurve" smooth="yes"/>
      <point x="368" y="335"/>
      <point x="375" y="331"/>
      <point x="381" y="331" type="qcurve" smooth="yes"/>
      <point x="400" y="332"/>
      <point x="422" y="365"/>
      <point x="422" y="393" type="qcurve" smooth="yes"/>
      <point x="422" y="403" name="inserted"/>
      <point x="420" y="416"/>
      <point x="418" y="420" type="qcurve" smooth="yes"/>
      <point x="415" y="424"/>
      <point x="412" y="433"/>
      <point x="411" y="435" type="qcurve" smooth="yes"/>
      <point x="411" y="439" name="inserted"/>
      <point x="401" y="440"/>
    </contour>
  </outline>
</glyph>
<glyph name="glyph00006" format="1">
  <advance width="616.0"/>
  <unicode hex="0026"/>
  <outline>
    <contour>
      <point x="233" y="847" type="qcurve"/>
      <point x="232" y="846" name="inserted"/>
      <point x="228" y="845"/>
      <point x="224" y="844" type="qcurve" smooth="yes"/>
      <point x="221" y="844"/>
      <point x="211" y="837"/>
      <point x="205" y="832" type="qcurve"/>
      <point x="199" y="825"/>
      <point x="190" y="812"/>
      <point x="186" y="801" type="qcurve" smooth="yes"/>
      <point x="178" y="781"/>
      <point x="173" y="732"/>
      <point x="174" y="689" type="qcurve" smooth="yes"/>
      <point x="176" y="634"/>
      <point x="190" y="542"/>
      <point x="206" y="488" type="qcurve" smooth="yes"/>
      <point x="212" y="462" type="line" smooth="yes"/>
      <point x="215" y="451"/>
      <point x="215" y="445"/>
      <point x="211" y="437" type="qcurve" smooth="yes" name="inserted"/>
      <point x="209" y="433" name="inserted"/>
      <point x="205" y="424"/>
      <point x="202" y="419" type="qcurve" smooth="yes"/>
      <point x="185" y="391"/>
      <point x="149" y="319"/>
      <point x="142" y="301" type="qcurve"/>
      <point x="135" y="279"/>
      <point x="129" y="243"/>
      <point x="130" y="222" type="qcurve" smooth="yes" name="inserted"/>
      <point x="131" y="200"/>
      <point x="139" y="172"/>
      <point x="147" y="155" type="qcurve" smooth="yes"/>
      <point x="168" y="112"/>
      <point x="214" y="83"/>
      <point x="254" y="88" type="qcurve" smooth="yes"/>
      <point x="273" y="91"/>
      <point x="307" y="102"/>
      <point x="324" y="113" type="qcurve" smooth="yes"/>
      <point x="335" y="121"/>
      <point x="342" y="122"/>
      <point x="344" y="119" type="qcurve" smooth="yes" name="inserted"/>
      <point x="345" y="118" name="inserted"/>
      <point x="350" y="108"/>
      <point x="354" y="99" type="qcurve" smooth="yes"/>
      <point x="374" y="59" type="line" smooth="yes"/>
      <point x="385" y="35"/>
      <point x="403" y="3"/>
      <point x="405" y="1" type="qcurve"/>
      <point x="410" y="-1"/>
      <point x="417" y="4"/>
      <point x="418" y="9" type="qcurve"/>
      <point x="416" y="16"/>
      <point x="381" y="92"/>
      <point x="364" y="125" type="qcurve" smooth="yes"/>
      <point x="358" y="135" type="line"/>
      <point x="375" y="152" type="line" smooth="yes"/>
      <point x="402" y="180"/>
      <point x="424" y="241"/>
      <point x="410" y="243" type="qcurve"/>
      <point x="406" y="243" name="inserted"/>
      <point x="399" y="232"/>
      <point x="396" y="222" type="qcurve" smooth="yes"/>
      <point x="393" y="210"/>
      <point x="374" y="180"/>
      <point x="363" y="169" type="qcurve" smooth="yes"/>
      <point x="354" y="159" type="line" smooth="yes"/>
      <point x="352" y="157" name="inserted"/>
      <point x="349" y="155"/>
      <point x="349" y="155" type="qcurve"/>
      <point x="346" y="158"/>
      <point x="317" y="215"/>
      <point x="305" y="241" type="qcurve" smooth="yes"/>
      <point x="293" y="271" type="line"/>
      <point x="282" y="301" type="line" smooth="yes"/>
      <point x="272" y="330"/>
      <point x="241" y="432"/>
      <point x="240" y="442" type="qcurve"/>
      <point x="240" y="442" name="inserted"/>
      <point x="241" y="446"/>
      <point x="242" y="448" type="qcurve"/>
      <point x="248" y="458" type="line" smooth="yes"/>
      <point x="264" y="484"/>
      <point x="296" y="560"/>
      <point x="305" y="596" type="qcurve" smooth="yes"/>
      <point x="319" y="648"/>
      <point x="334" y="745"/>
      <point x="331" y="775" type="qcurve" smooth="yes"/>
      <point x="328" y="808" name="inserted"/>
      <point x="289" y="844"/>
      <point x="252" y="847" type="qcurve"/>
      <point x="240" y="847" type="line"/>
      <point x="235" y="848"/>
      <point x="233" y="847"/>
    </contour>
    <contour>
      <point x="275" y="823" type="qcurve"/>
      <point x="275" y="823" name="inserted"/>
      <point x="275" y="823"/>
      <point x="275" y="823" type="qcurve"/>
      <point x="279" y="822" name="inserted"/>
      <point x="290" y="815"/>
      <point x="296" y="809" type="qcurve"/>
      <point x="303" y="802"/>
      <point x="309" y="791"/>
      <point x="310" y="782" type="qcurve" smooth="yes"/>
      <point x="316" y="748"/>
      <point x="291" y="606"/>
      <point x="269" y="549" type="qcurve" smooth="yes"/>
      <point x="260" y="527"/>
      <point x="235" y="474"/>
      <point x="233" y="472" type="qcurve"/>
      <point x="231" y="472"/>
      <point x="220" y="509"/>
      <point x="213" y="538" type="qcurve" smooth="yes"/>
      <point x="203" y="581"/>
      <point x="193" y="678"/>
      <point x="194" y="724" type="qcurve" smooth="yes"/>
      <point x="195" y="749"/>
      <point x="198" y="773"/>
      <point x="201" y="785" type="qcurve"/>
      <point x="207" y="801"/>
      <point x="222" y="823"/>
      <point x="230" y="825" type="qcurve" smooth="yes" name="inserted"/>
      <point x="237" y="827"/>
      <point x="262" y="826"/>
    </contour>
    <contour>
      <point x="228" y="408" type="qcurve"/>
      <point x="228" y="408" name="inserted"/>
      <point x="228" y="408"/>
      <point x="228" y="408" type="qcurve"/>
      <point x="233" y="390"/>
      <point x="260" y="304"/>
      <point x="269" y="280" type="qcurve" smooth="yes"/>
      <point x="281" y="247"/>
      <point x="301" y="201"/>
      <point x="314" y="176" type="qcurve" smooth="yes"/>
      <point x="325" y="154" type="line" smooth="yes"/>
      <point x="327" y="149" name="inserted"/>
      <point x="330" y="143"/>
      <point x="330" y="142" type="qcurve"/>
      <point x="329" y="139"/>
      <point x="301" y="123"/>
      <point x="287" y="117" type="qcurve" smooth="yes" name="inserted"/>
      <point x="272" y="111"/>
      <point x="234" y="106"/>
      <point x="222" y="107" type="qcurve"/>
      <point x="206" y="109"/>
      <point x="178" y="136"/>
      <point x="165" y="164" type="qcurve" smooth="yes"/>
      <point x="157" y="180" name="inserted"/>
      <point x="149" y="213"/>
      <point x="149" y="231" type="qcurve" smooth="yes"/>
      <point x="149" y="254"/>
      <point x="161" y="299"/>
      <point x="176" y="329" type="qcurve" smooth="yes"/>
      <point x="194" y="364"/>
      <point x="222" y="416"/>
      <point x="224" y="415" type="qcurve" smooth="yes" name="inserted"/>
      <point x="226" y="415" name="inserted"/>
      <point x="228" y="411"/>
    </contour>
  </outline>
</glyph>
<glyph name="glyph00007" format="1">
  <advance width="1024"/>
  <unicode hex="0027"/>
  <outline>
    <contour>
      <point x="452" y="1071" type="qcurve"/>
      <point x="452" y="1071" name="inserted"/>
      <point x="452" y="1071"/>
      <point x="452" y="1071" type="qcurve"/>
      <point x="451" y="1066"/>
      <point x="452" y="1031"/>
      <point x="453" y="1007" type="qcurve" smooth="yes"/>
      <point x="453" y="983"/>
      <point x="455" y="906"/>
      <point x="456" y="870" type="qcurve" smooth="yes"/>
      <point x="457" y="786" type="line"/>
      <point x="461" y="782" type="line"/>
      <point x="462" y="779"/>
      <point x="468" y="777"/>
      <point x="469" y="777" type="qcurve" smooth="yes"/>
      <point x="473" y="778" type="line"/>
      <point x="473" y="853" type="line" smooth="yes"/>
      <point x="474" y="891"/>
      <point x="473" y="956"/>
      <point x="472" y="987" type="qcurve" smooth="yes"/>
      <point x="470" y="1012"/>
      <point x="469" y="1052"/>
      <point x="470" y="1059" type="qcurve" smooth="yes"/>
      <point x="471" y="1073" type="line"/>
      <point x="465" y="1075" type="line" smooth="yes"/>
      <point x="458" y="1080"/>
      <point x="453" y="1077"/>
    </contour>
  </outline>
</glyph>
<glyph name="glyph00008" format="1">
  <advance width="446"/>
  <unicode hex="0028"/>
  <outline>
    <contour>
      <point x="340" y="1001" type="qcurve"/>
      <point x="340" y="1001" name="inserted"/>
      <point x="340" y="1001"/>
      <point x="340" y="1001" type="qcurve"/>
      <point x="316" y="976"/>
      <point x="289" y="938"/>
      <point x="277" y="914" type="qcurve" smooth="yes"/>
      <point x="256" y="872"/>
      <point x="216" y="762"/>
      <point x="196" y="692" type="qcurve" smooth="yes"/>
      <point x="172" y="608"/>
      <point x="153" y="506"/>
      <point x="151" y="450" type="qcurve" smooth="yes"/>
      <point x="149" y="396"/>
      <point x="165" y="294"/>
      <point x="185" y="234" type="qcurve" smooth="yes"/>
      <point x="211" y="156"/>
      <point x="282" y="19"/>
      <point x="303" y="4" type="qcurve"/>
      <point x="311" y="0"/>
      <point x="324" y="1"/>
      <point x="324" y="6" type="qcurve" smooth="yes"/>
      <point x="324" y="8"/>
      <point x="317" y="20"/>
      <point x="312" y="28" type="qcurve" smooth="yes"/>
      <point x="300" y="48"/>
      <point x="256" y="141"/>
      <point x="241" y="177" type="qcurve" smooth="yes"/>
      <point x="211" y="253"/>
      <point x="187" y="373"/>
      <point x="189" y="434" type="qcurve" smooth="yes"/>
      <point x="191" y="485"/>
      <point x="212" y="591"/>
      <point x="246" y="713" type="qcurve" smooth="yes"/>
      <point x="259" y="760"/>
      <point x="304" y="881"/>
      <point x="319" y="910" type="qcurve" smooth="yes"/>
      <point x="328" y="927"/>
      <point x="354" y="961"/>
      <point x="375" y="982" type="qcurve" smooth="yes"/>
      <point x="392" y="1000"/>
      <point x="400" y="1012"/>
      <point x="396" y="1013" type="qcurve"/>
      <point x="393" y="1017" name="inserted"/>
      <point x="381" y="1022"/>
      <point x="372" y="1024" type="qcurve"/>
      <point x="367" y="1026"/>
      <point x="356" y="1018"/>
    </contour>
  </outline>
</glyph>
<glyph name="glyph00009" format="1">
  <advance width="548"/>
  <unicode hex="0029"/>
  <outline>
    <contour>
      <point x="128" y="1024" type="qcurve"/>
      <point x="128" y="1024" name="inserted"/>
      <point x="128" y="1024"/>
      <point x="128" y="1024" type="qcurve"/>
      <point x="125" y="1021" name="inserted"/>
      <point x="130" y="1013"/>
      <point x="139" y="1008" type="qcurve"/>
      <point x="159" y="995"/>
      <point x="211" y="931"/>
      <point x="232" y="891" type="qcurve" smooth="yes"/>
      <point x="263" y="832"/>
      <point x="305" y="697"/>
      <point x="312" y="631" type="qcurve" smooth="yes"/>
      <point x="316" y="585"/>
      <point x="315" y="380"/>
      <point x="311" y="332" type="qcurve" smooth="yes"/>
      <point x="299" y="235"/>
      <point x="264" y="86"/>
      <point x="242" y="46" type="qcurve"/>
      <point x="237" y="36" name="inserted"/>
      <point x="222" y="23"/>
      <point x="213" y="21" type="qcurve"/>
      <point x="209" y="21" name="inserted"/>
      <point x="204" y="19"/>
      <point x="203" y="17" type="qcurve"/>
      <point x="201" y="14" name="inserted"/>
      <point x="206" y="7"/>
      <point x="213" y="3" type="qcurve" smooth="yes"/>
      <point x="219" y="0"/>
      <point x="228" y="0"/>
      <point x="238" y="3" type="qcurve"/>
      <point x="256" y="7"/>
      <point x="278" y="29"/>
      <point x="291" y="54" type="qcurve" smooth="yes"/>
      <point x="307" y="86"/>
      <point x="332" y="175"/>
      <point x="341" y="235" type="qcurve" smooth="yes"/>
      <point x="349" y="284"/>
      <point x="355" y="376"/>
      <point x="354" y="450" type="qcurve" smooth="yes"/>
      <point x="355" y="540"/>
      <point x="348" y="649"/>
      <point x="340" y="686" type="qcurve" smooth="yes"/>
      <point x="326" y="751"/>
      <point x="267" y="888"/>
      <point x="233" y="937" type="qcurve" smooth="yes"/>
      <point x="219" y="956"/>
      <point x="175" y="1005"/>
      <point x="166" y="1011" type="qcurve" smooth="yes" name="inserted"/>
      <point x="157" y="1017"/>
      <point x="131" y="1025"/>
    </contour>
  </outline>
</glyph>
<glyph name="glyph00010" format="1">
  <advance width="513"/>
  <unicode hex="002A"/>
  <outline>
    <contour>
      <point x="309" y="771" type="qcurve"/>
      <point x="309" y="771" name="inserted"/>
      <point x="309" y="771"/>
      <point x="309" y="771" type="qcurve"/>
      <point x="307" y="768"/>
      <point x="302" y="759"/>
      <point x="301" y="754" type="qcurve" smooth="yes"/>
      <point x="298" y="743"/>
      <point x="282" y="711"/>
      <point x="270" y="688" type="qcurve" smooth="yes"/>
      <point x="260" y="671" type="line"/>
      <point x="258" y="706" type="line" smooth="yes"/>
      <point x="258" y="721"/>
      <point x="256" y="741"/>
      <point x="254" y="742" type="qcurve"/>
      <point x="251" y="746"/>
      <point x="235" y="752"/>
      <point x="233" y="751" type="qcurve"/>
      <point x="233" y="750"/>
      <point x="233" y="726"/>
      <point x="234" y="709" type="qcurve" smooth="yes" name="inserted"/>
      <point x="235" y="690"/>
      <point x="235" y="668"/>
      <point x="233" y="668" type="qcurve" smooth="yes" name="inserted"/>
      <point x="232" y="668"/>
      <point x="222" y="675"/>
      <point x="215" y="681" type="qcurve" smooth="yes"/>
      <point x="195" y="700"/>
      <point x="157" y="718"/>
      <point x="140" y="718" type="qcurve" smooth="yes"/>
      <point x="126" y="718"/>
      <point x="118" y="709"/>
      <point x="127" y="702" type="qcurve" smooth="yes"/>
      <point x="131" y="699"/>
      <point x="139" y="698"/>
      <point x="149" y="699" type="qcurve" smooth="yes"/>
      <point x="158" y="699"/>
      <point x="169" y="697"/>
      <point x="179" y="689" type="qcurve" smooth="yes"/>
      <point x="195" y="680"/>
      <point x="230" y="646"/>
      <point x="232" y="642" type="qcurve"/>
      <point x="232" y="641"/>
      <point x="220" y="631"/>
      <point x="212" y="626" type="qcurve" smooth="yes"/>
      <point x="187" y="609"/>
      <point x="145" y="576"/>
      <point x="132" y="564" type="qcurve" smooth="yes"/>
      <point x="127" y="558"/>
      <point x="119" y="547"/>
      <point x="118" y="547" type="qcurve"/>
      <point x="119" y="544"/>
      <point x="126" y="536"/>
      <point x="131" y="533" type="qcurve"/>
      <point x="134" y="530"/>
      <point x="144" y="536"/>
      <point x="154" y="547" type="qcurve" smooth="yes"/>
      <point x="162" y="556"/>
      <point x="195" y="583"/>
      <point x="208" y="590" type="qcurve" smooth="yes"/>
      <point x="212" y="594"/>
      <point x="213" y="594"/>
      <point x="211" y="589" type="qcurve"/>
      <point x="210" y="585"/>
      <point x="200" y="573"/>
      <point x="193" y="564" type="qcurve" smooth="yes"/>
      <point x="181" y="549"/>
      <point x="179" y="539"/>
      <point x="189" y="533" type="qcurve"/>
      <point x="195" y="530"/>
      <point x="208" y="541"/>
      <point x="221" y="555" type="qcurve" smooth="yes"/>
      <point x="234" y="573" type="line"/>
      <point x="235" y="513" type="line" smooth="yes"/>
      <point x="235" y="489"/>
      <point x="236" y="441"/>
      <point x="236" y="427" type="qcurve"/>
      <point x="236" y="408"/>
      <point x="238" y="397"/>
      <point x="241" y="394" type="qcurve"/>
      <point x="247" y="389"/>
      <point x="257" y="388"/>
      <point x="258" y="392" type="qcurve"/>
      <point x="259" y="394"/>
      <point x="260" y="456"/>
      <point x="261" y="502" type="qcurve" smooth="yes"/>
      <point x="263" y="608" type="line"/>
      <point x="289" y="574" type="line" smooth="yes"/>
      <point x="299" y="560"/>
      <point x="318" y="533"/>
      <point x="321" y="530" type="qcurve" smooth="yes"/>
      <point x="331" y="513"/>
      <point x="349" y="512"/>
      <point x="343" y="525" type="qcurve"/>
      <point x="338" y="536"/>
      <point x="299" y="590"/>
      <point x="285" y="608" type="qcurve" smooth="yes"/>
      <point x="277" y="614"/>
      <point x="269" y="627"/>
      <point x="269" y="627" type="qcurve"/>
      <point x="269" y="631"/>
      <point x="307" y="652"/>
      <point x="338" y="668" type="qcurve" smooth="yes"/>
      <point x="354" y="675"/>
      <point x="377" y="688"/>
      <point x="378" y="688" type="qcurve"/>
      <point x="380" y="692"/>
      <point x="374" y="699"/>
      <point x="367" y="702" type="qcurve" smooth="yes"/>
      <point x="362" y="704"/>
      <point x="347" y="699"/>
      <point x="327" y="690" type="qcurve" smooth="yes"/>
      <point x="315" y="685"/>
      <point x="298" y="678"/>
      <point x="297" y="678" type="qcurve"/>
      <point x="297" y="680"/>
      <point x="301" y="690"/>
      <point x="305" y="698" type="qcurve" smooth="yes" name="inserted"/>
      <point x="310" y="706"/>
      <point x="319" y="730"/>
      <point x="323" y="738" type="qcurve" smooth="yes" name="inserted"/>
      <point x="326" y="747"/>
      <point x="332" y="761"/>
      <point x="333" y="762" type="qcurve"/>
      <point x="336" y="765" name="inserted"/>
      <point x="334" y="771"/>
      <point x="328" y="774" type="qcurve" smooth="yes"/>
      <point x="321" y="778"/>
      <point x="313" y="776"/>
    </contour>
  </outline>
</glyph>
<glyph name="glyph00011" format="1">
  <advance width="480"/>
  <unicode hex="002B"/>
  <outline>
    <contour>
      <point x="209" y="487" type="qcurve"/>
      <point x="208" y="481"/>
      <point x="208" y="429"/>
      <point x="208" y="392" type="qcurve" smooth="yes"/>
      <point x="208" y="308" type="line"/>
      <point x="179" y="298" type="line" smooth="yes"/>
      <point x="144" y="287"/>
      <point x="85" y="269"/>
      <point x="77" y="267" type="qcurve" smooth="yes"/>
      <point x="64" y="264"/>
      <point x="57" y="261"/>
      <point x="58" y="255" type="qcurve" smooth="yes"/>
      <point x="60" y="245"/>
      <point x="81" y="233"/>
      <point x="86" y="241" type="qcurve" smooth="yes"/>
      <point x="87" y="243"/>
      <point x="104" y="248"/>
      <point x="117" y="253" type="qcurve" smooth="yes" name="inserted"/>
      <point x="123" y="253" name="inserted"/>
      <point x="137" y="258"/>
      <point x="145" y="261" type="qcurve" smooth="yes"/>
      <point x="178" y="272" type="line"/>
      <point x="211" y="282" type="line"/>
      <point x="217" y="162" type="line"/>
      <point x="221" y="95" type="line"/>
      <point x="222" y="88"/>
      <point x="225" y="77"/>
      <point x="226" y="74" type="qcurve"/>
      <point x="229" y="71"/>
      <point x="242" y="66"/>
      <point x="246" y="67" type="qcurve"/>
      <point x="251" y="68"/>
      <point x="253" y="80"/>
      <point x="250" y="101" type="qcurve" smooth="yes"/>
      <point x="246" y="179" type="line" smooth="yes"/>
      <point x="245" y="208" name="inserted"/>
      <point x="244" y="254"/>
      <point x="244" y="274" type="qcurve" smooth="yes"/>
      <point x="242" y="293" type="line"/>
      <point x="276" y="307" type="line" smooth="yes"/>
      <point x="284" y="309" name="inserted"/>
      <point x="301" y="316"/>
      <point x="310" y="320" type="qcurve" smooth="yes"/>
      <point x="343" y="333" type="line" smooth="yes"/>
      <point x="371" y="343"/>
      <point x="379" y="355"/>
      <point x="361" y="360" type="qcurve"/>
      <point x="355" y="363"/>
      <point x="336" y="357"/>
      <point x="291" y="338" type="qcurve" smooth="yes"/>
      <point x="271" y="333"/>
      <point x="243" y="323"/>
      <point x="242" y="323" type="qcurve"/>
      <point x="240" y="331"/>
      <point x="236" y="418"/>
      <point x="236" y="427" type="qcurve"/>
      <point x="237" y="429"/>
      <point x="238" y="446"/>
      <point x="239" y="459" type="qcurve" smooth="yes"/>
      <point x="241" y="488" type="line"/>
      <point x="232" y="493" type="line"/>
      <point x="220" y="499"/>
      <point x="211" y="496"/>
      <point x="209" y="487" type="qcurve"/>
      <point x="209" y="487" name="inserted"/>
      <point x="209" y="487"/>
    </contour>
  </outline>
</glyph>
<glyph name="glyph00012" format="1">
  <advance width="1024"/>
  <unicode hex="002C"/>
  <outline>
    <contour>
      <point x="410" y="58" type="qcurve"/>
      <point x="410" y="58" name="inserted"/>
      <point x="410" y="58"/>
      <point x="410" y="58" type="qcurve"/>
      <point x="412" y="54"/>
      <point x="420" y="34"/>
      <point x="426" y="19" type="qcurve" smooth="yes"/>
      <point x="440" y="-11"/>
      <point x="451" y="-70"/>
      <point x="452" y="-115" type="qcurve" smooth="yes"/>
      <point x="453" y="-149"/>
      <point x="452" y="-176"/>
      <point x="447" y="-190" type="qcurve"/>
      <point x="445" y="-199"/>
      <point x="435" y="-219"/>
      <point x="431" y="-222" type="qcurve" smooth="yes"/>
      <point x="415" y="-241"/>
      <point x="412" y="-252"/>
      <point x="417" y="-259" type="qcurve"/>
      <point x="425" y="-273"/>
      <point x="440" y="-274"/>
      <point x="452" y="-260" type="qcurve" smooth="yes"/>
      <point x="459" y="-252"/>
      <point x="472" y="-230"/>
      <point x="476" y="-222" type="qcurve" smooth="yes"/>
      <point x="481" y="-211"/>
      <point x="483" y="-183"/>
      <point x="483" y="-140" type="qcurve" smooth="yes"/>
      <point x="483" y="-104"/>
      <point x="479" y="-69"/>
      <point x="476" y="-50" type="qcurve" smooth="yes"/>
      <point x="469" y="-19"/>
      <point x="443" y="47"/>
      <point x="432" y="55" type="qcurve"/>
      <point x="423" y="63"/>
      <point x="409" y="64"/>
    </contour>
  </outline>
</glyph>
<glyph name="glyph00013" format="1">
  <advance width="718"/>
  <unicode hex="002D"/>
  <outline>
    <contour>
      <point x="513" y="482" type="qcurve"/>
      <point x="513" y="482" name="inserted"/>
      <point x="513" y="482"/>
      <point x="513" y="482" type="qcurve"/>
      <point x="501" y="479"/>
      <point x="411" y="476"/>
      <point x="309" y="475" type="qcurve" smooth="yes"/>
      <point x="233" y="474"/>
      <point x="127" y="471"/>
      <point x="120" y="470" type="qcurve"/>
      <point x="111" y="467"/>
      <point x="117" y="455"/>
      <point x="131" y="450" type="qcurve" smooth="yes"/>
      <point x="141" y="446"/>
      <point x="155" y="445"/>
      <point x="167" y="447" type="qcurve" smooth="yes"/>
      <point x="178" y="449"/>
      <point x="273" y="451"/>
      <point x="342" y="451" type="qcurve" smooth="yes"/>
      <point x="460" y="451"/>
      <point x="562" y="458"/>
      <point x="577" y="466" type="qcurve"/>
      <point x="585" y="469"/>
      <point x="586" y="473"/>
      <point x="580" y="476" type="qcurve" smooth="yes"/>
      <point x="569" y="483"/>
      <point x="532" y="487"/>
    </contour>
  </outline>
</glyph>
<glyph name="glyph00014" format="1">
  <advance width="1024"/>
  <unicode hex="002E"/>
  <outline>
    <contour>
      <point x="509" y="143" type="qcurve"/>
      <point x="505" y="136"/>
      <point x="492" y="121"/>
      <point x="486" y="116" type="qcurve" smooth="yes"/>
      <point x="470" y="104"/>
      <point x="486" y="78"/>
      <point x="519" y="63" type="qcurve" smooth="yes"/>
      <point x="554" y="47"/>
      <point x="598" y="48"/>
      <point x="591" y="66" type="qcurve" smooth="yes"/>
      <point x="589" y="71"/>
      <point x="586" y="93"/>
      <point x="585" y="104" type="qcurve" smooth="yes"/>
      <point x="586" y="126"/>
      <point x="570" y="145"/>
      <point x="544" y="151" type="qcurve"/>
      <point x="526" y="156"/>
      <point x="513" y="153"/>
      <point x="509" y="143" type="qcurve"/>
      <point x="509" y="143" name="inserted"/>
      <point x="509" y="143"/>
    </contour>
  </outline>
</glyph>
<glyph name="glyph00015" format="1">
  <advance width="1024"/>
  <unicode hex="002F"/>
  <outline>
    <contour>
      <point x="667" y="912" type="qcurve"/>
      <point x="667" y="912" name="inserted"/>
      <point x="667" y="912"/>
      <point x="667" y="912" type="qcurve"/>
      <point x="667" y="911" name="inserted"/>
      <point x="665" y="909"/>
      <point x="664" y="905" type="qcurve"/>
      <point x="659" y="892" type="line" smooth="yes"/>
      <point x="647" y="848"/>
      <point x="587" y="719"/>
      <point x="541" y="631" type="qcurve" smooth="yes"/>
      <point x="533" y="615"/>
      <point x="511" y="567"/>
      <point x="501" y="547" type="qcurve" smooth="yes"/>
      <point x="475" y="488"/>
      <point x="407" y="311"/>
      <point x="388" y="254" type="qcurve" smooth="yes"/>
      <point x="347" y="132"/>
      <point x="332" y="81"/>
      <point x="339" y="81" type="qcurve"/>
      <point x="341" y="79"/>
      <point x="347" y="74"/>
      <point x="349" y="73" type="qcurve"/>
      <point x="355" y="70"/>
      <point x="363" y="77"/>
      <point x="366" y="90" type="qcurve"/>
      <point x="367" y="94" name="inserted"/>
      <point x="372" y="110"/>
      <point x="377" y="122" type="qcurve" smooth="yes"/>
      <point x="418" y="235" type="line" smooth="yes"/>
      <point x="440" y="298"/>
      <point x="509" y="475"/>
      <point x="531" y="527" type="qcurve" smooth="yes"/>
      <point x="539" y="547"/>
      <point x="571" y="614"/>
      <point x="586" y="643" type="qcurve" smooth="yes"/>
      <point x="615" y="701"/>
      <point x="647" y="768"/>
      <point x="659" y="804" type="qcurve" smooth="yes" name="inserted"/>
      <point x="673" y="839"/>
      <point x="692" y="898"/>
      <point x="691" y="904" type="qcurve"/>
      <point x="690" y="909"/>
      <point x="670" y="916"/>
    </contour>
  </outline>
</glyph>
<glyph name="glyph00016" format="1">
  <advance width="609.0"/>
  <unicode hex="0030"/>
  <outline>
    <contour>
      <point x="233" y="885" type="qcurve"/>
      <point x="233" y="885" name="inserted"/>
      <point x="233" y="885"/>
      <point x="233" y="885" type="qcurve"/>
      <point x="208" y="882"/>
      <point x="168" y="863"/>
      <point x="157" y="850" type="qcurve" smooth="yes"/>
      <point x="137" y="826"/>
      <point x="108" y="713"/>
      <point x="102" y="628" type="qcurve" smooth="yes"/>
      <point x="96" y="560"/>
      <point x="101" y="341"/>
      <point x="108" y="284" type="qcurve" smooth="yes"/>
      <point x="123" y="198"/>
      <point x="172" y="70"/>
      <point x="204" y="38" type="qcurve" smooth="yes"/>
      <point x="220" y="23"/>
      <point x="269" y="1"/>
      <point x="288" y="1" type="qcurve" smooth="yes"/>
      <point x="306" y="1"/>
      <point x="345" y="19"/>
      <point x="360" y="33" type="qcurve" smooth="yes"/>
      <point x="381" y="56"/>
      <point x="420" y="163"/>
      <point x="429" y="223" type="qcurve" smooth="yes"/>
      <point x="436" y="264"/>
      <point x="443" y="413"/>
      <point x="443" y="492" type="qcurve" smooth="yes"/>
      <point x="444" y="667"/>
      <point x="389" y="859"/>
      <point x="331" y="882" type="qcurve" smooth="yes"/>
      <point x="318" y="887"/>
      <point x="263" y="888"/>
    </contour>
    <contour>
      <point x="332" y="849" type="qcurve"/>
      <point x="332" y="849" name="inserted"/>
      <point x="332" y="849"/>
      <point x="332" y="849" type="qcurve"/>
      <point x="356" y="831"/>
      <point x="393" y="741"/>
      <point x="403" y="674" type="qcurve" smooth="yes"/>
      <point x="412" y="596"/>
      <point x="410" y="303"/>
      <point x="398" y="226" type="qcurve" smooth="yes"/>
      <point x="389" y="169"/>
      <point x="355" y="76"/>
      <point x="338" y="56" type="qcurve"/>
      <point x="301" y="15"/>
      <point x="215" y="56"/>
      <point x="181" y="131" type="qcurve" smooth="yes"/>
      <point x="169" y="161"/>
      <point x="147" y="244"/>
      <point x="140" y="285" type="qcurve" smooth="yes"/>
      <point x="137" y="315"/>
      <point x="131" y="388"/>
      <point x="130" y="455" type="qcurve" smooth="yes"/>
      <point x="129" y="567"/>
      <point x="140" y="719"/>
      <point x="156" y="772" type="qcurve" smooth="yes"/>
      <point x="160" y="787"/>
      <point x="166" y="797"/>
      <point x="171" y="798" type="qcurve" smooth="yes" name="inserted"/>
      <point x="176" y="798"/>
      <point x="188" y="808"/>
      <point x="194" y="814" type="qcurve"/>
      <point x="205" y="828"/>
      <point x="238" y="851"/>
      <point x="252" y="856" type="qcurve"/>
      <point x="257" y="858"/>
      <point x="279" y="860"/>
      <point x="291" y="860" type="qcurve"/>
      <point x="307" y="859"/>
      <point x="323" y="855"/>
    </contour>
  </outline>
</glyph>
<glyph name="glyph00017" format="1">
  <advance width="447"/>
  <unicode hex="0031"/>
  <outline>
    <contour>
      <point x="163" y="526" type="qcurve"/>
      <point x="152" y="519"/>
      <point x="114" y="466"/>
      <point x="108" y="452" type="qcurve"/>
      <point x="105" y="441"/>
      <point x="110" y="427"/>
      <point x="119" y="427" type="qcurve" smooth="yes"/>
      <point x="125" y="427"/>
      <point x="134" y="435"/>
      <point x="137" y="444" type="qcurve" smooth="yes" name="inserted"/>
      <point x="140" y="454"/>
      <point x="169" y="496"/>
      <point x="172" y="497" type="qcurve"/>
      <point x="175" y="467" type="line" smooth="yes"/>
      <point x="177" y="440"/>
      <point x="170" y="296"/>
      <point x="164" y="220" type="qcurve" smooth="yes"/>
      <point x="162" y="194"/>
      <point x="158" y="124"/>
      <point x="157" y="97" type="qcurve" smooth="yes"/>
      <point x="155" y="58"/>
      <point x="157" y="34"/>
      <point x="161" y="33" type="qcurve"/>
      <point x="166" y="29"/>
      <point x="172" y="28"/>
      <point x="177" y="30" type="qcurve"/>
      <point x="180" y="31"/>
      <point x="182" y="57"/>
      <point x="184" y="93" type="qcurve" smooth="yes"/>
      <point x="185" y="120"/>
      <point x="190" y="191"/>
      <point x="192" y="218" type="qcurve" smooth="yes"/>
      <point x="202" y="336"/>
      <point x="206" y="495"/>
      <point x="198" y="517" type="qcurve" smooth="yes"/>
      <point x="194" y="526"/>
      <point x="174" y="533"/>
      <point x="163" y="526" type="qcurve"/>
      <point x="163" y="526" name="inserted"/>
      <point x="163" y="526"/>
    </contour>
    <contour>
      <point x="270" y="29" type="qcurve"/>
      <point x="251" y="27"/>
      <point x="130" y="11"/>
      <point x="103" y="6" type="qcurve" smooth="yes"/>
      <point x="83" y="3"/>
      <point x="65" y="-3"/>
      <point x="66" y="-8" type="qcurve"/>
      <point x="65" y="-13" name="inserted"/>
      <point x="87" y="-16"/>
      <point x="109" y="-13" type="qcurve" smooth="yes"/>
      <point x="159" y="-5"/>
      <point x="223" y="3"/>
      <point x="252" y="6" type="qcurve" smooth="yes"/>
      <point x="306" y="12" type="line"/>
      <point x="309" y="13"/>
      <point x="314" y="17"/>
      <point x="316" y="18" type="qcurve"/>
      <point x="319" y="27"/>
      <point x="295" y="32"/>
      <point x="270" y="29" type="qcurve"/>
      <point x="270" y="29" name="inserted"/>
      <point x="270" y="29"/>
    </contour>
  </outline>
</glyph>
<glyph name="glyph00018" format="1">
  <advance width="695"/>
  <unicode hex="0032"/>
  <outline>
    <contour>
      <point x="300" y="850" type="qcurve"/>
      <point x="300" y="850" name="inserted"/>
      <point x="300" y="850"/>
      <point x="300" y="850" type="qcurve"/>
      <point x="271" y="839"/>
      <point x="224" y="790"/>
      <point x="211" y="758" type="qcurve" smooth="yes"/>
      <point x="200" y="729"/>
      <point x="200" y="656"/>
      <point x="211" y="628" type="qcurve" smooth="yes"/>
      <point x="219" y="608"/>
      <point x="234" y="591"/>
      <point x="242" y="593" type="qcurve" smooth="yes" name="inserted"/>
      <point x="250" y="595"/>
      <point x="251" y="622"/>
      <point x="242" y="640" type="qcurve" smooth="yes"/>
      <point x="234" y="662"/>
      <point x="233" y="719"/>
      <point x="242" y="743" type="qcurve" smooth="yes"/>
      <point x="254" y="776"/>
      <point x="312" y="816"/>
      <point x="340" y="815" type="qcurve" smooth="yes"/>
      <point x="358" y="814"/>
      <point x="372" y="770"/>
      <point x="374" y="715" type="qcurve" smooth="yes"/>
      <point x="376" y="593"/>
      <point x="319" y="329"/>
      <point x="258" y="177" type="qcurve" smooth="yes"/>
      <point x="246" y="147"/>
      <point x="228" y="102"/>
      <point x="226" y="96" type="qcurve"/>
      <point x="224" y="85"/>
      <point x="235" y="67"/>
      <point x="245" y="66" type="qcurve"/>
      <point x="251" y="66"/>
      <point x="298" y="84"/>
      <point x="330" y="98" type="qcurve" smooth="yes" name="inserted"/>
      <point x="362" y="112"/>
      <point x="439" y="142"/>
      <point x="463" y="152" type="qcurve" smooth="yes"/>
      <point x="511" y="167"/>
      <point x="535" y="187"/>
      <point x="523" y="199" type="qcurve"/>
      <point x="521" y="203"/>
      <point x="513" y="207"/>
      <point x="509" y="207" type="qcurve"/>
      <point x="498" y="205"/>
      <point x="386" y="164"/>
      <point x="337" y="142" type="qcurve" smooth="yes"/>
      <point x="314" y="133"/>
      <point x="281" y="119"/>
      <point x="277" y="119" type="qcurve" smooth="yes" name="inserted"/>
      <point x="274" y="119"/>
      <point x="277" y="133"/>
      <point x="285" y="152" type="qcurve" smooth="yes"/>
      <point x="311" y="212"/>
      <point x="361" y="370"/>
      <point x="379" y="440" type="qcurve" smooth="yes"/>
      <point x="393" y="502"/>
      <point x="404" y="609"/>
      <point x="404" y="686" type="qcurve" smooth="yes"/>
      <point x="404" y="756"/>
      <point x="401" y="795"/>
      <point x="393" y="813" type="qcurve" smooth="yes"/>
      <point x="387" y="825"/>
      <point x="376" y="845"/>
      <point x="370" y="848" type="qcurve" smooth="yes"/>
      <point x="358" y="854"/>
      <point x="316" y="855"/>
    </contour>
  </outline>
</glyph>
<glyph name="glyph00019" format="1">
  <advance width="636.0"/>
  <unicode hex="0033"/>
  <outline>
    <contour>
      <point x="300" y="815" type="qcurve"/>
      <point x="300" y="815" name="inserted"/>
      <point x="300" y="815"/>
      <point x="300" y="815" type="qcurve"/>
      <point x="280" y="808"/>
      <point x="236" y="774"/>
      <point x="208" y="744" type="qcurve" smooth="yes"/>
      <point x="172" y="707"/>
      <point x="142" y="647"/>
      <point x="142" y="612" type="qcurve" smooth="yes"/>
      <point x="142" y="588"/>
      <point x="151" y="568"/>
      <point x="160" y="568" type="qcurve"/>
      <point x="169" y="568"/>
      <point x="177" y="587"/>
      <point x="179" y="614" type="qcurve" smooth="yes"/>
      <point x="180" y="634"/>
      <point x="189" y="658"/>
      <point x="198" y="675" type="qcurve" smooth="yes"/>
      <point x="221" y="711"/>
      <point x="302" y="779"/>
      <point x="316" y="777" type="qcurve"/>
      <point x="325" y="772"/>
      <point x="317" y="718"/>
      <point x="305" y="682" type="qcurve" smooth="yes"/>
      <point x="291" y="644"/>
      <point x="231" y="532"/>
      <point x="207" y="496" type="qcurve" smooth="yes"/>
      <point x="173" y="449"/>
      <point x="160" y="407"/>
      <point x="177" y="394" type="qcurve"/>
      <point x="182" y="388"/>
      <point x="207" y="383"/>
      <point x="234" y="382" type="qcurve" smooth="yes"/>
      <point x="282" y="380"/>
      <point x="341" y="366"/>
      <point x="362" y="356" type="qcurve"/>
      <point x="376" y="350"/>
      <point x="390" y="335"/>
      <point x="394" y="322" type="qcurve"/>
      <point x="401" y="299"/>
      <point x="399" y="262"/>
      <point x="387" y="249" type="qcurve" smooth="yes"/>
      <point x="360" y="219"/>
      <point x="211" y="169"/>
      <point x="122" y="159" type="qcurve" smooth="yes"/>
      <point x="93" y="155"/>
      <point x="69" y="148"/>
      <point x="66" y="145" type="qcurve" smooth="yes"/>
      <point x="64" y="140" name="inserted"/>
      <point x="64" y="131"/>
      <point x="66" y="127" type="qcurve"/>
      <point x="81" y="113"/>
      <point x="236" y="135"/>
      <point x="311" y="161" type="qcurve" smooth="yes"/>
      <point x="389" y="190"/>
      <point x="446" y="267"/>
      <point x="431" y="323" type="qcurve" smooth="yes"/>
      <point x="422" y="369"/>
      <point x="328" y="417"/>
      <point x="250" y="418" type="qcurve" smooth="yes"/>
      <point x="233" y="418"/>
      <point x="208" y="420"/>
      <point x="207" y="423" type="qcurve" smooth="yes" name="inserted"/>
      <point x="206" y="425"/>
      <point x="220" y="450"/>
      <point x="231" y="469" type="qcurve" smooth="yes"/>
      <point x="275" y="529"/>
      <point x="340" y="661"/>
      <point x="351" y="711" type="qcurve" smooth="yes"/>
      <point x="364" y="768"/>
      <point x="334" y="827"/>
    </contour>
  </outline>
</glyph>
<glyph name="glyph00020" format="1">
  <advance width="483.0"/>
  <unicode hex="0034"/>
  <outline>
    <contour>
      <point x="129" y="830" type="qcurve"/>
      <point x="129" y="830" name="inserted"/>
      <point x="129" y="830"/>
      <point x="129" y="830" type="qcurve"/>
      <point x="124" y="825"/>
      <point x="119" y="781"/>
      <point x="116" y="721" type="qcurve" smooth="yes"/>
      <point x="114" y="656"/>
      <point x="102" y="568"/>
      <point x="86" y="503" type="qcurve" smooth="yes"/>
      <point x="73" y="450"/>
      <point x="62" y="369"/>
      <point x="65" y="352" type="qcurve"/>
      <point x="66" y="333"/>
      <point x="99" y="323"/>
      <point x="155" y="323" type="qcurve" smooth="yes"/>
      <point x="183" y="323"/>
      <point x="230" y="324"/>
      <point x="237" y="325" type="qcurve" smooth="yes"/>
      <point x="251" y="327" type="line"/>
      <point x="254" y="174" type="line" smooth="yes"/>
      <point x="255" y="73"/>
      <point x="258" y="16"/>
      <point x="262" y="16" type="qcurve"/>
      <point x="266" y="13" name="inserted"/>
      <point x="272" y="13"/>
      <point x="276" y="16" type="qcurve"/>
      <point x="280" y="10"/>
      <point x="283" y="134"/>
      <point x="283" y="372" type="qcurve" smooth="yes" name="inserted"/>
      <point x="283" y="611"/>
      <point x="280" y="735"/>
      <point x="276" y="729" type="qcurve"/>
      <point x="272" y="732" name="inserted"/>
      <point x="266" y="732"/>
      <point x="262" y="729" type="qcurve"/>
      <point x="258" y="731"/>
      <point x="255" y="665"/>
      <point x="254" y="545" type="qcurve" smooth="yes"/>
      <point x="254" y="365" type="line"/>
      <point x="245" y="362" type="line"/>
      <point x="230" y="359"/>
      <point x="119" y="355"/>
      <point x="103" y="357" type="qcurve"/>
      <point x="96" y="359"/>
      <point x="93" y="368"/>
      <point x="95" y="387" type="qcurve" smooth="yes"/>
      <point x="97" y="399"/>
      <point x="108" y="456"/>
      <point x="114" y="487" type="qcurve" smooth="yes"/>
      <point x="132" y="562"/>
      <point x="145" y="651"/>
      <point x="147" y="717" type="qcurve" smooth="yes"/>
      <point x="148" y="752"/>
      <point x="152" y="804"/>
      <point x="153" y="808" type="qcurve"/>
      <point x="155" y="824"/>
      <point x="138" y="841"/>
    </contour>
  </outline>
</glyph>
<glyph name="glyph00021" format="1">
  <advance width="651"/>
  <unicode hex="0035"/>
  <outline>
    <contour>
      <point x="212" y="606" type="qcurve"/>
      <point x="208" y="598"/>
      <point x="202" y="495"/>
      <point x="200" y="412" type="qcurve" smooth="yes"/>
      <point x="199" y="345"/>
      <point x="201" y="309"/>
      <point x="205" y="307" type="qcurve"/>
      <point x="211" y="300"/>
      <point x="230" y="299"/>
      <point x="251" y="304" type="qcurve" smooth="yes" name="inserted"/>
      <point x="271" y="311"/>
      <point x="301" y="311"/>
      <point x="309" y="306" type="qcurve" smooth="yes" name="inserted"/>
      <point x="315" y="300"/>
      <point x="324" y="268"/>
      <point x="327" y="229" type="qcurve" smooth="yes"/>
      <point x="331" y="188"/>
      <point x="329" y="106"/>
      <point x="323" y="90" type="qcurve"/>
      <point x="312" y="67"/>
      <point x="264" y="41"/>
      <point x="240" y="44" type="qcurve" smooth="yes"/>
      <point x="215" y="48"/>
      <point x="202" y="46"/>
      <point x="202" y="37" type="qcurve"/>
      <point x="201" y="25"/>
      <point x="223" y="13"/>
      <point x="248" y="13" type="qcurve" smooth="yes"/>
      <point x="267" y="13"/>
      <point x="286" y="16"/>
      <point x="297" y="25" type="qcurve" smooth="yes"/>
      <point x="315" y="34"/>
      <point x="341" y="63"/>
      <point x="349" y="81" type="qcurve"/>
      <point x="354" y="92"/>
      <point x="357" y="122"/>
      <point x="356" y="168" type="qcurve" smooth="yes"/>
      <point x="356" y="246"/>
      <point x="340" y="325"/>
      <point x="320" y="336" type="qcurve" smooth="yes"/>
      <point x="309" y="343"/>
      <point x="267" y="343"/>
      <point x="245" y="337" type="qcurve" smooth="yes"/>
      <point x="227" y="332" type="line"/>
      <point x="228" y="423" type="line" smooth="yes"/>
      <point x="228" y="475"/>
      <point x="231" y="518"/>
      <point x="233" y="521" type="qcurve" smooth="yes" name="inserted"/>
      <point x="235" y="523"/>
      <point x="271" y="528"/>
      <point x="313" y="530" type="qcurve" smooth="yes"/>
      <point x="403" y="533"/>
      <point x="452" y="541"/>
      <point x="450" y="552" type="qcurve"/>
      <point x="451" y="565"/>
      <point x="425" y="570"/>
      <point x="379" y="565" type="qcurve" smooth="yes"/>
      <point x="352" y="563"/>
      <point x="294" y="560"/>
      <point x="275" y="559" type="qcurve" smooth="yes"/>
      <point x="232" y="557" type="line"/>
      <point x="233" y="574" type="line" smooth="yes"/>
      <point x="235" y="592"/>
      <point x="230" y="610"/>
      <point x="222" y="610" type="qcurve" smooth="yes"/>
      <point x="219" y="610"/>
      <point x="214" y="607"/>
      <point x="212" y="606" type="qcurve"/>
      <point x="212" y="606" name="inserted"/>
      <point x="212" y="606"/>
    </contour>
  </outline>
</glyph>
<glyph name="glyph00022" format="1">
  <advance width="381"/>
  <unicode hex="0036"/>
  <outline>
    <contour>
      <point x="175" y="764" type="qcurve"/>
      <point x="175" y="764" name="inserted"/>
      <point x="175" y="764"/>
      <point x="175" y="764" type="qcurve"/>
      <point x="154" y="756"/>
      <point x="124" y="703"/>
      <point x="107" y="641" type="qcurve" smooth="yes"/>
      <point x="85" y="566"/>
      <point x="64" y="408"/>
      <point x="64" y="311" type="qcurve"/>
      <point x="64" y="261"/>
      <point x="67" y="227"/>
      <point x="74" y="210" type="qcurve"/>
      <point x="83" y="184"/>
      <point x="112" y="141"/>
      <point x="128" y="131" type="qcurve" smooth="yes"/>
      <point x="135" y="127"/>
      <point x="162" y="119"/>
      <point x="175" y="117" type="qcurve" smooth="yes"/>
      <point x="211" y="111"/>
      <point x="249" y="126"/>
      <point x="264" y="152" type="qcurve" smooth="yes"/>
      <point x="275" y="170"/>
      <point x="284" y="216"/>
      <point x="283" y="245" type="qcurve" smooth="yes"/>
      <point x="282" y="271"/>
      <point x="268" y="302"/>
      <point x="252" y="313" type="qcurve"/>
      <point x="243" y="320"/>
      <point x="222" y="323"/>
      <point x="199" y="323" type="qcurve" smooth="yes"/>
      <point x="168" y="323"/>
      <point x="128" y="311"/>
      <point x="112" y="295" type="qcurve" smooth="yes"/>
      <point x="105" y="288"/>
      <point x="94" y="282"/>
      <point x="93" y="283" type="qcurve"/>
      <point x="90" y="288"/>
      <point x="93" y="386"/>
      <point x="98" y="439" type="qcurve" smooth="yes"/>
      <point x="101" y="483"/>
      <point x="121" y="584"/>
      <point x="135" y="631" type="qcurve" smooth="yes"/>
      <point x="153" y="693"/>
      <point x="187" y="737"/>
      <point x="208" y="726" type="qcurve"/>
      <point x="219" y="721"/>
      <point x="234" y="691"/>
      <point x="243" y="656" type="qcurve" smooth="yes"/>
      <point x="247" y="640"/>
      <point x="256" y="615"/>
      <point x="257" y="612" type="qcurve"/>
      <point x="263" y="606"/>
      <point x="274" y="612"/>
      <point x="277" y="621" type="qcurve"/>
      <point x="278" y="634"/>
      <point x="260" y="710"/>
      <point x="249" y="730" type="qcurve"/>
      <point x="235" y="753"/>
      <point x="194" y="772"/>
    </contour>
    <contour>
      <point x="241" y="277" type="qcurve"/>
      <point x="241" y="277" name="inserted"/>
      <point x="241" y="277"/>
      <point x="241" y="277" type="qcurve"/>
      <point x="258" y="261"/>
      <point x="252" y="184"/>
      <point x="232" y="163" type="qcurve" smooth="yes"/>
      <point x="227" y="158"/>
      <point x="211" y="154"/>
      <point x="196" y="155" type="qcurve" smooth="yes"/>
      <point x="159" y="156"/>
      <point x="115" y="185"/>
      <point x="104" y="216" type="qcurve" smooth="yes"/>
      <point x="97" y="234" type="line"/>
      <point x="121" y="255" type="line" smooth="yes"/>
      <point x="131" y="264"/>
      <point x="149" y="277"/>
      <point x="153" y="280" type="qcurve"/>
      <point x="169" y="284"/>
      <point x="230" y="283"/>
    </contour>
  </outline>
</glyph>
<glyph name="glyph00023" format="1">
  <advance width="561"/>
  <unicode hex="0037"/>
  <outline>
    <contour>
      <point x="230" y="776" type="qcurve"/>
      <point x="198" y="771"/>
      <point x="166" y="751"/>
      <point x="166" y="737" type="qcurve" smooth="yes"/>
      <point x="166" y="724" name="inserted"/>
      <point x="182" y="718"/>
      <point x="199" y="724" type="qcurve"/>
      <point x="209" y="729"/>
      <point x="255" y="733"/>
      <point x="293" y="735" type="qcurve" smooth="yes"/>
      <point x="366" y="738" type="line"/>
      <point x="366" y="727" type="line"/>
      <point x="366" y="721"/>
      <point x="357" y="681"/>
      <point x="353" y="657" type="qcurve" smooth="yes"/>
      <point x="330" y="538" type="line"/>
      <point x="318" y="478" type="line"/>
      <point x="288" y="469" type="line" smooth="yes"/>
      <point x="265" y="462"/>
      <point x="243" y="444"/>
      <point x="243" y="431" type="qcurve" smooth="yes" name="inserted"/>
      <point x="243" y="421"/>
      <point x="260" y="413"/>
      <point x="274" y="419" type="qcurve" smooth="yes"/>
      <point x="281" y="423"/>
      <point x="296" y="428"/>
      <point x="300" y="428" type="qcurve"/>
      <point x="307" y="428"/>
      <point x="310" y="421"/>
      <point x="307" y="405" type="qcurve"/>
      <point x="305" y="376"/>
      <point x="288" y="288"/>
      <point x="278" y="236" type="qcurve" smooth="yes"/>
      <point x="272" y="208"/>
      <point x="261" y="148"/>
      <point x="258" y="128" type="qcurve" smooth="yes"/>
      <point x="254" y="100"/>
      <point x="254" y="80"/>
      <point x="257" y="71" type="qcurve"/>
      <point x="266" y="51"/>
      <point x="279" y="75"/>
      <point x="287" y="130" type="qcurve" smooth="yes"/>
      <point x="293" y="158"/>
      <point x="302" y="210"/>
      <point x="306" y="224" type="qcurve"/>
      <point x="314" y="260"/>
      <point x="332" y="370"/>
      <point x="336" y="399" type="qcurve" smooth="yes"/>
      <point x="338" y="421"/>
      <point x="345" y="437"/>
      <point x="353" y="437" type="qcurve" smooth="yes"/>
      <point x="355" y="437"/>
      <point x="367" y="441"/>
      <point x="374" y="444" type="qcurve"/>
      <point x="381" y="447"/>
      <point x="386" y="454"/>
      <point x="386" y="461" type="qcurve"/>
      <point x="386" y="473"/>
      <point x="373" y="485"/>
      <point x="359" y="482" type="qcurve" smooth="yes"/>
      <point x="351" y="480"/>
      <point x="347" y="482"/>
      <point x="349" y="487" type="qcurve"/>
      <point x="385" y="665"/>
      <point x="398" y="740"/>
      <point x="393" y="747" type="qcurve"/>
      <point x="390" y="769"/>
      <point x="357" y="780"/>
      <point x="305" y="778" type="qcurve" smooth="yes"/>
      <point x="292" y="778" name="inserted"/>
      <point x="266" y="777"/>
      <point x="257" y="777" type="qcurve" smooth="yes"/>
      <point x="230" y="776" type="line"/>
      <point x="230" y="776" name="inserted"/>
      <point x="230" y="776"/>
    </contour>
  </outline>
</glyph>
<glyph name="glyph00024" format="1">
  <advance width="467.0"/>
  <unicode hex="0038"/>
  <outline>
    <contour>
      <point x="125" y="775" type="qcurve"/>
      <point x="125" y="775" name="inserted"/>
      <point x="125" y="775"/>
      <point x="125" y="775" type="qcurve"/>
      <point x="109" y="768"/>
      <point x="97" y="735"/>
      <point x="98" y="703" type="qcurve"/>
      <point x="97" y="663"/>
      <point x="127" y="580"/>
      <point x="166" y="508" type="qcurve" smooth="yes"/>
      <point x="190" y="464" type="line"/>
      <point x="174" y="435" type="line" smooth="yes"/>
      <point x="152" y="388"/>
      <point x="139" y="318"/>
      <point x="139" y="241" type="qcurve"/>
      <point x="139" y="162"/>
      <point x="152" y="98"/>
      <point x="171" y="85" type="qcurve" smooth="yes"/>
      <point x="186" y="73"/>
      <point x="219" y="67"/>
      <point x="250" y="71" type="qcurve" smooth="yes"/>
      <point x="295" y="78"/>
      <point x="335" y="129"/>
      <point x="335" y="178" type="qcurve" smooth="yes"/>
      <point x="335" y="231"/>
      <point x="304" y="335"/>
      <point x="262" y="414" type="qcurve" smooth="yes"/>
      <point x="236" y="464" type="line"/>
      <point x="268" y="510" type="line"/>
      <point x="282" y="532" type="line" smooth="yes"/>
      <point x="295" y="551"/>
      <point x="299" y="571"/>
      <point x="291" y="579" type="qcurve" smooth="yes" name="inserted"/>
      <point x="283" y="587"/>
      <point x="261" y="571"/>
      <point x="242" y="544" type="qcurve" smooth="yes"/>
      <point x="230" y="528"/>
      <point x="215" y="508"/>
      <point x="213" y="508" type="qcurve"/>
      <point x="208" y="513"/>
      <point x="164" y="595"/>
      <point x="151" y="626" type="qcurve"/>
      <point x="141" y="652"/>
      <point x="131" y="717"/>
      <point x="138" y="729" type="qcurve"/>
      <point x="141" y="739"/>
      <point x="176" y="741"/>
      <point x="212" y="734" type="qcurve" smooth="yes"/>
      <point x="239" y="729"/>
      <point x="273" y="703"/>
      <point x="291" y="677" type="qcurve" smooth="yes"/>
      <point x="302" y="659"/>
      <point x="316" y="646"/>
      <point x="323" y="646" type="qcurve" smooth="yes"/>
      <point x="335" y="647"/>
      <point x="335" y="677"/>
      <point x="319" y="703" type="qcurve" smooth="yes" name="inserted"/>
      <point x="304" y="730"/>
      <point x="271" y="761"/>
      <point x="248" y="768" type="qcurve" smooth="yes"/>
      <point x="224" y="774"/>
      <point x="139" y="779"/>
    </contour>
    <contour>
      <point x="251" y="349" type="qcurve"/>
      <point x="251" y="349" name="inserted"/>
      <point x="251" y="349"/>
      <point x="251" y="349" type="qcurve"/>
      <point x="275" y="297"/>
      <point x="299" y="220"/>
      <point x="299" y="182" type="qcurve"/>
      <point x="299" y="155"/>
      <point x="286" y="127"/>
      <point x="272" y="119" type="qcurve"/>
      <point x="253" y="110"/>
      <point x="202" y="111"/>
      <point x="193" y="120" type="qcurve"/>
      <point x="182" y="132"/>
      <point x="174" y="194"/>
      <point x="175" y="255" type="qcurve" smooth="yes"/>
      <point x="176" y="309"/>
      <point x="183" y="351"/>
      <point x="194" y="377" type="qcurve" smooth="yes"/>
      <point x="199" y="394"/>
      <point x="212" y="416"/>
      <point x="214" y="416" type="qcurve" smooth="yes" name="inserted"/>
      <point x="217" y="416"/>
      <point x="238" y="377"/>
    </contour>
  </outline>
</glyph>
<glyph name="glyph00025" format="1">
  <advance width="511.0"/>
  <unicode hex="0039"/>
  <outline>
    <contour>
      <point x="131" y="797" type="qcurve"/>
      <point x="131" y="797" name="inserted"/>
      <point x="131" y="797"/>
      <point x="131" y="797" type="qcurve"/>
      <point x="118" y="789"/>
      <point x="104" y="749"/>
      <point x="101" y="712" type="qcurve" smooth="yes"/>
      <point x="94" y="640" name="inserted"/>
      <point x="115" y="568"/>
      <point x="144" y="568" type="qcurve" smooth="yes"/>
      <point x="162" y="569"/>
      <point x="195" y="603"/>
      <point x="207" y="630" type="qcurve" smooth="yes"/>
      <point x="212" y="644"/>
      <point x="218" y="648"/>
      <point x="220" y="640" type="qcurve" smooth="yes" name="inserted"/>
      <point x="220" y="632"/>
      <point x="222" y="455"/>
      <point x="222" y="329" type="qcurve" smooth="yes"/>
      <point x="222" y="183"/>
      <point x="225" y="21"/>
      <point x="227" y="14" type="qcurve"/>
      <point x="230" y="4"/>
      <point x="245" y="4"/>
      <point x="249" y="14" type="qcurve" smooth="yes"/>
      <point x="251" y="21"/>
      <point x="252" y="183"/>
      <point x="252" y="350" type="qcurve" smooth="yes"/>
      <point x="251" y="487"/>
      <point x="251" y="667"/>
      <point x="251" y="672" type="qcurve"/>
      <point x="251" y="672" name="inserted"/>
      <point x="254" y="667"/>
      <point x="255" y="665" type="qcurve"/>
      <point x="261" y="647" type="line" smooth="yes"/>
      <point x="270" y="618"/>
      <point x="293" y="581"/>
      <point x="302" y="582" type="qcurve"/>
      <point x="310" y="587"/>
      <point x="311" y="618"/>
      <point x="303" y="636" type="qcurve" smooth="yes"/>
      <point x="299" y="645"/>
      <point x="288" y="671"/>
      <point x="286" y="681" type="qcurve" smooth="yes"/>
      <point x="276" y="712"/>
      <point x="229" y="779"/>
      <point x="212" y="790" type="qcurve"/>
      <point x="190" y="801"/>
      <point x="142" y="805"/>
    </contour>
    <contour>
      <point x="190" y="746" type="qcurve"/>
      <point x="190" y="746" name="inserted"/>
      <point x="190" y="746"/>
      <point x="190" y="746" type="qcurve"/>
      <point x="191" y="745" name="inserted"/>
      <point x="196" y="743"/>
      <point x="201" y="741" type="qcurve"/>
      <point x="211" y="735" type="line"/>
      <point x="203" y="708" type="line" smooth="yes"/>
      <point x="191" y="676"/>
      <point x="158" y="622"/>
      <point x="145" y="620" type="qcurve"/>
      <point x="135" y="619"/>
      <point x="127" y="647"/>
      <point x="130" y="683" type="qcurve" smooth="yes"/>
      <point x="132" y="736"/>
      <point x="158" y="762"/>
    </contour>
  </outline>
</glyph>
<glyph name="glyph00026" format="1">
  <advance width="1024"/>
  <unicode hex="003F"/>
  <outline>
    <contour>
      <point x="477" y="920" type="qcurve"/>
      <point x="477" y="920" name="inserted"/>
      <point x="477" y="920"/>
      <point x="477" y="920" type="qcurve"/>
      <point x="451" y="918"/>
      <point x="389" y="894"/>
      <point x="352" y="869" type="qcurve" smooth="yes"/>
      <point x="326" y="851" name="inserted"/>
      <point x="297" y="826"/>
      <point x="295" y="818" type="qcurve"/>
      <point x="293" y="799"/>
      <point x="341" y="754"/>
      <point x="361" y="756" type="qcurve" smooth="yes"/>
      <point x="365" y="757"/>
      <point x="362" y="766"/>
      <point x="350" y="779" type="qcurve" smooth="yes"/>
      <point x="333" y="796"/>
      <point x="336" y="815"/>
      <point x="354" y="829" type="qcurve" smooth="yes"/>
      <point x="386" y="852"/>
      <point x="456" y="890"/>
      <point x="485" y="897" type="qcurve" smooth="yes"/>
      <point x="502" y="901"/>
      <point x="539" y="902"/>
      <point x="547" y="898" type="qcurve"/>
      <point x="562" y="892"/>
      <point x="571" y="844"/>
      <point x="567" y="815" type="qcurve" smooth="yes"/>
      <point x="565" y="794"/>
      <point x="539" y="738"/>
      <point x="504" y="682" type="qcurve" smooth="yes"/>
      <point x="447" y="586"/>
      <point x="404" y="489"/>
      <point x="397" y="439" type="qcurve" smooth="yes" name="inserted"/>
      <point x="391" y="388"/>
      <point x="416" y="334"/>
      <point x="459" y="313" type="qcurve"/>
      <point x="471" y="307"/>
      <point x="492" y="295"/>
      <point x="496" y="292" type="qcurve" smooth="yes"/>
      <point x="505" y="283"/>
      <point x="529" y="277"/>
      <point x="533" y="283" type="qcurve"/>
      <point x="534" y="287" name="inserted"/>
      <point x="510" y="306"/>
      <point x="485" y="320" type="qcurve"/>
      <point x="456" y="335"/>
      <point x="432" y="360"/>
      <point x="432" y="386" type="qcurve" smooth="yes"/>
      <point x="432" y="415"/>
      <point x="446" y="486"/>
      <point x="458" y="522" type="qcurve" smooth="yes"/>
      <point x="463" y="541"/>
      <point x="530" y="638"/>
      <point x="563" y="698" type="qcurve" smooth="yes"/>
      <point x="588" y="741"/>
      <point x="608" y="791"/>
      <point x="608" y="819" type="qcurve" smooth="yes"/>
      <point x="608" y="839"/>
      <point x="608" y="861"/>
      <point x="604" y="869" type="qcurve" smooth="yes"/>
      <point x="592" y="898"/>
      <point x="529" y="924"/>
    </contour>
    <contour>
      <point x="491" y="197" type="qcurve"/>
      <point x="491" y="197" name="inserted"/>
      <point x="491" y="197"/>
      <point x="491" y="197" type="qcurve"/>
      <point x="486" y="196"/>
      <point x="484" y="190"/>
      <point x="484" y="181" type="qcurve" smooth="yes"/>
      <point x="485" y="169"/>
      <point x="492" y="158"/>
      <point x="502" y="154" type="qcurve" smooth="yes"/>
      <point x="515" y="149"/>
      <point x="535" y="152"/>
      <point x="529" y="157" type="qcurve"/>
      <point x="523" y="161" type="line"/>
      <point x="531" y="163" type="line" smooth="yes"/>
      <point x="535" y="164"/>
      <point x="540" y="169"/>
      <point x="542" y="173" type="qcurve" smooth="yes"/>
      <point x="544" y="181"/>
      <point x="539" y="191"/>
      <point x="529" y="195" type="qcurve" smooth="yes" name="inserted"/>
      <point x="519" y="198"/>
      <point x="499" y="200"/>
    </contour>
  </outline>
</glyph>
<glyph name="glyph00027" format="1">
  <advance width="922"/>
  <unicode hex="0041"/>
  <outline>
    <contour>
      <point x="461" y="1012" type="qcurve"/>
      <point x="461.0" y="1012.0" name="inserted"/>
      <point x="461.0" y="1012.0"/>
      <point x="461" y="1012" type="qcurve"/>
      <point x="457" y="1007"/>
      <point x="449" y="995"/>
      <point x="448" y="990" type="qcurve"/>
      <point x="443" y="971" type="line"/>
      <point x="432" y="938" type="line" smooth="yes"/>
      <point x="426" y="920"/>
      <point x="407" y="853"/>
      <point x="398" y="820" type="qcurve" smooth="yes"/>
      <point x="369" y="706"/>
      <point x="339" y="543"/>
      <point x="328" y="439" type="qcurve" smooth="yes"/>
      <point x="322" y="390" type="line"/>
      <point x="289" y="379" type="line" smooth="yes"/>
      <point x="262" y="370"/>
      <point x="243" y="357"/>
      <point x="247.5" y="350.5" type="qcurve" smooth="yes" name="inserted"/>
      <point x="252" y="344"/>
      <point x="271" y="345"/>
      <point x="291" y="352" type="qcurve" smooth="yes"/>
      <point x="301" y="355"/>
      <point x="316" y="358"/>
      <point x="317.5" y="357.5" type="qcurve" smooth="yes" name="inserted"/>
      <point x="319" y="357"/>
      <point x="316" y="309"/>
      <point x="310" y="241" type="qcurve" smooth="yes"/>
      <point x="305" y="189" type="line"/>
      <point x="302" y="136" type="line" smooth="yes"/>
      <point x="301" y="101"/>
      <point x="302" y="79"/>
      <point x="306" y="77" type="qcurve"/>
      <point x="310" y="72"/>
      <point x="317" y="71"/>
      <point x="322" y="76" type="qcurve"/>
      <point x="326" y="77"/>
      <point x="330" y="105"/>
      <point x="332" y="151" type="qcurve" smooth="yes"/>
      <point x="338" y="238"/>
      <point x="354" y="366"/>
      <point x="360" y="375" type="qcurve"/>
      <point x="361.5" y="375.5" name="inserted"/>
      <point x="370.5" y="379.5"/>
      <point x="378" y="383" type="qcurve"/>
      <point x="459" y="414" type="line"/>
      <point x="494" y="428" type="line" smooth="yes"/>
      <point x="506" y="433"/>
      <point x="524" y="439"/>
      <point x="525" y="438" type="qcurve"/>
      <point x="532" y="415"/>
      <point x="578" y="109"/>
      <point x="585" y="36" type="qcurve" smooth="yes"/>
      <point x="587.0" y="11.0" name="inserted"/>
      <point x="598.5" y="-4.5"/>
      <point x="608" y="5" type="qcurve" smooth="yes"/>
      <point x="611" y="8"/>
      <point x="612" y="21"/>
      <point x="611" y="37" type="qcurve" smooth="yes"/>
      <point x="607" y="86"/>
      <point x="583" y="260"/>
      <point x="566" y="363" type="qcurve" smooth="yes"/>
      <point x="559" y="399"/>
      <point x="553" y="449"/>
      <point x="554" y="451" type="qcurve"/>
      <point x="564" y="457"/>
      <point x="712" y="517"/>
      <point x="747" y="529" type="qcurve" smooth="yes"/>
      <point x="769" y="537"/>
      <point x="781" y="549"/>
      <point x="774" y="556" type="qcurve"/>
      <point x="770" y="564"/>
      <point x="705" y="544"/>
      <point x="614" y="506" type="qcurve" smooth="yes"/>
      <point x="587" y="494"/>
      <point x="549" y="481"/>
      <point x="547.0" y="483.0" type="qcurve" smooth="yes" name="inserted"/>
      <point x="545" y="485"/>
      <point x="535" y="560"/>
      <point x="527" y="629" type="qcurve" smooth="yes"/>
      <point x="521" y="674"/>
      <point x="511" y="820"/>
      <point x="506" y="937" type="qcurve" smooth="yes"/>
      <point x="503" y="985"/>
      <point x="496" y="1020"/>
      <point x="488.0" y="1022.5" type="qcurve" smooth="yes" name="inserted"/>
      <point x="480" y="1025"/>
      <point x="469" y="1021"/>
    </contour>
    <contour>
      <point x="481" y="928" type="qcurve"/>
      <point x="481.0" y="928.0" name="inserted"/>
      <point x="481.0" y="928.0"/>
      <point x="481" y="928" type="qcurve"/>
      <point x="485" y="803"/>
      <point x="502" y="603"/>
      <point x="515" y="514" type="qcurve" smooth="yes"/>
      <point x="520" y="482" type="line"/>
      <point x="520.5" y="475.5" name="inserted"/>
      <point x="521.0" y="468.5"/>
      <point x="521" y="468" type="qcurve"/>
      <point x="510" y="462"/>
      <point x="380" y="412"/>
      <point x="368" y="408" type="qcurve"/>
      <point x="365.0" y="408.0" name="inserted"/>
      <point x="363.0" y="411.0"/>
      <point x="364" y="414" type="qcurve"/>
      <point x="371" y="450" type="line" smooth="yes"/>
      <point x="379" y="499"/>
      <point x="402" y="619"/>
      <point x="418" y="697" type="qcurve" smooth="yes"/>
      <point x="436" y="790" type="line"/>
      <point x="450" y="860" type="line" smooth="yes"/>
      <point x="460" y="915"/>
      <point x="474" y="978"/>
      <point x="475.5" y="978.0" type="qcurve" smooth="yes" name="inserted"/>
      <point x="477" y="978"/>
      <point x="480" y="949"/>
    </contour>
  </outline>
</glyph>
<glyph name="glyph00028" format="1">
  <advance width="854.0"/>
  <unicode hex="0042"/>
  <outline>
    <contour>
      <point x="506" y="1021" type="qcurve"/>
      <point x="506" y="1021" name="inserted"/>
      <point x="506" y="1021"/>
      <point x="506" y="1021" type="qcurve"/>
      <point x="493" y="1020"/>
      <point x="451" y="1012"/>
      <point x="432" y="1008" type="qcurve" smooth="yes"/>
      <point x="381" y="996" type="line" smooth="yes"/>
      <point x="374" y="994"/>
      <point x="365" y="1012"/>
      <point x="359" y="1014" type="qcurve" smooth="yes" name="inserted"/>
      <point x="356" y="1014" name="inserted"/>
      <point x="349" y="1012"/>
      <point x="346" y="1009" type="qcurve"/>
      <point x="345" y="1007"/>
      <point x="341" y="998"/>
      <point x="340" y="993" type="qcurve"/>
      <point x="339" y="986"/>
      <point x="330" y="979"/>
      <point x="318" y="974" type="qcurve"/>
      <point x="266" y="956"/>
      <point x="176" y="898"/>
      <point x="157" y="871" type="qcurve"/>
      <point x="151" y="861"/>
      <point x="146" y="846"/>
      <point x="146" y="835" type="qcurve" smooth="yes"/>
      <point x="146" y="815"/>
      <point x="159" y="790"/>
      <point x="169" y="789" type="qcurve"/>
      <point x="175" y="789"/>
      <point x="178" y="798"/>
      <point x="177" y="819" type="qcurve" smooth="yes"/>
      <point x="175" y="849" type="line"/>
      <point x="200" y="873" type="line" smooth="yes"/>
      <point x="214" y="886"/>
      <point x="246" y="907"/>
      <point x="274" y="921" type="qcurve" smooth="yes"/>
      <point x="311" y="938" type="line"/>
      <point x="326" y="946"/>
      <point x="331" y="946"/>
      <point x="333" y="931" type="qcurve" smooth="yes" name="inserted"/>
      <point x="334" y="923" name="inserted"/>
      <point x="336" y="898"/>
      <point x="336" y="881" type="qcurve" smooth="yes"/>
      <point x="337" y="853"/>
      <point x="341" y="786"/>
      <point x="344" y="763" type="qcurve" smooth="yes"/>
      <point x="348" y="713" type="line"/>
      <point x="354" y="622" type="line"/>
      <point x="329" y="593" type="line"/>
      <point x="319" y="580"/>
      <point x="293" y="552"/>
      <point x="284" y="543" type="qcurve" smooth="yes"/>
      <point x="268" y="528"/>
      <point x="260" y="508"/>
      <point x="267" y="502" type="qcurve" smooth="yes"/>
      <point x="273" y="497" name="inserted"/>
      <point x="289" y="499"/>
      <point x="298" y="506" type="qcurve"/>
      <point x="308" y="513"/>
      <point x="353" y="538"/>
      <point x="358" y="539" type="qcurve"/>
      <point x="359" y="538"/>
      <point x="361" y="498"/>
      <point x="362" y="468" type="qcurve" smooth="yes"/>
      <point x="369" y="300" type="line" smooth="yes"/>
      <point x="371" y="242"/>
      <point x="371" y="199"/>
      <point x="368" y="197" type="qcurve"/>
      <point x="353" y="183"/>
      <point x="235" y="98"/>
      <point x="205" y="80" type="qcurve" smooth="yes"/>
      <point x="154" y="51"/>
      <point x="69" y="30"/>
      <point x="7" y="30" type="qcurve" smooth="yes"/>
      <point x="-35" y="30"/>
      <point x="-59" y="24"/>
      <point x="-57" y="14" type="qcurve"/>
      <point x="-58" y="6"/>
      <point x="-29" y="0"/>
      <point x="11" y="0" type="qcurve" smooth="yes"/>
      <point x="98" y="-2"/>
      <point x="237" y="55"/>
      <point x="336" y="133" type="qcurve" smooth="yes"/>
      <point x="350" y="143"/>
      <point x="371" y="157"/>
      <point x="372" y="156" type="qcurve"/>
      <point x="374" y="155" name="inserted"/>
      <point x="376" y="147"/>
      <point x="376" y="140" type="qcurve" smooth="yes"/>
      <point x="376" y="123"/>
      <point x="387" y="58"/>
      <point x="391" y="49" type="qcurve"/>
      <point x="397" y="39" name="inserted"/>
      <point x="410" y="35"/>
      <point x="417" y="41" type="qcurve"/>
      <point x="422" y="46"/>
      <point x="423" y="54"/>
      <point x="419" y="63" type="qcurve"/>
      <point x="415" y="75" name="inserted"/>
      <point x="408" y="123"/>
      <point x="404" y="159" type="qcurve" smooth="yes"/>
      <point x="401" y="184" type="line"/>
      <point x="452" y="229" type="line" smooth="yes"/>
      <point x="595" y="360"/>
      <point x="756" y="585"/>
      <point x="738" y="630" type="qcurve"/>
      <point x="732" y="642"/>
      <point x="699" y="649"/>
      <point x="659" y="647" type="qcurve" smooth="yes"/>
      <point x="637" y="645"/>
      <point x="586" y="640"/>
      <point x="568" y="636" type="qcurve" smooth="yes"/>
      <point x="531" y="629"/>
      <point x="432" y="601"/>
      <point x="408" y="592" type="qcurve" smooth="yes"/>
      <point x="389" y="584" type="line"/>
      <point x="386" y="586"/>
      <point x="389" y="616"/>
      <point x="392" y="621" type="qcurve"/>
      <point x="406" y="638"/>
      <point x="530" y="816"/>
      <point x="561" y="861" type="qcurve" smooth="yes"/>
      <point x="582" y="894"/>
      <point x="610" y="953"/>
      <point x="612" y="971" type="qcurve"/>
      <point x="618" y="1008"/>
      <point x="575" y="1028"/>
    </contour>
    <contour>
      <point x="582" y="980" type="qcurve"/>
      <point x="583" y="966"/>
      <point x="553" y="905"/>
      <point x="524" y="861" type="qcurve" smooth="yes"/>
      <point x="487" y="807" type="line"/>
      <point x="435" y="733" type="line"/>
      <point x="385" y="662" type="line"/>
      <point x="383" y="673" type="line" smooth="yes"/>
      <point x="377" y="709"/>
      <point x="363" y="925"/>
      <point x="366" y="950" type="qcurve" smooth="yes"/>
      <point x="367" y="956"/>
      <point x="379" y="963"/>
      <point x="397" y="968" type="qcurve" smooth="yes"/>
      <point x="448" y="982" name="inserted"/>
      <point x="529" y="994"/>
      <point x="560" y="993" type="qcurve" smooth="yes"/>
      <point x="581" y="993" type="line"/>
      <point x="582" y="980" type="line"/>
      <point x="582" y="980" name="inserted"/>
      <point x="582" y="980"/>
    </contour>
    <contour>
      <point x="710" y="609" type="qcurve"/>
      <point x="710" y="609" name="inserted"/>
      <point x="710" y="609"/>
      <point x="710" y="609" type="qcurve"/>
      <point x="714" y="577"/>
      <point x="595" y="412"/>
      <point x="500" y="317" type="qcurve" smooth="yes"/>
      <point x="457" y="273"/>
      <point x="406" y="229"/>
      <point x="404" y="232" type="qcurve" smooth="yes" name="inserted"/>
      <point x="401" y="234"/>
      <point x="396" y="357"/>
      <point x="393" y="460" type="qcurve" smooth="yes"/>
      <point x="390" y="553" type="line"/>
      <point x="417" y="563" type="line" smooth="yes"/>
      <point x="486" y="588"/>
      <point x="630" y="617"/>
      <point x="683" y="616" type="qcurve" smooth="yes"/>
      <point x="699" y="616"/>
      <point x="710" y="613"/>
    </contour>
  </outline>
</glyph>
<glyph name="glyph00029" format="1">
  <advance width="752"/>
  <unicode hex="0043"/>
  <outline>
    <contour>
      <point x="298" y="1019" type="qcurve"/>
      <point x="298" y="1019" name="inserted"/>
      <point x="298" y="1019"/>
      <point x="298" y="1019" type="qcurve"/>
      <point x="262" y="1012"/>
      <point x="208" y="974"/>
      <point x="184" y="938" type="qcurve" smooth="yes"/>
      <point x="135" y="869"/>
      <point x="81" y="663"/>
      <point x="70" y="507" type="qcurve" smooth="yes"/>
      <point x="66" y="446"/>
      <point x="70" y="269"/>
      <point x="75" y="233" type="qcurve" smooth="yes"/>
      <point x="80" y="205"/>
      <point x="103" y="144"/>
      <point x="117" y="120" type="qcurve" smooth="yes"/>
      <point x="133" y="94"/>
      <point x="188" y="40"/>
      <point x="212" y="27" type="qcurve" smooth="yes"/>
      <point x="243" y="10"/>
      <point x="296" y="-1"/>
      <point x="341" y="0" type="qcurve" smooth="yes"/>
      <point x="375" y="0"/>
      <point x="409" y="3"/>
      <point x="424" y="7" type="qcurve" smooth="yes"/>
      <point x="498" y="29"/>
      <point x="634" y="142"/>
      <point x="672" y="213" type="qcurve" smooth="yes"/>
      <point x="684" y="234"/>
      <point x="685" y="258"/>
      <point x="676" y="267" type="qcurve"/>
      <point x="670" y="274"/>
      <point x="663" y="277"/>
      <point x="658" y="276" type="qcurve"/>
      <point x="650" y="274" name="inserted"/>
      <point x="648" y="262"/>
      <point x="654" y="253" type="qcurve" smooth="yes"/>
      <point x="657" y="248"/>
      <point x="656" y="239"/>
      <point x="650" y="227" type="qcurve" smooth="yes"/>
      <point x="640" y="207"/>
      <point x="597" y="151"/>
      <point x="575" y="129" type="qcurve" smooth="yes"/>
      <point x="554" y="109"/>
      <point x="499" y="68"/>
      <point x="479" y="58" type="qcurve" smooth="yes"/>
      <point x="393" y="16"/>
      <point x="222" y="36"/>
      <point x="170" y="95" type="qcurve" smooth="yes"/>
      <point x="145" y="124"/>
      <point x="119" y="173"/>
      <point x="109" y="208" type="qcurve" smooth="yes"/>
      <point x="101" y="236"/>
      <point x="94" y="321"/>
      <point x="94" y="390" type="qcurve" smooth="yes"/>
      <point x="94" y="569"/>
      <point x="150" y="840"/>
      <point x="203" y="919" type="qcurve" smooth="yes"/>
      <point x="226" y="954"/>
      <point x="271" y="987"/>
      <point x="306" y="993" type="qcurve" smooth="yes"/>
      <point x="338" y="999"/>
      <point x="389" y="995"/>
      <point x="426" y="984" type="qcurve" smooth="yes"/>
      <point x="452" y="976" name="inserted"/>
      <point x="498" y="949"/>
      <point x="518" y="930" type="qcurve" smooth="yes"/>
      <point x="539" y="910"/>
      <point x="559" y="869"/>
      <point x="569" y="829" type="qcurve" smooth="yes"/>
      <point x="573" y="809"/>
      <point x="582" y="780"/>
      <point x="584" y="776" type="qcurve"/>
      <point x="589" y="769"/>
      <point x="602" y="769"/>
      <point x="605" y="775" type="qcurve"/>
      <point x="608" y="787"/>
      <point x="584" y="881"/>
      <point x="571" y="906" type="qcurve" smooth="yes" name="inserted"/>
      <point x="558" y="930"/>
      <point x="508" y="977"/>
      <point x="478" y="992" type="qcurve" smooth="yes"/>
      <point x="434" y="1014"/>
      <point x="343" y="1028"/>
    </contour>
  </outline>
</glyph>
<glyph name="glyph00030" format="1">
  <advance width="888.0"/>
  <unicode hex="0044"/>
  <outline>
    <contour>
      <point x="338" y="1015" type="qcurve"/>
      <point x="338" y="1015" name="inserted"/>
      <point x="338" y="1015"/>
      <point x="338" y="1015" type="qcurve"/>
      <point x="336" y="1011" name="inserted"/>
      <point x="336" y="995"/>
      <point x="338" y="983" type="qcurve" smooth="yes"/>
      <point x="340" y="973"/>
      <point x="340" y="958"/>
      <point x="339" y="957" type="qcurve" smooth="yes" name="inserted"/>
      <point x="338" y="956" name="inserted"/>
      <point x="331" y="954"/>
      <point x="325" y="952" type="qcurve" smooth="yes"/>
      <point x="296" y="946" type="line" smooth="yes"/>
      <point x="202" y="926"/>
      <point x="23" y="857"/>
      <point x="-27" y="822" type="qcurve"/>
      <point x="-46" y="807"/>
      <point x="-66" y="767"/>
      <point x="-63" y="747" type="qcurve" smooth="yes"/>
      <point x="-61" y="729" name="inserted"/>
      <point x="-50" y="711"/>
      <point x="-42" y="710" type="qcurve"/>
      <point x="-33" y="710"/>
      <point x="-27" y="728"/>
      <point x="-31" y="743" type="qcurve" smooth="yes"/>
      <point x="-36" y="763"/>
      <point x="-15" y="794"/>
      <point x="19" y="814" type="qcurve" smooth="yes"/>
      <point x="71" y="844"/>
      <point x="255" y="907"/>
      <point x="329" y="920" type="qcurve" smooth="yes"/>
      <point x="345" y="923" type="line"/>
      <point x="348" y="864" type="line" smooth="yes"/>
      <point x="349" y="837"/>
      <point x="351" y="628"/>
      <point x="351" y="496" type="qcurve" smooth="yes"/>
      <point x="351" y="186" type="line"/>
      <point x="332" y="170" type="line" smooth="yes"/>
      <point x="313" y="153"/>
      <point x="245" y="107"/>
      <point x="221" y="94" type="qcurve" smooth="yes"/>
      <point x="188" y="77"/>
      <point x="129" y="68"/>
      <point x="93" y="75" type="qcurve" smooth="yes"/>
      <point x="73" y="79" name="inserted"/>
      <point x="55" y="72"/>
      <point x="57" y="61" type="qcurve"/>
      <point x="58" y="53" name="inserted"/>
      <point x="91" y="43"/>
      <point x="123" y="40" type="qcurve" smooth="yes"/>
      <point x="167" y="37"/>
      <point x="259" y="75"/>
      <point x="331" y="128" type="qcurve" smooth="yes"/>
      <point x="340" y="134"/>
      <point x="353" y="143"/>
      <point x="354" y="142" type="qcurve" smooth="yes" name="inserted"/>
      <point x="354" y="142" name="inserted"/>
      <point x="356" y="133"/>
      <point x="358" y="124" type="qcurve"/>
      <point x="363" y="80" type="line" smooth="yes"/>
      <point x="368" y="34"/>
      <point x="379" y="-1"/>
      <point x="390" y="0" type="qcurve"/>
      <point x="393" y="0" name="inserted"/>
      <point x="398" y="2"/>
      <point x="400" y="4" type="qcurve"/>
      <point x="400" y="6"/>
      <point x="397" y="54"/>
      <point x="394" y="89" type="qcurve" smooth="yes"/>
      <point x="388" y="146" type="line" smooth="yes"/>
      <point x="387" y="158" name="inserted"/>
      <point x="386" y="171"/>
      <point x="387" y="171" type="qcurve" smooth="yes"/>
      <point x="457" y="242" type="line" smooth="yes"/>
      <point x="585" y="374"/>
      <point x="778" y="640"/>
      <point x="806" y="726" type="qcurve" smooth="yes"/>
      <point x="816" y="758"/>
      <point x="816" y="834"/>
      <point x="807" y="856" type="qcurve"/>
      <point x="794" y="883"/>
      <point x="736" y="933"/>
      <point x="703" y="945" type="qcurve" smooth="yes"/>
      <point x="660" y="961"/>
      <point x="521" y="971"/>
      <point x="441" y="965" type="qcurve" smooth="yes"/>
      <point x="414" y="963"/>
      <point x="377" y="962"/>
      <point x="375" y="963" type="qcurve" smooth="yes" name="inserted"/>
      <point x="374" y="964" name="inserted"/>
      <point x="373" y="968"/>
      <point x="372" y="972" type="qcurve"/>
      <point x="369" y="990" type="line"/>
      <point x="368" y="1000"/>
      <point x="364" y="1016"/>
      <point x="362" y="1019" type="qcurve"/>
      <point x="356" y="1025"/>
      <point x="342" y="1023"/>
    </contour>
    <contour>
      <point x="647" y="928" type="qcurve"/>
      <point x="647" y="928" name="inserted"/>
      <point x="647" y="928"/>
      <point x="647" y="928" type="qcurve"/>
      <point x="698" y="917"/>
      <point x="770" y="866"/>
      <point x="780" y="835" type="qcurve" smooth="yes" name="inserted"/>
      <point x="790" y="803"/>
      <point x="776" y="729"/>
      <point x="753" y="681" type="qcurve" smooth="yes"/>
      <point x="721" y="615"/>
      <point x="590" y="434"/>
      <point x="506" y="339" type="qcurve" smooth="yes"/>
      <point x="470" y="300"/>
      <point x="389" y="218"/>
      <point x="384" y="216" type="qcurve"/>
      <point x="381" y="263"/>
      <point x="381" y="884"/>
      <point x="384" y="929" type="qcurve"/>
      <point x="416" y="936"/>
      <point x="601" y="936"/>
    </contour>
  </outline>
</glyph>
<glyph name="glyph00031" format="1">
  <advance width="854"/>
  <unicode hex="0045"/>
  <outline>
    <contour>
      <point x="572" y="1017" type="qcurve"/>
      <point x="572" y="1017" name="inserted"/>
      <point x="572" y="1017"/>
      <point x="572" y="1017" type="qcurve"/>
      <point x="549" y="1011"/>
      <point x="438" y="957"/>
      <point x="367" y="918" type="qcurve" smooth="yes"/>
      <point x="271" y="867" type="line" smooth="yes"/>
      <point x="239" y="849"/>
      <point x="227" y="854"/>
      <point x="226" y="886" type="qcurve"/>
      <point x="224" y="903"/>
      <point x="217" y="918"/>
      <point x="209" y="918" type="qcurve" smooth="yes" name="inserted"/>
      <point x="200" y="918"/>
      <point x="195" y="897"/>
      <point x="198" y="871" type="qcurve" smooth="yes"/>
      <point x="200" y="858"/>
      <point x="201" y="837"/>
      <point x="200" y="836" type="qcurve" smooth="yes" name="inserted"/>
      <point x="199" y="834"/>
      <point x="187" y="827"/>
      <point x="180" y="824" type="qcurve" smooth="yes"/>
      <point x="159" y="815" name="inserted"/>
      <point x="139" y="798"/>
      <point x="140" y="789" type="qcurve" smooth="yes"/>
      <point x="142" y="779" name="inserted"/>
      <point x="157" y="777"/>
      <point x="171" y="785" type="qcurve" smooth="yes"/>
      <point x="177" y="789"/>
      <point x="190" y="796"/>
      <point x="194" y="797" type="qcurve" smooth="yes"/>
      <point x="202" y="799" type="line"/>
      <point x="202" y="451" type="line"/>
      <point x="180" y="434" type="line" smooth="yes"/>
      <point x="162" y="420"/>
      <point x="152" y="403"/>
      <point x="157" y="397" type="qcurve" smooth="yes" name="inserted"/>
      <point x="162" y="391"/>
      <point x="175" y="393"/>
      <point x="186" y="401" type="qcurve"/>
      <point x="200" y="410" type="line"/>
      <point x="202" y="258" type="line" smooth="yes"/>
      <point x="203" y="193"/>
      <point x="205" y="104"/>
      <point x="207" y="100" type="qcurve"/>
      <point x="211" y="96" name="inserted"/>
      <point x="220" y="96"/>
      <point x="225" y="101" type="qcurve"/>
      <point x="229" y="102"/>
      <point x="232" y="165"/>
      <point x="231" y="267" type="qcurve" smooth="yes"/>
      <point x="231" y="374"/>
      <point x="234" y="433"/>
      <point x="238" y="433" type="qcurve"/>
      <point x="253" y="445"/>
      <point x="365" y="482"/>
      <point x="418" y="494" type="qcurve" smooth="yes"/>
      <point x="456" y="501"/>
      <point x="484" y="513"/>
      <point x="483" y="521" type="qcurve"/>
      <point x="484" y="532"/>
      <point x="455" y="533"/>
      <point x="409" y="523" type="qcurve" smooth="yes"/>
      <point x="370" y="514"/>
      <point x="277" y="484"/>
      <point x="238" y="468" type="qcurve"/>
      <point x="233" y="461"/>
      <point x="231" y="520"/>
      <point x="232" y="640" type="qcurve" smooth="yes"/>
      <point x="233" y="814" type="line"/>
      <point x="356" y="878" type="line"/>
      <point x="424" y="915" type="line" smooth="yes"/>
      <point x="487" y="949"/>
      <point x="565" y="984"/>
      <point x="593" y="991" type="qcurve" smooth="yes"/>
      <point x="618" y="998"/>
      <point x="631" y="1010"/>
      <point x="622" y="1019" type="qcurve" smooth="yes"/>
      <point x="617" y="1024"/>
      <point x="597" y="1024"/>
    </contour>
    <contour>
      <point x="729" y="184" type="qcurve"/>
      <point x="729" y="184" name="inserted"/>
      <point x="729" y="184"/>
      <point x="729" y="184" type="qcurve"/>
      <point x="681" y="165"/>
      <point x="555" y="124"/>
      <point x="450" y="94" type="qcurve" smooth="yes"/>
      <point x="377" y="73"/>
      <point x="267" y="43"/>
      <point x="255" y="40" type="qcurve"/>
      <point x="232" y="36"/>
      <point x="202" y="23"/>
      <point x="200" y="16" type="qcurve" smooth="yes" name="inserted"/>
      <point x="198" y="9"/>
      <point x="208" y="-1"/>
      <point x="216" y="0" type="qcurve"/>
      <point x="245" y="6"/>
      <point x="324" y="26"/>
      <point x="371" y="40" type="qcurve" smooth="yes"/>
      <point x="531" y="86" type="line" smooth="yes"/>
      <point x="568" y="96"/>
      <point x="632" y="115"/>
      <point x="644" y="120" type="qcurve" smooth="yes"/>
      <point x="684" y="135"/>
      <point x="738" y="157"/>
      <point x="743" y="161" type="qcurve"/>
      <point x="753" y="171"/>
      <point x="742" y="188"/>
    </contour>
  </outline>
</glyph>
<glyph name="glyph00032" format="1">
  <advance width="616"/>
  <unicode hex="0046"/>
  <outline>
    <contour>
      <point x="591" y="1021" type="qcurve"/>
      <point x="591" y="1021" name="inserted"/>
      <point x="591" y="1021"/>
      <point x="591" y="1021" type="qcurve"/>
      <point x="525" y="1011"/>
      <point x="362" y="961"/>
      <point x="294" y="930" type="qcurve" smooth="yes"/>
      <point x="229" y="899"/>
      <point x="101" y="822"/>
      <point x="92" y="808" type="qcurve"/>
      <point x="88" y="799" name="inserted"/>
      <point x="94" y="791"/>
      <point x="104" y="791" type="qcurve"/>
      <point x="112" y="792"/>
      <point x="117" y="788"/>
      <point x="120" y="779" type="qcurve"/>
      <point x="127" y="749"/>
      <point x="148" y="493"/>
      <point x="149" y="430" type="qcurve" smooth="yes"/>
      <point x="149" y="409" type="line"/>
      <point x="131" y="395" type="line" smooth="yes"/>
      <point x="98" y="370"/>
      <point x="114" y="341"/>
      <point x="134" y="361" type="qcurve" smooth="yes"/>
      <point x="141" y="368" name="inserted"/>
      <point x="148" y="372"/>
      <point x="149" y="369" type="qcurve"/>
      <point x="150" y="366"/>
      <point x="153" y="320"/>
      <point x="154" y="287" type="qcurve" smooth="yes"/>
      <point x="157" y="202"/>
      <point x="173" y="34"/>
      <point x="181" y="13" type="qcurve"/>
      <point x="186" y="4" name="inserted"/>
      <point x="198" y="-1"/>
      <point x="205" y="5" type="qcurve"/>
      <point x="212" y="9"/>
      <point x="212" y="16"/>
      <point x="208" y="28" type="qcurve" smooth="yes"/>
      <point x="201" y="51"/>
      <point x="187" y="179"/>
      <point x="184" y="256" type="qcurve" smooth="yes"/>
      <point x="179" y="366" type="line"/>
      <point x="178" y="374"/>
      <point x="179" y="387"/>
      <point x="180" y="389" type="qcurve"/>
      <point x="188" y="398"/>
      <point x="257" y="425"/>
      <point x="290" y="431" type="qcurve" smooth="yes"/>
      <point x="315" y="435"/>
      <point x="332" y="443"/>
      <point x="331" y="450" type="qcurve"/>
      <point x="331" y="459" name="inserted"/>
      <point x="314" y="464"/>
      <point x="298" y="461" type="qcurve" smooth="yes"/>
      <point x="266" y="455" type="line" smooth="yes"/>
      <point x="260" y="454"/>
      <point x="232" y="445"/>
      <point x="216" y="439" type="qcurve" smooth="yes"/>
      <point x="190" y="429" type="line"/>
      <point x="180" y="426"/>
      <point x="179" y="427"/>
      <point x="177" y="455" type="qcurve" smooth="yes"/>
      <point x="172" y="522" type="line" smooth="yes"/>
      <point x="165" y="636"/>
      <point x="151" y="775"/>
      <point x="145" y="792" type="qcurve"/>
      <point x="137" y="805"/>
      <point x="151" y="820"/>
      <point x="200" y="848" type="qcurve" smooth="yes"/>
      <point x="265" y="886"/>
      <point x="411" y="949"/>
      <point x="473" y="966" type="qcurve" smooth="yes"/>
      <point x="518" y="977"/>
      <point x="596" y="993"/>
      <point x="620" y="995" type="qcurve" smooth="yes"/>
      <point x="654" y="999" type="line"/>
      <point x="660" y="1001"/>
      <point x="665" y="1014"/>
      <point x="661" y="1019" type="qcurve" smooth="yes" name="inserted"/>
      <point x="656" y="1024"/>
      <point x="616" y="1025"/>
    </contour>
  </outline>
</glyph>
<glyph name="glyph00033" format="1">
  <advance width="752"/>
  <unicode hex="0047"/>
  <outline>
    <contour>
      <point x="338" y="1022" type="qcurve"/>
      <point x="338" y="1022" name="inserted"/>
      <point x="338" y="1022"/>
      <point x="338" y="1022" type="qcurve"/>
      <point x="315" y="1017"/>
      <point x="267" y="979"/>
      <point x="248" y="952" type="qcurve" smooth="yes"/>
      <point x="215" y="904"/>
      <point x="171" y="742"/>
      <point x="155" y="608" type="qcurve" smooth="yes"/>
      <point x="149" y="566"/>
      <point x="146" y="501"/>
      <point x="146" y="439" type="qcurve"/>
      <point x="145" y="355"/>
      <point x="154" y="300"/>
      <point x="170" y="288" type="qcurve"/>
      <point x="184" y="275"/>
      <point x="222" y="264"/>
      <point x="254" y="264" type="qcurve" smooth="yes" name="inserted"/>
      <point x="285" y="264"/>
      <point x="335" y="276"/>
      <point x="369" y="292" type="qcurve" smooth="yes"/>
      <point x="395" y="304"/>
      <point x="430" y="328"/>
      <point x="452" y="350" type="qcurve" smooth="yes"/>
      <point x="471" y="368" type="line"/>
      <point x="473" y="357" type="line" smooth="yes"/>
      <point x="477" y="329"/>
      <point x="483" y="219"/>
      <point x="484" y="134" type="qcurve" smooth="yes" name="inserted"/>
      <point x="485" y="49"/>
      <point x="488" y="1"/>
      <point x="492" y="2" type="qcurve"/>
      <point x="495" y="0" name="inserted"/>
      <point x="500" y="0"/>
      <point x="503" y="2" type="qcurve"/>
      <point x="507" y="2"/>
      <point x="509" y="39"/>
      <point x="510" y="104" type="qcurve" smooth="yes"/>
      <point x="511" y="174"/>
      <point x="506" y="293"/>
      <point x="499" y="354" type="qcurve" smooth="yes"/>
      <point x="495" y="395" type="line"/>
      <point x="513" y="427" type="line" smooth="yes"/>
      <point x="542" y="482"/>
      <point x="537" y="544"/>
      <point x="502" y="561" type="qcurve" smooth="yes"/>
      <point x="477" y="573"/>
      <point x="376" y="577"/>
      <point x="324" y="568" type="qcurve" smooth="yes"/>
      <point x="297" y="563"/>
      <point x="273" y="551"/>
      <point x="272" y="543" type="qcurve"/>
      <point x="269" y="529"/>
      <point x="298" y="520"/>
      <point x="353" y="519" type="qcurve" smooth="yes" name="inserted"/>
      <point x="407" y="517"/>
      <point x="444" y="496"/>
      <point x="455" y="462" type="qcurve" smooth="yes"/>
      <point x="458" y="454"/>
      <point x="463" y="432"/>
      <point x="464" y="423" type="qcurve" smooth="yes"/>
      <point x="466" y="401" type="line"/>
      <point x="448" y="382" type="line" smooth="yes"/>
      <point x="408" y="339"/>
      <point x="307" y="291"/>
      <point x="253" y="290" type="qcurve" smooth="yes"/>
      <point x="233" y="290"/>
      <point x="213" y="293"/>
      <point x="204" y="297" type="qcurve" smooth="yes"/>
      <point x="185" y="305"/>
      <point x="174" y="335"/>
      <point x="173" y="383" type="qcurve" smooth="yes"/>
      <point x="169" y="516"/>
      <point x="204" y="782"/>
      <point x="237" y="870" type="qcurve" smooth="yes"/>
      <point x="254" y="914"/>
      <point x="300" y="977"/>
      <point x="325" y="989" type="qcurve" smooth="yes"/>
      <point x="341" y="997"/>
      <point x="397" y="1000"/>
      <point x="428" y="995" type="qcurve" smooth="yes" name="inserted"/>
      <point x="458" y="989"/>
      <point x="522" y="957"/>
      <point x="545" y="936" type="qcurve" smooth="yes"/>
      <point x="557" y="924"/>
      <point x="568" y="907"/>
      <point x="572" y="894" type="qcurve" smooth="yes"/>
      <point x="577" y="876" type="line"/>
      <point x="579" y="872" name="inserted"/>
      <point x="581" y="865"/>
      <point x="581" y="862" type="qcurve" smooth="yes"/>
      <point x="583" y="852" name="inserted"/>
      <point x="590" y="842"/>
      <point x="596" y="842" type="qcurve"/>
      <point x="605" y="842" name="inserted"/>
      <point x="609" y="860"/>
      <point x="604" y="879" type="qcurve" smooth="yes"/>
      <point x="599" y="904"/>
      <point x="579" y="940"/>
      <point x="560" y="958" type="qcurve" smooth="yes" name="inserted"/>
      <point x="540" y="976"/>
      <point x="478" y="1010"/>
      <point x="452" y="1017" type="qcurve" smooth="yes"/>
      <point x="432" y="1022"/>
      <point x="356" y="1025"/>
    </contour>
    <contour>
      <point x="473" y="542" type="qcurve"/>
      <point x="473" y="542" name="inserted"/>
      <point x="473" y="542"/>
      <point x="473" y="542" type="qcurve"/>
      <point x="506" y="534"/>
      <point x="517" y="494"/>
      <point x="497" y="454" type="qcurve" smooth="yes"/>
      <point x="490" y="441" type="line"/>
      <point x="482" y="465" type="line" smooth="yes"/>
      <point x="469" y="506"/>
      <point x="421" y="543"/>
      <point x="380" y="544" type="qcurve" smooth="yes"/>
      <point x="368" y="544" name="inserted"/>
      <point x="370" y="546"/>
      <point x="384" y="547" type="qcurve" smooth="yes"/>
      <point x="404" y="549"/>
      <point x="454" y="546"/>
    </contour>
  </outline>
</glyph>
<glyph name="glyph00034" format="1">
  <advance width="616"/>
  <unicode hex="0048"/>
  <outline>
    <contour>
      <point x="338" y="1017" type="qcurve"/>
      <point x="338" y="1017" name="inserted"/>
      <point x="338" y="1017"/>
      <point x="338" y="1017" type="qcurve"/>
      <point x="336" y="1013"/>
      <point x="329" y="995"/>
      <point x="326" y="984" type="qcurve" smooth="yes"/>
      <point x="315" y="939"/>
      <point x="317" y="684"/>
      <point x="329" y="552" type="qcurve" smooth="yes"/>
      <point x="332" y="526"/>
      <point x="334" y="489"/>
      <point x="334" y="487" type="qcurve" smooth="yes" name="inserted"/>
      <point x="333" y="485"/>
      <point x="319" y="479"/>
      <point x="298" y="471" type="qcurve" smooth="yes"/>
      <point x="291" y="468"/>
      <point x="257" y="451"/>
      <point x="239" y="440" type="qcurve" smooth="yes"/>
      <point x="208" y="422" type="line" smooth="yes"/>
      <point x="195" y="415"/>
      <point x="189" y="415"/>
      <point x="185" y="532" type="qcurve" smooth="yes" name="inserted"/>
      <point x="183" y="591" name="inserted"/>
      <point x="179" y="761"/>
      <point x="176" y="873" type="qcurve" smooth="yes"/>
      <point x="175" y="937"/>
      <point x="171" y="975"/>
      <point x="167" y="975" type="qcurve"/>
      <point x="165" y="977" name="inserted"/>
      <point x="159" y="977"/>
      <point x="156" y="975" type="qcurve"/>
      <point x="152" y="974"/>
      <point x="149" y="957"/>
      <point x="149" y="933" type="qcurve"/>
      <point x="148" y="903"/>
      <point x="154" y="681"/>
      <point x="159" y="514" type="qcurve" smooth="yes"/>
      <point x="161" y="449"/>
      <point x="161" y="395"/>
      <point x="159" y="393" type="qcurve" smooth="yes" name="inserted"/>
      <point x="157" y="391"/>
      <point x="138" y="379"/>
      <point x="125" y="373" type="qcurve"/>
      <point x="103" y="361"/>
      <point x="89" y="346"/>
      <point x="94" y="340" type="qcurve" smooth="yes" name="inserted"/>
      <point x="99" y="333"/>
      <point x="116" y="337"/>
      <point x="137" y="347" type="qcurve" smooth="yes"/>
      <point x="161" y="359"/>
      <point x="164" y="354"/>
      <point x="165" y="341" type="qcurve" smooth="yes"/>
      <point x="167" y="309" type="line" smooth="yes"/>
      <point x="171" y="231"/>
      <point x="190" y="89"/>
      <point x="204" y="43" type="qcurve" smooth="yes"/>
      <point x="209" y="27"/>
      <point x="222" y="17"/>
      <point x="229" y="25" type="qcurve"/>
      <point x="233" y="29"/>
      <point x="232" y="45"/>
      <point x="225" y="70" type="qcurve" smooth="yes"/>
      <point x="212" y="121"/>
      <point x="197" y="239"/>
      <point x="192" y="326" type="qcurve" smooth="yes"/>
      <point x="189" y="376" type="line"/>
      <point x="198" y="383" type="line" smooth="yes"/>
      <point x="221" y="401"/>
      <point x="329" y="457"/>
      <point x="339" y="456" type="qcurve"/>
      <point x="342" y="446"/>
      <point x="365" y="283"/>
      <point x="369" y="240" type="qcurve" smooth="yes"/>
      <point x="380" y="124" type="line" smooth="yes"/>
      <point x="385" y="57"/>
      <point x="394" y="11"/>
      <point x="402" y="6" type="qcurve" smooth="yes" name="inserted"/>
      <point x="410" y="0"/>
      <point x="427" y="0"/>
      <point x="431" y="7" type="qcurve"/>
      <point x="433" y="10"/>
      <point x="431" y="16"/>
      <point x="427" y="21" type="qcurve" smooth="yes" name="inserted"/>
      <point x="422" y="26"/>
      <point x="416" y="34"/>
      <point x="415" y="37" type="qcurve" smooth="yes" name="inserted"/>
      <point x="415" y="39" name="inserted"/>
      <point x="413" y="50"/>
      <point x="412" y="60" type="qcurve" smooth="yes"/>
      <point x="408" y="107" type="line" smooth="yes"/>
      <point x="402" y="183"/>
      <point x="389" y="300"/>
      <point x="379" y="373" type="qcurve" smooth="yes"/>
      <point x="374" y="412"/>
      <point x="368" y="466"/>
      <point x="369" y="468" type="qcurve"/>
      <point x="373" y="471"/>
      <point x="415" y="481"/>
      <point x="433" y="483" type="qcurve" smooth="yes"/>
      <point x="445" y="485" name="inserted"/>
      <point x="457" y="493"/>
      <point x="457" y="499" type="qcurve" smooth="yes"/>
      <point x="457" y="510" name="inserted"/>
      <point x="418" y="510"/>
      <point x="380" y="500" type="qcurve"/>
      <point x="365" y="493"/>
      <point x="359" y="511"/>
      <point x="354" y="569" type="qcurve" smooth="yes"/>
      <point x="347" y="651"/>
      <point x="342" y="796"/>
      <point x="344" y="865" type="qcurve" smooth="yes"/>
      <point x="345" y="925"/>
      <point x="349" y="967"/>
      <point x="354" y="983" type="qcurve" smooth="yes" name="inserted"/>
      <point x="359" y="999"/>
      <point x="361" y="1015"/>
      <point x="359" y="1018" type="qcurve" smooth="yes"/>
      <point x="355" y="1024"/>
      <point x="343" y="1024"/>
    </contour>
  </outline>
</glyph>
<glyph name="glyph00035" format="1">
  <advance width="718"/>
  <unicode hex="0049"/>
  <outline>
    <contour>
      <point x="406" y="717" type="qcurve"/>
      <point x="389" y="713"/>
      <point x="362" y="706"/>
      <point x="360" y="706" type="qcurve" smooth="yes"/>
      <point x="357" y="706"/>
      <point x="347" y="717"/>
      <point x="339" y="717" type="qcurve" smooth="yes" name="inserted"/>
      <point x="335" y="717" name="inserted"/>
      <point x="331" y="715"/>
      <point x="329" y="712" type="qcurve"/>
      <point x="322" y="701" type="line"/>
      <point x="323" y="696"/>
      <point x="250" y="674"/>
      <point x="137" y="642" type="qcurve" smooth="yes"/>
      <point x="35" y="615"/>
      <point x="-27" y="589"/>
      <point x="-22" y="577" type="qcurve"/>
      <point x="-21" y="568"/>
      <point x="-3" y="568"/>
      <point x="8" y="576" type="qcurve"/>
      <point x="14" y="579"/>
      <point x="85" y="602"/>
      <point x="146" y="619" type="qcurve" smooth="yes"/>
      <point x="307" y="665" type="line"/>
      <point x="310" y="666" name="inserted"/>
      <point x="315" y="667"/>
      <point x="316" y="667" type="qcurve"/>
      <point x="317" y="663"/>
      <point x="319" y="486"/>
      <point x="319" y="352" type="qcurve" smooth="yes"/>
      <point x="319" y="140"/>
      <point x="321" y="27"/>
      <point x="324" y="33" type="qcurve"/>
      <point x="330" y="30"/>
      <point x="335" y="30"/>
      <point x="341" y="33" type="qcurve"/>
      <point x="346" y="28"/>
      <point x="348" y="141"/>
      <point x="349" y="355" type="qcurve" smooth="yes"/>
      <point x="349" y="521"/>
      <point x="351" y="675"/>
      <point x="353" y="677" type="qcurve" smooth="yes" name="inserted"/>
      <point x="355" y="677"/>
      <point x="390" y="688"/>
      <point x="413" y="694" type="qcurve" smooth="yes" name="inserted"/>
      <point x="438" y="701"/>
      <point x="471" y="711"/>
      <point x="474" y="713" type="qcurve" smooth="yes"/>
      <point x="475" y="715" name="inserted"/>
      <point x="476" y="720"/>
      <point x="476" y="722" type="qcurve"/>
      <point x="475" y="729"/>
      <point x="441" y="728"/>
      <point x="406" y="717" type="qcurve"/>
      <point x="406" y="717" name="inserted"/>
      <point x="406" y="717"/>
    </contour>
    <contour>
      <point x="624" y="63" type="qcurve"/>
      <point x="619" y="62" name="inserted"/>
      <point x="595" y="54"/>
      <point x="577" y="49" type="qcurve" smooth="yes"/>
      <point x="517" y="29" type="line" smooth="yes"/>
      <point x="477" y="17"/>
      <point x="304" y="-16"/>
      <point x="230" y="-26" type="qcurve" smooth="yes"/>
      <point x="216" y="-29"/>
      <point x="187" y="-45"/>
      <point x="186" y="-51" type="qcurve"/>
      <point x="186" y="-56"/>
      <point x="194" y="-63"/>
      <point x="200" y="-62" type="qcurve" smooth="yes" name="inserted"/>
      <point x="203" y="-62" name="inserted"/>
      <point x="209" y="-59"/>
      <point x="215" y="-57" type="qcurve" smooth="yes"/>
      <point x="218" y="-55"/>
      <point x="237" y="-50"/>
      <point x="247" y="-48" type="qcurve" smooth="yes"/>
      <point x="281" y="-44"/>
      <point x="412" y="-21"/>
      <point x="447" y="-14" type="qcurve" smooth="yes"/>
      <point x="488" y="-6"/>
      <point x="625" y="37"/>
      <point x="640" y="44" type="qcurve"/>
      <point x="645" y="49"/>
      <point x="644" y="59"/>
      <point x="638" y="63" type="qcurve" smooth="yes" name="inserted"/>
      <point x="635" y="63" name="inserted"/>
      <point x="630" y="65"/>
      <point x="629" y="65" type="qcurve"/>
      <point x="624" y="63" type="line"/>
      <point x="624" y="63" name="inserted"/>
      <point x="624" y="63"/>
    </contour>
  </outline>
</glyph>
<glyph name="glyph00036" format="1">
  <advance width="548"/>
  <unicode hex="004A"/>
  <outline>
    <contour>
      <point x="285" y="739" type="qcurve"/>
      <point x="282" y="735"/>
      <point x="280" y="723"/>
      <point x="280" y="713" type="qcurve"/>
      <point x="282" y="693" type="line"/>
      <point x="172" y="669" type="line" smooth="yes"/>
      <point x="124" y="660"/>
      <point x="37" y="642"/>
      <point x="17" y="640" type="qcurve" smooth="yes"/>
      <point x="-18" y="634"/>
      <point x="-44" y="626"/>
      <point x="-43" y="621" type="qcurve"/>
      <point x="-45" y="613"/>
      <point x="-16" y="613"/>
      <point x="30" y="621" type="qcurve" smooth="yes"/>
      <point x="77" y="629" type="line" smooth="yes"/>
      <point x="88" y="631" name="inserted"/>
      <point x="103" y="634"/>
      <point x="106" y="634" type="qcurve" smooth="yes"/>
      <point x="143" y="643"/>
      <point x="275" y="669"/>
      <point x="284" y="670" type="qcurve"/>
      <point x="285" y="669"/>
      <point x="287" y="652"/>
      <point x="288" y="639" type="qcurve" smooth="yes"/>
      <point x="293" y="596" type="line"/>
      <point x="300" y="535" type="line" smooth="yes"/>
      <point x="328" y="289"/>
      <point x="336" y="89"/>
      <point x="317" y="62" type="qcurve" smooth="yes"/>
      <point x="309" y="50"/>
      <point x="274" y="27"/>
      <point x="257" y="23" type="qcurve" smooth="yes"/>
      <point x="223" y="16"/>
      <point x="154" y="32"/>
      <point x="116" y="57" type="qcurve" smooth="yes"/>
      <point x="101" y="67"/>
      <point x="90" y="71"/>
      <point x="85" y="70" type="qcurve"/>
      <point x="71" y="67"/>
      <point x="94" y="42"/>
      <point x="130" y="22" type="qcurve" smooth="yes"/>
      <point x="162" y="5"/>
      <point x="243" y="-4"/>
      <point x="274" y="5" type="qcurve" smooth="yes"/>
      <point x="300" y="13"/>
      <point x="338" y="45"/>
      <point x="347" y="64" type="qcurve" smooth="yes"/>
      <point x="363" y="97"/>
      <point x="356" y="297"/>
      <point x="330" y="508" type="qcurve" smooth="yes"/>
      <point x="319" y="602"/>
      <point x="313" y="677"/>
      <point x="316" y="679" type="qcurve" smooth="yes" name="inserted"/>
      <point x="318" y="680"/>
      <point x="349" y="687"/>
      <point x="371" y="691" type="qcurve" smooth="yes"/>
      <point x="445" y="707" type="line"/>
      <point x="470" y="712" type="line"/>
      <point x="494" y="715" type="line"/>
      <point x="514" y="717" name="inserted"/>
      <point x="527" y="725"/>
      <point x="521" y="731" type="qcurve"/>
      <point x="516" y="739"/>
      <point x="431" y="727"/>
      <point x="338" y="706" type="qcurve" smooth="yes"/>
      <point x="327" y="703"/>
      <point x="312" y="701"/>
      <point x="312" y="702" type="qcurve" smooth="yes" name="inserted"/>
      <point x="311" y="704"/>
      <point x="307" y="712"/>
      <point x="317" y="715" type="qcurve" smooth="yes" name="inserted"/>
      <point x="326" y="717"/>
      <point x="325" y="731"/>
      <point x="314" y="738" type="qcurve" smooth="yes"/>
      <point x="305" y="744" name="inserted"/>
      <point x="290" y="744"/>
      <point x="285" y="739" type="qcurve"/>
      <point x="285" y="739" name="inserted"/>
      <point x="285" y="739"/>
    </contour>
  </outline>
</glyph>
<glyph name="glyph00037" format="1">
  <advance width="684"/>
  <unicode hex="004B"/>
  <outline>
    <contour>
      <point x="184" y="1020" type="qcurve"/>
      <point x="184" y="1020" name="inserted"/>
      <point x="184" y="1020"/>
      <point x="184" y="1020" type="qcurve"/>
      <point x="179" y="1013"/>
      <point x="176" y="903"/>
      <point x="178" y="807" type="qcurve" smooth="yes"/>
      <point x="179" y="754"/>
      <point x="180" y="638"/>
      <point x="179" y="603" type="qcurve" smooth="yes"/>
      <point x="178" y="523" type="line"/>
      <point x="162" y="498" type="line" smooth="yes"/>
      <point x="143" y="468"/>
      <point x="143" y="433"/>
      <point x="162" y="416" type="qcurve" smooth="yes"/>
      <point x="180" y="399" type="line"/>
      <point x="180" y="204" type="line" smooth="yes"/>
      <point x="180" y="79"/>
      <point x="182" y="4"/>
      <point x="185" y="5" type="qcurve"/>
      <point x="189" y="0" name="inserted"/>
      <point x="197" y="0"/>
      <point x="201" y="5" type="qcurve"/>
      <point x="204" y="4"/>
      <point x="206" y="76"/>
      <point x="206" y="194" type="qcurve" smooth="yes"/>
      <point x="206" y="280"/>
      <point x="208" y="377"/>
      <point x="209" y="378" type="qcurve"/>
      <point x="212" y="378"/>
      <point x="216" y="373"/>
      <point x="238" y="353" type="qcurve" smooth="yes"/>
      <point x="293" y="304" type="line" smooth="yes"/>
      <point x="355" y="251"/>
      <point x="395" y="212"/>
      <point x="410" y="192" type="qcurve" smooth="yes"/>
      <point x="424" y="175"/>
      <point x="443" y="140"/>
      <point x="449" y="120" type="qcurve" smooth="yes"/>
      <point x="454" y="105"/>
      <point x="461" y="94"/>
      <point x="468" y="95" type="qcurve" smooth="yes" name="inserted"/>
      <point x="474" y="95"/>
      <point x="480" y="107"/>
      <point x="478" y="116" type="qcurve" smooth="yes"/>
      <point x="474" y="132"/>
      <point x="454" y="177"/>
      <point x="445" y="191" type="qcurve" smooth="yes"/>
      <point x="428" y="217"/>
      <point x="367" y="275"/>
      <point x="271" y="359" type="qcurve" smooth="yes"/>
      <point x="206" y="417" type="line"/>
      <point x="206" y="519" type="line"/>
      <point x="220" y="544" type="line" smooth="yes"/>
      <point x="255" y="609"/>
      <point x="343" y="736"/>
      <point x="392" y="794" type="qcurve" smooth="yes"/>
      <point x="421" y="830" type="line" smooth="yes"/>
      <point x="431" y="842" name="inserted"/>
      <point x="449" y="865"/>
      <point x="457" y="876" type="qcurve" smooth="yes"/>
      <point x="500" y="931" type="line"/>
      <point x="502" y="933"/>
      <point x="514" y="934"/>
      <point x="522" y="934" type="qcurve" smooth="yes"/>
      <point x="534" y="934"/>
      <point x="541" y="937"/>
      <point x="541" y="941" type="qcurve" smooth="yes"/>
      <point x="541" y="954"/>
      <point x="503" y="963"/>
      <point x="488" y="954" type="qcurve"/>
      <point x="483" y="950"/>
      <point x="461" y="923"/>
      <point x="447" y="906" type="qcurve" smooth="yes"/>
      <point x="418" y="868" type="line"/>
      <point x="391" y="835" type="line" smooth="yes"/>
      <point x="332" y="763"/>
      <point x="257" y="660"/>
      <point x="226" y="609" type="qcurve" smooth="yes"/>
      <point x="213" y="589" type="line" smooth="yes"/>
      <point x="211" y="585" name="inserted"/>
      <point x="208" y="581"/>
      <point x="207" y="581" type="qcurve"/>
      <point x="207" y="583" name="inserted"/>
      <point x="207" y="615"/>
      <point x="206" y="646" type="qcurve" smooth="yes"/>
      <point x="203" y="955" type="line" smooth="yes"/>
      <point x="202" y="1018"/>
      <point x="198" y="1024"/>
      <point x="193" y="1024" type="qcurve" smooth="yes" name="inserted"/>
      <point x="190" y="1023" name="inserted"/>
      <point x="186" y="1022"/>
    </contour>
  </outline>
</glyph>
<glyph name="glyph00038" format="1">
  <advance width="582"/>
  <unicode hex="004C"/>
  <outline>
    <contour>
      <point x="200" y="1021" type="qcurve"/>
      <point x="200" y="1021" name="inserted"/>
      <point x="200" y="1021"/>
      <point x="200" y="1021" type="qcurve"/>
      <point x="197" y="1016"/>
      <point x="192" y="988"/>
      <point x="189" y="956" type="qcurve" smooth="yes"/>
      <point x="181" y="849" type="line" smooth="yes"/>
      <point x="176" y="785"/>
      <point x="163" y="556"/>
      <point x="159" y="468" type="qcurve" smooth="yes"/>
      <point x="158" y="435"/>
      <point x="156" y="289"/>
      <point x="156" y="210" type="qcurve"/>
      <point x="155" y="63"/>
      <point x="161" y="2"/>
      <point x="177" y="3" type="qcurve"/>
      <point x="183" y="1"/>
      <point x="197" y="0"/>
      <point x="202" y="1" type="qcurve" smooth="yes"/>
      <point x="217" y="4"/>
      <point x="294" y="25"/>
      <point x="335" y="38" type="qcurve" smooth="yes"/>
      <point x="420" y="65" type="line" smooth="yes"/>
      <point x="442" y="72"/>
      <point x="460" y="80"/>
      <point x="461" y="84" type="qcurve" smooth="yes"/>
      <point x="463" y="92"/>
      <point x="451" y="101"/>
      <point x="440" y="99" type="qcurve" smooth="yes"/>
      <point x="437" y="99" name="inserted"/>
      <point x="422" y="95"/>
      <point x="410" y="91" type="qcurve" smooth="yes"/>
      <point x="355" y="74" type="line" smooth="yes"/>
      <point x="277" y="49"/>
      <point x="208" y="29"/>
      <point x="198" y="29" type="qcurve"/>
      <point x="184" y="28" type="line"/>
      <point x="183" y="196" type="line" smooth="yes"/>
      <point x="182" y="343"/>
      <point x="193" y="644"/>
      <point x="206" y="822" type="qcurve" smooth="yes"/>
      <point x="217" y="958" type="line" smooth="yes"/>
      <point x="218" y="968" name="inserted"/>
      <point x="220" y="983"/>
      <point x="220" y="988" type="qcurve" smooth="yes"/>
      <point x="223" y="1012"/>
      <point x="216" y="1024"/>
      <point x="210" y="1025" type="qcurve" smooth="yes" name="inserted"/>
      <point x="207" y="1025" name="inserted"/>
      <point x="202" y="1023"/>
    </contour>
  </outline>
</glyph>
<glyph name="glyph00039" format="1">
  <advance width="786"/>
  <unicode hex="004D"/>
  <outline>
    <contour>
      <point x="276" y="1023" type="qcurve"/>
      <point x="276" y="1023" name="inserted"/>
      <point x="276" y="1023"/>
      <point x="276" y="1023" type="qcurve"/>
      <point x="271" y="1022"/>
      <point x="258" y="983"/>
      <point x="244" y="929" type="qcurve" smooth="yes"/>
      <point x="234" y="887"/>
      <point x="221" y="848"/>
      <point x="216" y="841" type="qcurve" smooth="yes" name="inserted"/>
      <point x="211" y="834"/>
      <point x="206" y="811"/>
      <point x="202" y="780" type="qcurve" smooth="yes"/>
      <point x="200" y="759"/>
      <point x="191" y="708"/>
      <point x="187" y="689" type="qcurve" smooth="yes"/>
      <point x="172" y="623"/>
      <point x="150" y="495"/>
      <point x="145" y="445" type="qcurve" smooth="yes"/>
      <point x="141" y="388"/>
      <point x="138" y="110"/>
      <point x="141" y="86" type="qcurve"/>
      <point x="143" y="82" name="inserted"/>
      <point x="148" y="78"/>
      <point x="152" y="78" type="qcurve"/>
      <point x="160" y="78" name="inserted"/>
      <point x="168" y="98"/>
      <point x="168" y="118" type="qcurve" smooth="yes"/>
      <point x="168" y="144"/>
      <point x="186" y="332"/>
      <point x="198" y="438" type="qcurve" smooth="yes"/>
      <point x="203" y="481"/>
      <point x="213" y="592"/>
      <point x="217" y="635" type="qcurve" smooth="yes"/>
      <point x="223" y="710" type="line" smooth="yes"/>
      <point x="225" y="726" name="inserted"/>
      <point x="228" y="747"/>
      <point x="228" y="751" type="qcurve"/>
      <point x="234" y="780"/>
      <point x="271" y="933"/>
      <point x="275" y="946" type="qcurve" smooth="yes"/>
      <point x="278" y="957"/>
      <point x="285" y="884"/>
      <point x="294" y="740" type="qcurve" smooth="yes"/>
      <point x="298" y="689"/>
      <point x="308" y="602"/>
      <point x="315" y="564" type="qcurve" smooth="yes"/>
      <point x="324" y="511"/>
      <point x="337" y="480"/>
      <point x="348" y="481" type="qcurve" smooth="yes" name="inserted"/>
      <point x="359" y="481"/>
      <point x="378" y="509"/>
      <point x="390" y="543" type="qcurve" smooth="yes"/>
      <point x="405" y="583"/>
      <point x="483" y="810"/>
      <point x="506" y="881" type="qcurve" smooth="yes"/>
      <point x="512" y="899"/>
      <point x="526" y="935"/>
      <point x="531" y="944" type="qcurve"/>
      <point x="539" y="961"/>
      <point x="543" y="965"/>
      <point x="545" y="957" type="qcurve" smooth="yes"/>
      <point x="550" y="938"/>
      <point x="562" y="752"/>
      <point x="569" y="578" type="qcurve" smooth="yes"/>
      <point x="581" y="331" type="line" smooth="yes"/>
      <point x="583" y="291"/>
      <point x="587" y="173"/>
      <point x="588" y="123" type="qcurve" smooth="yes"/>
      <point x="589" y="46"/>
      <point x="592" y="2"/>
      <point x="596" y="2" type="qcurve"/>
      <point x="599" y="1" name="inserted"/>
      <point x="604" y="1"/>
      <point x="607" y="2" type="qcurve"/>
      <point x="613" y="9"/>
      <point x="614" y="175"/>
      <point x="607" y="299" type="qcurve" smooth="yes"/>
      <point x="595" y="581" type="line" smooth="yes"/>
      <point x="587" y="759"/>
      <point x="575" y="945"/>
      <point x="569" y="967" type="qcurve" smooth="yes"/>
      <point x="566" y="979"/>
      <point x="552" y="993"/>
      <point x="544" y="993" type="qcurve"/>
      <point x="528" y="998"/>
      <point x="490" y="917"/>
      <point x="445" y="780" type="qcurve" smooth="yes"/>
      <point x="396" y="635"/>
      <point x="353" y="514"/>
      <point x="351" y="518" type="qcurve" smooth="yes"/>
      <point x="347" y="526"/>
      <point x="330" y="629"/>
      <point x="326" y="665" type="qcurve" smooth="yes"/>
      <point x="322" y="715" type="line"/>
      <point x="316" y="791" type="line" smooth="yes"/>
      <point x="306" y="941"/>
      <point x="297" y="1021"/>
      <point x="290" y="1020" type="qcurve"/>
      <point x="285" y="1024"/>
      <point x="280" y="1025"/>
    </contour>
  </outline>
</glyph>
<glyph name="glyph00040" format="1">
  <advance width="786"/>
  <unicode hex="004E"/>
  <outline>
    <contour>
      <point x="554" y="1020" type="qcurve"/>
      <point x="554" y="1020" name="inserted"/>
      <point x="554" y="1020"/>
      <point x="554" y="1020" type="qcurve"/>
      <point x="551" y="1020"/>
      <point x="549" y="843"/>
      <point x="549" y="622" type="qcurve"/>
      <point x="548" y="455"/>
      <point x="546" y="208"/>
      <point x="545" y="184" type="qcurve" smooth="yes"/>
      <point x="543" y="139" type="line"/>
      <point x="534" y="155" type="line" smooth="yes"/>
      <point x="525" y="173"/>
      <point x="455" y="329"/>
      <point x="428" y="391" type="qcurve" smooth="yes"/>
      <point x="412" y="429" type="line"/>
      <point x="394" y="475" type="line" smooth="yes"/>
      <point x="371" y="534"/>
      <point x="298" y="706"/>
      <point x="265" y="777" type="qcurve" smooth="yes"/>
      <point x="240" y="829"/>
      <point x="229" y="864"/>
      <point x="230" y="880" type="qcurve"/>
      <point x="230" y="892"/>
      <point x="234" y="916"/>
      <point x="235" y="924" type="qcurve"/>
      <point x="240" y="943" name="inserted"/>
      <point x="236" y="961"/>
      <point x="227" y="960" type="qcurve"/>
      <point x="221" y="961"/>
      <point x="213" y="953"/>
      <point x="208" y="943" type="qcurve" smooth="yes"/>
      <point x="202" y="931" type="line"/>
      <point x="199" y="926"/>
      <point x="197" y="926"/>
      <point x="192" y="934" type="qcurve" smooth="yes" name="inserted"/>
      <point x="189" y="938" name="inserted"/>
      <point x="182" y="948"/>
      <point x="178" y="954" type="qcurve" smooth="yes"/>
      <point x="163" y="979" name="inserted"/>
      <point x="134" y="998"/>
      <point x="121" y="992" type="qcurve" smooth="yes"/>
      <point x="117" y="990"/>
      <point x="109" y="981"/>
      <point x="107" y="977" type="qcurve"/>
      <point x="103" y="956"/>
      <point x="103" y="700"/>
      <point x="107" y="587" type="qcurve" smooth="yes"/>
      <point x="116" y="370"/>
      <point x="148" y="30"/>
      <point x="162" y="6" type="qcurve"/>
      <point x="166" y="1"/>
      <point x="183" y="0"/>
      <point x="189" y="5" type="qcurve"/>
      <point x="192" y="8"/>
      <point x="194" y="51"/>
      <point x="194" y="97" type="qcurve" smooth="yes"/>
      <point x="194" y="165"/>
      <point x="204" y="362"/>
      <point x="210" y="434" type="qcurve" smooth="yes"/>
      <point x="216" y="500"/>
      <point x="226" y="675"/>
      <point x="227" y="721" type="qcurve" smooth="yes"/>
      <point x="227" y="775" type="line"/>
      <point x="236" y="758" type="line" smooth="yes"/>
      <point x="255" y="722"/>
      <point x="338" y="529"/>
      <point x="367" y="453" type="qcurve" smooth="yes"/>
      <point x="391" y="392"/>
      <point x="485" y="178"/>
      <point x="507" y="135" type="qcurve" smooth="yes"/>
      <point x="524" y="104" name="inserted"/>
      <point x="554" y="91"/>
      <point x="567" y="109" type="qcurve"/>
      <point x="576" y="111"/>
      <point x="582" y="310"/>
      <point x="582" y="628" type="qcurve" smooth="yes"/>
      <point x="582" y="916"/>
      <point x="578" y="1037"/>
      <point x="565" y="1024" type="qcurve"/>
      <point x="562" y="1024" name="inserted"/>
      <point x="557" y="1022"/>
    </contour>
    <contour>
      <point x="172" y="896" type="qcurve"/>
      <point x="172" y="896" name="inserted"/>
      <point x="172" y="896"/>
      <point x="172" y="896" type="qcurve"/>
      <point x="173" y="895" name="inserted"/>
      <point x="178" y="886"/>
      <point x="182" y="877" type="qcurve" smooth="yes"/>
      <point x="192" y="857" type="line"/>
      <point x="193" y="775" type="line" smooth="yes"/>
      <point x="194" y="711"/>
      <point x="187" y="550"/>
      <point x="179" y="463" type="qcurve" smooth="yes"/>
      <point x="171" y="358" type="line" smooth="yes"/>
      <point x="167" y="294"/>
      <point x="163" y="255"/>
      <point x="160" y="266" type="qcurve"/>
      <point x="153" y="306"/>
      <point x="137" y="669"/>
      <point x="136" y="818" type="qcurve" smooth="yes"/>
      <point x="136" y="956" type="line"/>
      <point x="145" y="946" type="line"/>
      <point x="148" y="941"/>
      <point x="164" y="913"/>
    </contour>
  </outline>
</glyph>
<glyph name="glyph00041" format="1">
  <advance width="616"/>
  <unicode hex="004F"/>
  <outline>
    <contour>
      <point x="273" y="1022" type="qcurve"/>
      <point x="273" y="1022" name="inserted"/>
      <point x="273" y="1022"/>
      <point x="273" y="1022" type="qcurve"/>
      <point x="257" y="1019" name="inserted"/>
      <point x="222" y="1007"/>
      <point x="202" y="997" type="qcurve" smooth="yes"/>
      <point x="189" y="991"/>
      <point x="176" y="980"/>
      <point x="170" y="971" type="qcurve" smooth="yes"/>
      <point x="162" y="959"/>
      <point x="159" y="938"/>
      <point x="164" y="937" type="qcurve" smooth="yes" name="inserted"/>
      <point x="167" y="936" name="inserted"/>
      <point x="162" y="917"/>
      <point x="154" y="899" type="qcurve" smooth="yes"/>
      <point x="117" y="802"/>
      <point x="79" y="580"/>
      <point x="79" y="456" type="qcurve" smooth="yes"/>
      <point x="79" y="347"/>
      <point x="126" y="150"/>
      <point x="169" y="76" type="qcurve" smooth="yes"/>
      <point x="196" y="29"/>
      <point x="255" y="-6"/>
      <point x="290" y="3" type="qcurve"/>
      <point x="308" y="9"/>
      <point x="353" y="57"/>
      <point x="370" y="90" type="qcurve" smooth="yes"/>
      <point x="416" y="182"/>
      <point x="470" y="482"/>
      <point x="470" y="653" type="qcurve" smooth="yes"/>
      <point x="470" y="813"/>
      <point x="426" y="987"/>
      <point x="379" y="1014" type="qcurve" smooth="yes"/>
      <point x="369" y="1020"/>
      <point x="350" y="1024"/>
      <point x="325" y="1024" type="qcurve" smooth="yes"/>
      <point x="310" y="1024"/>
      <point x="280" y="1023"/>
    </contour>
    <contour>
      <point x="363" y="990" type="qcurve"/>
      <point x="363" y="990" name="inserted"/>
      <point x="363" y="990"/>
      <point x="363" y="990" type="qcurve"/>
      <point x="378" y="983"/>
      <point x="398" y="959"/>
      <point x="406" y="938" type="qcurve"/>
      <point x="426" y="893"/>
      <point x="443" y="757"/>
      <point x="443" y="654" type="qcurve" smooth="yes"/>
      <point x="443" y="553" name="inserted"/>
      <point x="424" y="364"/>
      <point x="404" y="277" type="qcurve" smooth="yes"/>
      <point x="387" y="201"/>
      <point x="349" y="103"/>
      <point x="325" y="69" type="qcurve" smooth="yes"/>
      <point x="306" y="41"/>
      <point x="272" y="24"/>
      <point x="250" y="30" type="qcurve"/>
      <point x="216" y="42"/>
      <point x="147" y="177"/>
      <point x="124" y="277" type="qcurve" smooth="yes"/>
      <point x="94" y="420"/>
      <point x="133" y="783"/>
      <point x="193" y="918" type="qcurve" smooth="yes"/>
      <point x="204" y="944"/>
      <point x="226" y="969"/>
      <point x="246" y="980" type="qcurve" smooth="yes" name="inserted"/>
      <point x="265" y="990"/>
      <point x="297" y="997"/>
      <point x="320" y="997" type="qcurve"/>
      <point x="335" y="998"/>
      <point x="353" y="994"/>
    </contour>
  </outline>
</glyph>
<glyph name="glyph00042" format="1">
  <advance width="616"/>
  <unicode hex="0050"/>
  <outline>
    <contour>
      <point x="393" y="1023" type="qcurve"/>
      <point x="393" y="1023" name="inserted"/>
      <point x="393" y="1023"/>
      <point x="393" y="1023" type="qcurve"/>
      <point x="346" y="1021"/>
      <point x="249" y="1006"/>
      <point x="210" y="995" type="qcurve" smooth="yes"/>
      <point x="191" y="989"/>
      <point x="182" y="999"/>
      <point x="176" y="997" type="qcurve" smooth="yes" name="inserted"/>
      <point x="173" y="996" name="inserted"/>
      <point x="168" y="992"/>
      <point x="166" y="988" type="qcurve"/>
      <point x="164" y="983" name="inserted"/>
      <point x="150" y="973"/>
      <point x="137" y="968" type="qcurve" smooth="yes"/>
      <point x="92" y="949"/>
      <point x="34" y="902"/>
      <point x="35" y="886" type="qcurve" smooth="yes"/>
      <point x="36" y="881" name="inserted"/>
      <point x="41" y="876"/>
      <point x="45" y="876" type="qcurve"/>
      <point x="49" y="875"/>
      <point x="62" y="883"/>
      <point x="73" y="895" type="qcurve" smooth="yes" name="inserted"/>
      <point x="83" y="906"/>
      <point x="107" y="922"/>
      <point x="123" y="930" type="qcurve" smooth="yes"/>
      <point x="136" y="936"/>
      <point x="156" y="945"/>
      <point x="158" y="945" type="qcurve"/>
      <point x="163" y="946" name="inserted"/>
      <point x="168" y="877"/>
      <point x="168" y="808" type="qcurve" smooth="yes"/>
      <point x="168" y="739" type="line"/>
      <point x="143" y="731" type="line"/>
      <point x="124" y="726"/>
      <point x="110" y="715"/>
      <point x="112" y="708" type="qcurve" smooth="yes" name="inserted"/>
      <point x="113" y="701"/>
      <point x="134" y="700"/>
      <point x="150" y="704" type="qcurve" smooth="yes"/>
      <point x="157" y="706"/>
      <point x="168" y="708"/>
      <point x="169" y="707" type="qcurve"/>
      <point x="170" y="706" name="inserted"/>
      <point x="171" y="671"/>
      <point x="171" y="638" type="qcurve" smooth="yes"/>
      <point x="171" y="472" type="line" smooth="yes"/>
      <point x="171" y="296"/>
      <point x="177" y="65"/>
      <point x="182" y="30" type="qcurve" smooth="yes" name="inserted"/>
      <point x="185" y="12" name="inserted"/>
      <point x="196" y="-3"/>
      <point x="204" y="1" type="qcurve"/>
      <point x="210" y="3"/>
      <point x="212" y="18"/>
      <point x="210" y="34" type="qcurve" smooth="yes"/>
      <point x="205" y="64"/>
      <point x="199" y="296"/>
      <point x="199" y="478" type="qcurve" smooth="yes"/>
      <point x="199" y="720" type="line"/>
      <point x="221" y="732" type="line" smooth="yes"/>
      <point x="233" y="739"/>
      <point x="305" y="787"/>
      <point x="393" y="849" type="qcurve" smooth="yes"/>
      <point x="446" y="884"/>
      <point x="499" y="934"/>
      <point x="508" y="955" type="qcurve" smooth="yes" name="inserted"/>
      <point x="517" y="975"/>
      <point x="504" y="1008"/>
      <point x="484" y="1017" type="qcurve"/>
      <point x="473" y="1021"/>
      <point x="423" y="1025"/>
    </contour>
    <contour>
      <point x="473" y="992" type="qcurve"/>
      <point x="473" y="992" name="inserted"/>
      <point x="473" y="992"/>
      <point x="473" y="992" type="qcurve"/>
      <point x="481" y="989" name="inserted"/>
      <point x="486" y="975"/>
      <point x="482" y="965" type="qcurve"/>
      <point x="475" y="952"/>
      <point x="419" y="901"/>
      <point x="381" y="875" type="qcurve" smooth="yes"/>
      <point x="287" y="809" type="line" smooth="yes"/>
      <point x="249" y="783"/>
      <point x="201" y="754"/>
      <point x="199" y="756" type="qcurve" smooth="yes" name="inserted"/>
      <point x="198" y="757" name="inserted"/>
      <point x="197" y="773"/>
      <point x="196" y="787" type="qcurve" smooth="yes"/>
      <point x="194" y="960" type="line"/>
      <point x="229" y="970" type="line" smooth="yes"/>
      <point x="244" y="975"/>
      <point x="283" y="983"/>
      <point x="297" y="986" type="qcurve"/>
      <point x="346" y="993"/>
      <point x="456" y="997"/>
    </contour>
  </outline>
</glyph>
<glyph name="glyph00043" format="1">
  <advance width="684"/>
  <unicode hex="0051"/>
  <outline>
    <contour>
      <point x="186" y="790" type="qcurve"/>
      <point x="161" y="786"/>
      <point x="126" y="722"/>
      <point x="94" y="618" type="qcurve" smooth="yes"/>
      <point x="76" y="564"/>
      <point x="58" y="498"/>
      <point x="54" y="466" type="qcurve" smooth="yes"/>
      <point x="37" y="360"/>
      <point x="49" y="169"/>
      <point x="76" y="103" type="qcurve" smooth="yes"/>
      <point x="84" y="83"/>
      <point x="115" y="38"/>
      <point x="127" y="27" type="qcurve"/>
      <point x="146" y="12"/>
      <point x="202" y="5"/>
      <point x="229" y="16" type="qcurve" smooth="yes"/>
      <point x="248" y="24"/>
      <point x="289" y="53"/>
      <point x="303" y="71" type="qcurve" smooth="yes" name="inserted"/>
      <point x="317" y="88"/>
      <point x="348" y="142"/>
      <point x="349" y="150" type="qcurve"/>
      <point x="349" y="156"/>
      <point x="365" y="135"/>
      <point x="388" y="102" type="qcurve" smooth="yes"/>
      <point x="457" y="-6"/>
      <point x="498" y="-63"/>
      <point x="510" y="-70" type="qcurve"/>
      <point x="520" y="-80" name="inserted"/>
      <point x="534" y="-83"/>
      <point x="539" y="-77" type="qcurve"/>
      <point x="542" y="-73"/>
      <point x="536" y="-61"/>
      <point x="521" y="-45" type="qcurve" smooth="yes"/>
      <point x="515" y="-39"/>
      <point x="491" y="-4"/>
      <point x="477" y="16" type="qcurve" smooth="yes"/>
      <point x="363" y="188" type="line"/>
      <point x="370" y="207" type="line" smooth="yes"/>
      <point x="384" y="252"/>
      <point x="401" y="384"/>
      <point x="401" y="454" type="qcurve" smooth="yes"/>
      <point x="401" y="585"/>
      <point x="335" y="737"/>
      <point x="272" y="755" type="qcurve" smooth="yes"/>
      <point x="253" y="759"/>
      <point x="249" y="772"/>
      <point x="234" y="780" type="qcurve" smooth="yes" name="inserted"/>
      <point x="227" y="784" name="inserted"/>
      <point x="212" y="790"/>
      <point x="206" y="790" type="qcurve"/>
      <point x="202" y="790"/>
      <point x="190" y="790"/>
      <point x="186" y="790" type="qcurve"/>
      <point x="186" y="790" name="inserted"/>
      <point x="186" y="790"/>
    </contour>
    <contour>
      <point x="281" y="726" type="qcurve"/>
      <point x="325" y="704"/>
      <point x="371" y="564"/>
      <point x="372" y="455" type="qcurve" smooth="yes"/>
      <point x="372" y="405"/>
      <point x="363" y="308"/>
      <point x="355" y="271" type="qcurve" smooth="yes"/>
      <point x="347" y="234" type="line"/>
      <point x="346" y="230" name="inserted"/>
      <point x="344" y="225"/>
      <point x="343" y="225" type="qcurve"/>
      <point x="339" y="228"/>
      <point x="312" y="274"/>
      <point x="307" y="287" type="qcurve" smooth="yes"/>
      <point x="304" y="293"/>
      <point x="303" y="302"/>
      <point x="304" y="304" type="qcurve" smooth="yes"/>
      <point x="308" y="313"/>
      <point x="289" y="322"/>
      <point x="281" y="317" type="qcurve"/>
      <point x="270" y="307"/>
      <point x="283" y="266"/>
      <point x="309" y="224" type="qcurve" smooth="yes"/>
      <point x="332" y="184" type="line"/>
      <point x="323" y="158" type="line" smooth="yes"/>
      <point x="311" y="128"/>
      <point x="279" y="82"/>
      <point x="258" y="64" type="qcurve" smooth="yes"/>
      <point x="204" y="17"/>
      <point x="122" y="56"/>
      <point x="96" y="132" type="qcurve" smooth="yes" name="inserted"/>
      <point x="83" y="170" name="inserted"/>
      <point x="70" y="262"/>
      <point x="70" y="315" type="qcurve" smooth="yes"/>
      <point x="69" y="385"/>
      <point x="93" y="523"/>
      <point x="119" y="604" type="qcurve" smooth="yes"/>
      <point x="136" y="657"/>
      <point x="151" y="694"/>
      <point x="154" y="695" type="qcurve" smooth="yes" name="inserted"/>
      <point x="157" y="695"/>
      <point x="164" y="704"/>
      <point x="168" y="710" type="qcurve"/>
      <point x="180" y="729"/>
      <point x="249" y="740"/>
      <point x="281" y="726" type="qcurve"/>
      <point x="281" y="726" name="inserted"/>
      <point x="281" y="726"/>
    </contour>
  </outline>
</glyph>
<glyph name="glyph00044" format="1">
  <advance width="412"/>
  <unicode hex="0052"/>
  <outline>
    <contour>
      <point x="-32" y="1021" type="qcurve"/>
      <point x="-32" y="1021" name="inserted"/>
      <point x="-32" y="1021"/>
      <point x="-32" y="1021" type="qcurve"/>
      <point x="-36" y="1016"/>
      <point x="-37" y="998"/>
      <point x="-46" y="994" type="qcurve"/>
      <point x="-58" y="987"/>
      <point x="-78" y="954"/>
      <point x="-78" y="940" type="qcurve" smooth="yes" name="inserted"/>
      <point x="-78" y="933" name="inserted"/>
      <point x="-73" y="926"/>
      <point x="-68" y="926" type="qcurve"/>
      <point x="-64" y="925"/>
      <point x="-55" y="932"/>
      <point x="-49" y="941" type="qcurve" smooth="yes"/>
      <point x="-38" y="958" type="line"/>
      <point x="-36" y="483" type="line" smooth="yes"/>
      <point x="-35" y="180"/>
      <point x="-32" y="-3"/>
      <point x="-29" y="4" type="qcurve"/>
      <point x="-23" y="0"/>
      <point x="-17" y="1"/>
      <point x="-12" y="6" type="qcurve"/>
      <point x="-8" y="5"/>
      <point x="-5" y="95"/>
      <point x="-5" y="245" type="qcurve" smooth="yes"/>
      <point x="-6" y="364"/>
      <point x="-4" y="478"/>
      <point x="-2" y="478" type="qcurve" smooth="yes" name="inserted"/>
      <point x="-1" y="478" name="inserted"/>
      <point x="3" y="477"/>
      <point x="6" y="476" type="qcurve"/>
      <point x="18" y="470" type="line"/>
      <point x="21" y="469" name="inserted"/>
      <point x="36" y="462"/>
      <point x="48" y="457" type="qcurve" smooth="yes"/>
      <point x="100" y="436" type="line" smooth="yes"/>
      <point x="162" y="411"/>
      <point x="231" y="379"/>
      <point x="267" y="358" type="qcurve" smooth="yes"/>
      <point x="301" y="339"/>
      <point x="362" y="294"/>
      <point x="385" y="272" type="qcurve" smooth="yes"/>
      <point x="399" y="258"/>
      <point x="412" y="253"/>
      <point x="418" y="259" type="qcurve"/>
      <point x="428" y="268"/>
      <point x="407" y="296"/>
      <point x="371" y="325" type="qcurve" smooth="yes"/>
      <point x="322" y="365"/>
      <point x="199" y="431"/>
      <point x="97" y="471" type="qcurve" smooth="yes"/>
      <point x="35" y="495"/>
      <point x="-3" y="517"/>
      <point x="-2" y="527" type="qcurve" smooth="yes" name="inserted"/>
      <point x="-1" y="536"/>
      <point x="17" y="572"/>
      <point x="28" y="586" type="qcurve" smooth="yes"/>
      <point x="70" y="636"/>
      <point x="140" y="746"/>
      <point x="153" y="784" type="qcurve" smooth="yes"/>
      <point x="167" y="826"/>
      <point x="171" y="927"/>
      <point x="159" y="957" type="qcurve"/>
      <point x="153" y="970"/>
      <point x="125" y="994"/>
      <point x="109" y="999" type="qcurve" smooth="yes"/>
      <point x="102" y="1001"/>
      <point x="65" y="1004"/>
      <point x="45" y="1004" type="qcurve" smooth="yes"/>
      <point x="12" y="1004"/>
      <point x="-5" y="1008"/>
      <point x="-7" y="1014" type="qcurve"/>
      <point x="-11" y="1022"/>
      <point x="-26" y="1026"/>
    </contour>
    <contour>
      <point x="107" y="966" type="qcurve"/>
      <point x="107" y="966" name="inserted"/>
      <point x="107" y="966"/>
      <point x="107" y="966" type="qcurve"/>
      <point x="124" y="959"/>
      <point x="138" y="921"/>
      <point x="138" y="885" type="qcurve" smooth="yes"/>
      <point x="138" y="837"/>
      <point x="109" y="755"/>
      <point x="74" y="700" type="qcurve" smooth="yes"/>
      <point x="56" y="673"/>
      <point x="1" y="601"/>
      <point x="-4" y="597" type="qcurve"/>
      <point x="-5" y="598" name="inserted"/>
      <point x="-5" y="626"/>
      <point x="-5" y="652" type="qcurve" smooth="yes"/>
      <point x="-5" y="971" type="line"/>
      <point x="3" y="973" type="line"/>
      <point x="20" y="975"/>
      <point x="93" y="971"/>
    </contour>
  </outline>
</glyph>
<glyph name="glyph00045" format="1">
  <advance width="616"/>
  <unicode hex="0053"/>
  <outline>
    <contour>
      <point x="327" y="1021" type="qcurve"/>
      <point x="327" y="1021" name="inserted"/>
      <point x="327" y="1021"/>
      <point x="327" y="1021" type="qcurve"/>
      <point x="318" y="1020"/>
      <point x="297" y="1014"/>
      <point x="290" y="1012" type="qcurve"/>
      <point x="271" y="1002"/>
      <point x="238" y="957"/>
      <point x="228" y="926" type="qcurve" smooth="yes"/>
      <point x="219" y="899"/>
      <point x="213" y="853"/>
      <point x="211" y="807" type="qcurve" smooth="yes"/>
      <point x="210" y="754"/>
      <point x="217" y="688"/>
      <point x="229" y="659" type="qcurve"/>
      <point x="238" y="633"/>
      <point x="271" y="575"/>
      <point x="310" y="514" type="qcurve" smooth="yes"/>
      <point x="371" y="420" type="line" smooth="yes"/>
      <point x="402" y="372" name="inserted"/>
      <point x="439" y="271"/>
      <point x="445" y="219" type="qcurve" smooth="yes"/>
      <point x="451" y="169"/>
      <point x="425" y="100"/>
      <point x="390" y="73" type="qcurve" smooth="yes"/>
      <point x="338" y="34"/>
      <point x="222" y="23"/>
      <point x="192" y="54" type="qcurve"/>
      <point x="182" y="66"/>
      <point x="169" y="105"/>
      <point x="163" y="142" type="qcurve" smooth="yes"/>
      <point x="158" y="177"/>
      <point x="147" y="195"/>
      <point x="138" y="185" type="qcurve"/>
      <point x="133" y="181"/>
      <point x="132" y="161"/>
      <point x="137" y="129" type="qcurve" smooth="yes"/>
      <point x="144" y="81"/>
      <point x="175" y="24"/>
      <point x="200" y="13" type="qcurve"/>
      <point x="277" y="-16"/>
      <point x="441" y="59"/>
      <point x="468" y="135" type="qcurve"/>
      <point x="477" y="166"/>
      <point x="468" y="272"/>
      <point x="452" y="320" type="qcurve" smooth="yes"/>
      <point x="443" y="350"/>
      <point x="383" y="454"/>
      <point x="318" y="553" type="qcurve" smooth="yes"/>
      <point x="291" y="595"/>
      <point x="253" y="668"/>
      <point x="246" y="694" type="qcurve" smooth="yes" name="inserted"/>
      <point x="239" y="720"/>
      <point x="237" y="832"/>
      <point x="243" y="869" type="qcurve" smooth="yes"/>
      <point x="250" y="917" name="inserted"/>
      <point x="282" y="976"/>
      <point x="306" y="988" type="qcurve"/>
      <point x="339" y="1002"/>
      <point x="475" y="987"/>
      <point x="534" y="963" type="qcurve" smooth="yes"/>
      <point x="572" y="947" name="inserted"/>
      <point x="630" y="903"/>
      <point x="650" y="875" type="qcurve" smooth="yes"/>
      <point x="672" y="846"/>
      <point x="695" y="860"/>
      <point x="671" y="893" type="qcurve" smooth="yes"/>
      <point x="646" y="926" name="inserted"/>
      <point x="578" y="976"/>
      <point x="534" y="994" type="qcurve" smooth="yes"/>
      <point x="510" y="1004"/>
      <point x="459" y="1016"/>
      <point x="422" y="1020" type="qcurve" smooth="yes"/>
      <point x="391" y="1024"/>
      <point x="351" y="1025"/>
    </contour>
  </outline>
</glyph>
<glyph name="glyph00046" format="1">
  <advance width="718"/>
  <unicode hex="0054"/>
  <outline>
    <contour>
      <point x="720" y="777" type="qcurve"/>
      <point x="716" y="777" name="inserted"/>
      <point x="702" y="776"/>
      <point x="693" y="774" type="qcurve" smooth="yes"/>
      <point x="656" y="768" type="line" smooth="yes"/>
      <point x="565" y="753"/>
      <point x="525" y="748"/>
      <point x="525" y="750" type="qcurve"/>
      <point x="519" y="754" name="inserted"/>
      <point x="509" y="753"/>
      <point x="504" y="748" type="qcurve"/>
      <point x="502" y="744"/>
      <point x="462" y="735"/>
      <point x="402" y="724" type="qcurve" smooth="yes"/>
      <point x="257" y="696" type="line" smooth="yes"/>
      <point x="209" y="686"/>
      <point x="174" y="671"/>
      <point x="179" y="662" type="qcurve" smooth="yes" name="inserted"/>
      <point x="182" y="658" name="inserted"/>
      <point x="194" y="658"/>
      <point x="204" y="662" type="qcurve" smooth="yes"/>
      <point x="209" y="664"/>
      <point x="249" y="674"/>
      <point x="276" y="679" type="qcurve" smooth="yes"/>
      <point x="417" y="706" type="line" smooth="yes"/>
      <point x="451" y="713"/>
      <point x="496" y="721"/>
      <point x="498" y="720" type="qcurve"/>
      <point x="497" y="680" type="line"/>
      <point x="492" y="228" type="line" smooth="yes"/>
      <point x="490" y="81"/>
      <point x="491" y="2"/>
      <point x="495" y="5" type="qcurve"/>
      <point x="499" y="2" name="inserted"/>
      <point x="508" y="0"/>
      <point x="512" y="2" type="qcurve"/>
      <point x="514" y="1"/>
      <point x="516" y="96"/>
      <point x="517" y="221" type="qcurve" smooth="yes"/>
      <point x="519" y="438"/>
      <point x="524" y="717"/>
      <point x="526" y="724" type="qcurve"/>
      <point x="527" y="726"/>
      <point x="559" y="733"/>
      <point x="614" y="741" type="qcurve" smooth="yes"/>
      <point x="678" y="752"/>
      <point x="743" y="761"/>
      <point x="753" y="761" type="qcurve" smooth="yes"/>
      <point x="777" y="761"/>
      <point x="778" y="778"/>
      <point x="765" y="779" type="qcurve" smooth="yes" name="inserted"/>
      <point x="758" y="780" name="inserted"/>
      <point x="736" y="779"/>
      <point x="720" y="777" type="qcurve"/>
      <point x="720" y="777" name="inserted"/>
      <point x="720" y="777"/>
    </contour>
  </outline>
</glyph>
<glyph name="glyph00047" format="1">
  <advance width="786"/>
  <unicode hex="0055"/>
  <outline>
    <contour>
      <point x="589" y="1019" type="qcurve"/>
      <point x="589" y="1019" name="inserted"/>
      <point x="589" y="1019"/>
      <point x="589" y="1019" type="qcurve"/>
      <point x="585" y="1014"/>
      <point x="564" y="887"/>
      <point x="546" y="761" type="qcurve" smooth="yes"/>
      <point x="520" y="571"/>
      <point x="486" y="378"/>
      <point x="468" y="318" type="qcurve" smooth="yes"/>
      <point x="436" y="207" name="inserted"/>
      <point x="369" y="166"/>
      <point x="335" y="237" type="qcurve" smooth="yes"/>
      <point x="286" y="338"/>
      <point x="237" y="629"/>
      <point x="232" y="853" type="qcurve" smooth="yes"/>
      <point x="231" y="922"/>
      <point x="227" y="963"/>
      <point x="223" y="964" type="qcurve"/>
      <point x="220" y="966" name="inserted"/>
      <point x="213" y="966"/>
      <point x="209" y="964" type="qcurve"/>
      <point x="205" y="962"/>
      <point x="202" y="937"/>
      <point x="201" y="898" type="qcurve" smooth="yes"/>
      <point x="200" y="813"/>
      <point x="216" y="573"/>
      <point x="228" y="492" type="qcurve" smooth="yes"/>
      <point x="236" y="437"/>
      <point x="261" y="336"/>
      <point x="277" y="294" type="qcurve" smooth="yes"/>
      <point x="295" y="245"/>
      <point x="325" y="188"/>
      <point x="343" y="171" type="qcurve"/>
      <point x="356" y="157"/>
      <point x="370" y="150"/>
      <point x="383" y="150" type="qcurve" smooth="yes"/>
      <point x="392" y="150"/>
      <point x="411" y="154"/>
      <point x="416" y="157" type="qcurve"/>
      <point x="445" y="171"/>
      <point x="499" y="298"/>
      <point x="521" y="399" type="qcurve" smooth="yes"/>
      <point x="528" y="436"/>
      <point x="563" y="650"/>
      <point x="571" y="704" type="qcurve"/>
      <point x="571" y="705" name="inserted"/>
      <point x="572" y="669"/>
      <point x="572" y="632" type="qcurve" smooth="yes"/>
      <point x="573" y="443" type="line" smooth="yes"/>
      <point x="573" y="253"/>
      <point x="578" y="81"/>
      <point x="585" y="37" type="qcurve" smooth="yes"/>
      <point x="589" y="14"/>
      <point x="600" y="-3"/>
      <point x="610" y="1" type="qcurve"/>
      <point x="616" y="4"/>
      <point x="621" y="21"/>
      <point x="618" y="29" type="qcurve"/>
      <point x="617" y="33"/>
      <point x="613" y="76"/>
      <point x="610" y="106" type="qcurve" smooth="yes"/>
      <point x="607" y="142"/>
      <point x="604" y="295"/>
      <point x="604" y="434" type="qcurve" smooth="yes"/>
      <point x="604" y="603"/>
      <point x="609" y="795"/>
      <point x="616" y="936" type="qcurve" smooth="yes"/>
      <point x="618" y="973" name="inserted"/>
      <point x="618" y="1013"/>
      <point x="616" y="1017" type="qcurve"/>
      <point x="612" y="1023"/>
      <point x="595" y="1025"/>
    </contour>
  </outline>
</glyph>
<glyph name="glyph00048" format="1">
  <advance width="650"/>
  <unicode hex="0056"/>
  <outline>
    <contour>
      <point x="549" y="1015" type="qcurve"/>
      <point x="549" y="1015" name="inserted"/>
      <point x="549" y="1015"/>
      <point x="549" y="1015" type="qcurve"/>
      <point x="548" y="1013" name="inserted"/>
      <point x="546" y="1004"/>
      <point x="544" y="997" type="qcurve"/>
      <point x="537" y="967" type="line" smooth="yes"/>
      <point x="524" y="910"/>
      <point x="497" y="806"/>
      <point x="482" y="756" type="qcurve" smooth="yes"/>
      <point x="426" y="569"/>
      <point x="360" y="294"/>
      <point x="334" y="140" type="qcurve" smooth="yes"/>
      <point x="324" y="82" type="line" smooth="yes"/>
      <point x="322" y="70" name="inserted"/>
      <point x="319" y="58"/>
      <point x="319" y="57" type="qcurve"/>
      <point x="319" y="53"/>
      <point x="311" y="78"/>
      <point x="295" y="135" type="qcurve" smooth="yes"/>
      <point x="281" y="182"/>
      <point x="215" y="439"/>
      <point x="157" y="671" type="qcurve" smooth="yes"/>
      <point x="122" y="811"/>
      <point x="88" y="929"/>
      <point x="76" y="955" type="qcurve" smooth="yes"/>
      <point x="68" y="972" name="inserted"/>
      <point x="54" y="984"/>
      <point x="47" y="979" type="qcurve"/>
      <point x="43" y="976"/>
      <point x="44" y="958"/>
      <point x="50" y="948" type="qcurve" smooth="yes"/>
      <point x="61" y="930"/>
      <point x="128" y="679"/>
      <point x="214" y="333" type="qcurve" smooth="yes"/>
      <point x="232" y="260"/>
      <point x="252" y="186"/>
      <point x="276" y="102" type="qcurve" smooth="yes"/>
      <point x="287" y="64"/>
      <point x="305" y="9"/>
      <point x="307" y="6" type="qcurve"/>
      <point x="312" y="0"/>
      <point x="327" y="0"/>
      <point x="333" y="6" type="qcurve" smooth="yes"/>
      <point x="337" y="10"/>
      <point x="350" y="67"/>
      <point x="361" y="139" type="qcurve" smooth="yes"/>
      <point x="385" y="278"/>
      <point x="449" y="556"/>
      <point x="490" y="689" type="qcurve" smooth="yes"/>
      <point x="513" y="763"/>
      <point x="541" y="865"/>
      <point x="550" y="905" type="qcurve" smooth="yes"/>
      <point x="569" y="985" type="line" smooth="yes"/>
      <point x="575" y="1006"/>
      <point x="571" y="1024"/>
      <point x="562" y="1024" type="qcurve" smooth="yes" name="inserted"/>
      <point x="557" y="1024" name="inserted"/>
      <point x="551" y="1020"/>
    </contour>
  </outline>
</glyph>
<glyph name="glyph00049" format="1">
  <advance width="616"/>
  <unicode hex="0057"/>
  <outline>
    <contour>
      <point x="454" y="1021" type="qcurve"/>
      <point x="454" y="1021" name="inserted"/>
      <point x="454" y="1021"/>
      <point x="454" y="1021" type="qcurve"/>
      <point x="453" y="1019"/>
      <point x="448" y="996"/>
      <point x="446" y="981" type="qcurve" smooth="yes" name="inserted"/>
      <point x="445" y="973" name="inserted"/>
      <point x="442" y="950"/>
      <point x="439" y="935" type="qcurve" smooth="yes"/>
      <point x="428" y="874" type="line" smooth="yes"/>
      <point x="405" y="752"/>
      <point x="387" y="603"/>
      <point x="382" y="503" type="qcurve" smooth="yes"/>
      <point x="379" y="434"/>
      <point x="373" y="288"/>
      <point x="372" y="226" type="qcurve" smooth="yes"/>
      <point x="368" y="127" type="line"/>
      <point x="366" y="102" type="line"/>
      <point x="361" y="118" type="line"/>
      <point x="360" y="122" name="inserted"/>
      <point x="356" y="142"/>
      <point x="352" y="157" type="qcurve" smooth="yes"/>
      <point x="337" y="227" type="line" smooth="yes"/>
      <point x="320" y="305"/>
      <point x="289" y="441"/>
      <point x="285" y="457" type="qcurve"/>
      <point x="282" y="466" name="inserted"/>
      <point x="271" y="472"/>
      <point x="263" y="469" type="qcurve"/>
      <point x="257" y="470"/>
      <point x="246" y="431"/>
      <point x="230" y="352" type="qcurve" smooth="yes" name="inserted"/>
      <point x="222" y="312" name="inserted"/>
      <point x="214" y="211"/>
      <point x="214" y="150" type="qcurve" smooth="yes"/>
      <point x="214" y="116" name="inserted"/>
      <point x="213" y="83"/>
      <point x="211" y="85" type="qcurve"/>
      <point x="205" y="99"/>
      <point x="152" y="263"/>
      <point x="139" y="307" type="qcurve" smooth="yes"/>
      <point x="65" y="577" type="line" smooth="yes"/>
      <point x="49" y="633"/>
      <point x="37" y="688"/>
      <point x="40" y="694" type="qcurve" smooth="yes" name="inserted"/>
      <point x="43" y="699"/>
      <point x="40" y="720"/>
      <point x="35" y="728" type="qcurve"/>
      <point x="28" y="738"/>
      <point x="8" y="728"/>
      <point x="8" y="715" type="qcurve" smooth="yes"/>
      <point x="8" y="703"/>
      <point x="31" y="609"/>
      <point x="46" y="558" type="qcurve" smooth="yes"/>
      <point x="64" y="492" type="line"/>
      <point x="103" y="350" type="line"/>
      <point x="118" y="294" type="line" smooth="yes"/>
      <point x="137" y="228"/>
      <point x="206" y="20"/>
      <point x="214" y="5" type="qcurve"/>
      <point x="218" y="0"/>
      <point x="231" y="0"/>
      <point x="235" y="5" type="qcurve"/>
      <point x="236" y="9"/>
      <point x="238" y="66"/>
      <point x="238" y="116" type="qcurve" smooth="yes"/>
      <point x="238" y="216"/>
      <point x="249" y="337"/>
      <point x="265" y="401" type="qcurve" smooth="yes"/>
      <point x="269" y="418" type="line"/>
      <point x="278" y="386" type="line"/>
      <point x="302" y="276" type="line"/>
      <point x="323" y="177" type="line" smooth="yes"/>
      <point x="338" y="105"/>
      <point x="358" y="51"/>
      <point x="370" y="54" type="qcurve"/>
      <point x="377" y="55"/>
      <point x="388" y="67"/>
      <point x="391" y="115" type="qcurve" smooth="yes" name="inserted"/>
      <point x="393" y="139" name="inserted"/>
      <point x="396" y="220"/>
      <point x="397" y="276" type="qcurve" smooth="yes"/>
      <point x="400" y="372"/>
      <point x="409" y="556"/>
      <point x="414" y="618" type="qcurve" smooth="yes"/>
      <point x="417" y="661"/>
      <point x="433" y="770"/>
      <point x="450" y="863" type="qcurve" smooth="yes"/>
      <point x="466" y="951"/>
      <point x="475" y="1013"/>
      <point x="472" y="1018" type="qcurve" smooth="yes" name="inserted"/>
      <point x="469" y="1023"/>
      <point x="458" y="1025"/>
    </contour>
  </outline>
</glyph>
<glyph name="glyph00050" format="1">
  <advance width="616"/>
  <unicode hex="0058"/>
  <outline>
    <contour>
      <point x="571" y="1004" type="qcurve"/>
      <point x="571" y="1004" name="inserted"/>
      <point x="571" y="1004"/>
      <point x="571" y="1004" type="qcurve"/>
      <point x="548" y="976"/>
      <point x="473" y="829"/>
      <point x="423" y="714" type="qcurve" smooth="yes"/>
      <point x="407" y="679"/>
      <point x="376" y="611"/>
      <point x="367" y="594" type="qcurve"/>
      <point x="339" y="534" type="line" smooth="yes"/>
      <point x="335" y="526"/>
      <point x="329" y="514"/>
      <point x="328" y="514" type="qcurve" smooth="yes" name="inserted"/>
      <point x="327" y="514"/>
      <point x="323" y="524"/>
      <point x="321" y="531" type="qcurve" smooth="yes"/>
      <point x="307" y="586"/>
      <point x="232" y="792"/>
      <point x="192" y="887" type="qcurve" smooth="yes"/>
      <point x="169" y="943" type="line" smooth="yes"/>
      <point x="164" y="956" name="inserted"/>
      <point x="158" y="972"/>
      <point x="157" y="975" type="qcurve" smooth="yes"/>
      <point x="154" y="990" name="inserted"/>
      <point x="144" y="1005"/>
      <point x="137" y="1005" type="qcurve"/>
      <point x="123" y="1006"/>
      <point x="135" y="952"/>
      <point x="166" y="881" type="qcurve" smooth="yes"/>
      <point x="195" y="814"/>
      <point x="238" y="701"/>
      <point x="259" y="640" type="qcurve" smooth="yes"/>
      <point x="277" y="586"/>
      <point x="307" y="486"/>
      <point x="308" y="476" type="qcurve"/>
      <point x="307" y="471"/>
      <point x="251" y="368"/>
      <point x="207" y="291" type="qcurve" smooth="yes"/>
      <point x="172" y="229"/>
      <point x="133" y="157"/>
      <point x="124" y="137" type="qcurve" smooth="yes"/>
      <point x="110" y="104"/>
      <point x="94" y="75"/>
      <point x="88" y="73" type="qcurve" smooth="yes"/>
      <point x="80" y="70"/>
      <point x="78" y="53"/>
      <point x="85" y="46" type="qcurve"/>
      <point x="90" y="41" name="inserted"/>
      <point x="101" y="42"/>
      <point x="107" y="47" type="qcurve"/>
      <point x="111" y="50"/>
      <point x="137" y="99"/>
      <point x="149" y="127" type="qcurve" smooth="yes"/>
      <point x="158" y="148"/>
      <point x="208" y="239"/>
      <point x="241" y="298" type="qcurve" smooth="yes"/>
      <point x="296" y="395" type="line" smooth="yes"/>
      <point x="306" y="412"/>
      <point x="320" y="434"/>
      <point x="321" y="433" type="qcurve" smooth="yes" name="inserted"/>
      <point x="322" y="432" name="inserted"/>
      <point x="325" y="425"/>
      <point x="327" y="418" type="qcurve"/>
      <point x="351" y="339" type="line"/>
      <point x="380" y="248" type="line"/>
      <point x="395" y="199" type="line" smooth="yes"/>
      <point x="408" y="155"/>
      <point x="430" y="90"/>
      <point x="448" y="48" type="qcurve" smooth="yes"/>
      <point x="459" y="22"/>
      <point x="470" y="1"/>
      <point x="474" y="1" type="qcurve"/>
      <point x="487" y="-3" name="inserted"/>
      <point x="488" y="21"/>
      <point x="476" y="49" type="qcurve" smooth="yes"/>
      <point x="459" y="89"/>
      <point x="434" y="162"/>
      <point x="419" y="210" type="qcurve" smooth="yes"/>
      <point x="402" y="267" type="line"/>
      <point x="388" y="311" type="line" smooth="yes"/>
      <point x="373" y="353"/>
      <point x="342" y="460"/>
      <point x="341" y="470" type="qcurve"/>
      <point x="341" y="474"/>
      <point x="365" y="527"/>
      <point x="383" y="565" type="qcurve" smooth="yes" name="inserted"/>
      <point x="401" y="603"/>
      <point x="441" y="689"/>
      <point x="453" y="717" type="qcurve" smooth="yes"/>
      <point x="496" y="815"/>
      <point x="570" y="960"/>
      <point x="593" y="989" type="qcurve" smooth="yes"/>
      <point x="605" y="1005" name="inserted"/>
      <point x="606" y="1022"/>
      <point x="596" y="1024" type="qcurve" smooth="yes"/>
      <point x="591" y="1025"/>
      <point x="581" y="1017"/>
    </contour>
  </outline>
</glyph>
<glyph name="glyph00051" format="1">
  <advance width="582"/>
  <unicode hex="0059"/>
  <outline>
    <contour>
      <point x="463" y="739" type="qcurve"/>
      <point x="460" y="737"/>
      <point x="455" y="726"/>
      <point x="453" y="720" type="qcurve" smooth="yes"/>
      <point x="443" y="682"/>
      <point x="396" y="544"/>
      <point x="370" y="477" type="qcurve" smooth="yes"/>
      <point x="358" y="444" type="line"/>
      <point x="348" y="418" type="line" smooth="yes"/>
      <point x="344" y="407"/>
      <point x="338" y="394"/>
      <point x="338" y="394" type="qcurve"/>
      <point x="334" y="397"/>
      <point x="307" y="423"/>
      <point x="293" y="439" type="qcurve" smooth="yes" name="inserted"/>
      <point x="286" y="447" name="inserted"/>
      <point x="263" y="471"/>
      <point x="249" y="487" type="qcurve" smooth="yes"/>
      <point x="108" y="639" type="line" smooth="yes"/>
      <point x="73" y="678"/>
      <point x="47" y="701"/>
      <point x="39" y="699" type="qcurve"/>
      <point x="29" y="698" name="inserted"/>
      <point x="31" y="687"/>
      <point x="42" y="677" type="qcurve" smooth="yes"/>
      <point x="48" y="672"/>
      <point x="77" y="642"/>
      <point x="94" y="623" type="qcurve" smooth="yes"/>
      <point x="136" y="577" type="line"/>
      <point x="227" y="480" type="line"/>
      <point x="256" y="449" type="line" smooth="yes"/>
      <point x="269" y="434" name="inserted"/>
      <point x="300" y="400"/>
      <point x="318" y="382" type="qcurve" smooth="yes"/>
      <point x="323" y="377"/>
      <point x="328" y="368"/>
      <point x="328" y="366" type="qcurve" smooth="yes" name="inserted"/>
      <point x="328" y="365" name="inserted"/>
      <point x="326" y="358"/>
      <point x="325" y="351" type="qcurve" smooth="yes"/>
      <point x="319" y="322" type="line" smooth="yes"/>
      <point x="308" y="281"/>
      <point x="288" y="189"/>
      <point x="284" y="158" type="qcurve" smooth="yes"/>
      <point x="272" y="87" type="line" smooth="yes"/>
      <point x="262" y="36"/>
      <point x="259" y="5"/>
      <point x="262" y="4" type="qcurve"/>
      <point x="268" y="-2"/>
      <point x="282" y="4"/>
      <point x="282" y="13" type="qcurve" smooth="yes"/>
      <point x="282" y="15" name="inserted"/>
      <point x="283" y="21"/>
      <point x="284" y="26" type="qcurve" smooth="yes"/>
      <point x="288" y="47" type="line" smooth="yes"/>
      <point x="289" y="53" name="inserted"/>
      <point x="292" y="70"/>
      <point x="294" y="80" type="qcurve" smooth="yes"/>
      <point x="301" y="122" type="line" smooth="yes"/>
      <point x="308" y="167"/>
      <point x="324" y="245"/>
      <point x="334" y="285" type="qcurve" smooth="yes"/>
      <point x="345" y="332"/>
      <point x="351" y="351"/>
      <point x="357" y="349" type="qcurve"/>
      <point x="363" y="351" name="inserted"/>
      <point x="366" y="359"/>
      <point x="362" y="365" type="qcurve"/>
      <point x="357" y="370"/>
      <point x="363" y="394"/>
      <point x="383" y="446" type="qcurve" smooth="yes"/>
      <point x="416" y="535"/>
      <point x="448" y="622"/>
      <point x="458" y="656" type="qcurve" smooth="yes"/>
      <point x="478" y="722" type="line" smooth="yes"/>
      <point x="480" y="727"/>
      <point x="482" y="738"/>
      <point x="482" y="740" type="qcurve"/>
      <point x="480" y="745"/>
      <point x="468" y="744"/>
      <point x="463" y="739" type="qcurve"/>
      <point x="463" y="739" name="inserted"/>
      <point x="463" y="739"/>
    </contour>
  </outline>
</glyph>
<glyph name="glyph00052" format="1">
  <advance width="650"/>
  <unicode hex="005A"/>
  <outline>
    <contour>
      <point x="420" y="1022" type="qcurve"/>
      <point x="387" y="1019"/>
      <point x="282" y="993"/>
      <point x="169" y="959" type="qcurve" smooth="yes"/>
      <point x="107" y="941" type="line"/>
      <point x="63" y="929" type="line" smooth="yes"/>
      <point x="36" y="922"/>
      <point x="11" y="912"/>
      <point x="11" y="905" type="qcurve"/>
      <point x="9" y="896"/>
      <point x="27" y="895"/>
      <point x="51" y="901" type="qcurve" smooth="yes"/>
      <point x="108" y="917" type="line"/>
      <point x="172" y="936" type="line" smooth="yes"/>
      <point x="258" y="961"/>
      <point x="349" y="987"/>
      <point x="366" y="991" type="qcurve"/>
      <point x="397" y="996"/>
      <point x="487" y="1003"/>
      <point x="495" y="1000" type="qcurve"/>
      <point x="497" y="998"/>
      <point x="497" y="986"/>
      <point x="495" y="974" type="qcurve" smooth="yes"/>
      <point x="493" y="957"/>
      <point x="467" y="886"/>
      <point x="438" y="820" type="qcurve" smooth="yes"/>
      <point x="419" y="776" type="line"/>
      <point x="402" y="735" type="line" smooth="yes"/>
      <point x="388" y="702"/>
      <point x="355" y="627"/>
      <point x="321" y="555" type="qcurve" smooth="yes"/>
      <point x="266" y="440"/>
      <point x="202" y="271"/>
      <point x="179" y="184" type="qcurve" smooth="yes"/>
      <point x="161" y="113"/>
      <point x="150" y="65"/>
      <point x="148" y="50" type="qcurve" smooth="yes"/>
      <point x="144" y="26"/>
      <point x="152" y="5"/>
      <point x="165" y="2" type="qcurve"/>
      <point x="170" y="-1"/>
      <point x="213" y="6"/>
      <point x="280" y="19" type="qcurve" smooth="yes"/>
      <point x="368" y="36"/>
      <point x="448" y="54"/>
      <point x="488" y="66" type="qcurve" smooth="yes"/>
      <point x="590" y="95" type="line" smooth="yes"/>
      <point x="595" y="97" name="inserted"/>
      <point x="601" y="99"/>
      <point x="602" y="99" type="qcurve"/>
      <point x="606" y="103"/>
      <point x="606" y="113"/>
      <point x="602" y="116" type="qcurve"/>
      <point x="601" y="120"/>
      <point x="571" y="114"/>
      <point x="507" y="96" type="qcurve" smooth="yes"/>
      <point x="454" y="80"/>
      <point x="366" y="60"/>
      <point x="284" y="43" type="qcurve" smooth="yes"/>
      <point x="205" y="27"/>
      <point x="168" y="21"/>
      <point x="169" y="24" type="qcurve"/>
      <point x="167" y="29"/>
      <point x="180" y="93"/>
      <point x="192" y="141" type="qcurve" smooth="yes"/>
      <point x="220" y="252"/>
      <point x="285" y="426"/>
      <point x="343" y="549" type="qcurve" smooth="yes"/>
      <point x="379" y="624"/>
      <point x="412" y="698"/>
      <point x="429" y="738" type="qcurve" smooth="yes"/>
      <point x="467" y="830" type="line" smooth="yes"/>
      <point x="499" y="903"/>
      <point x="522" y="976"/>
      <point x="519" y="997" type="qcurve"/>
      <point x="519" y="1005"/>
      <point x="515" y="1014"/>
      <point x="511" y="1019" type="qcurve" smooth="yes" name="inserted"/>
      <point x="506" y="1023"/>
      <point x="493" y="1025"/>
      <point x="474" y="1024" type="qcurve" smooth="yes"/>
      <point x="446" y="1023" type="line"/>
      <point x="420" y="1022" type="line"/>
      <point x="420" y="1022" name="inserted"/>
      <point x="420" y="1022"/>
    </contour>
  </outline>
</glyph>
<glyph name="glyph00053" format="1">
  <advance width="1024"/>
  <unicode hex="005B"/>
  <outline>
    <contour>
      <point x="394" y="1015" type="qcurve"/>
      <point x="394.0" y="1015.0" name="inserted"/>
      <point x="394.0" y="1015.0"/>
      <point x="394" y="1015" type="qcurve"/>
      <point x="390" y="1010"/>
      <point x="389" y="989"/>
      <point x="390" y="953" type="qcurve" smooth="yes"/>
      <point x="392" y="907" type="line" smooth="yes"/>
      <point x="392.5" y="895.5" name="inserted"/>
      <point x="393.5" y="877.5"/>
      <point x="394" y="871" type="qcurve" smooth="yes"/>
      <point x="395" y="857"/>
      <point x="398" y="678"/>
      <point x="400" y="555" type="qcurve" smooth="yes"/>
      <point x="401" y="354"/>
      <point x="406" y="156"/>
      <point x="411" y="95" type="qcurve" smooth="yes"/>
      <point x="413" y="57"/>
      <point x="418" y="29"/>
      <point x="423" y="23" type="qcurve"/>
      <point x="429" y="12"/>
      <point x="455" y="5"/>
      <point x="494" y="4" type="qcurve" smooth="yes"/>
      <point x="532" y="2" type="line" smooth="yes"/>
      <point x="540.0" y="1.5" name="inserted"/>
      <point x="550.0" y="1.0"/>
      <point x="552" y="1" type="qcurve"/>
      <point x="560" y="-1"/>
      <point x="570" y="4"/>
      <point x="564.0" y="9.5" type="qcurve" smooth="yes" name="inserted"/>
      <point x="558" y="15"/>
      <point x="525" y="22"/>
      <point x="492" y="23" type="qcurve" smooth="yes"/>
      <point x="475" y="24"/>
      <point x="451" y="26"/>
      <point x="449" y="26" type="qcurve"/>
      <point x="444" y="43"/>
      <point x="435" y="419"/>
      <point x="435" y="612" type="qcurve" smooth="yes"/>
      <point x="435" y="713"/>
      <point x="431" y="835"/>
      <point x="425" y="885" type="qcurve" smooth="yes"/>
      <point x="421" y="929"/>
      <point x="419" y="990"/>
      <point x="421" y="998" type="qcurve"/>
      <point x="425" y="1006" type="line"/>
      <point x="446" y="1004" type="line" smooth="yes"/>
      <point x="519" y="998"/>
      <point x="581" y="988"/>
      <point x="600" y="977" type="qcurve"/>
      <point x="618" y="969"/>
      <point x="629" y="966"/>
      <point x="633" y="969" type="qcurve"/>
      <point x="638.0" y="971.5" name="inserted"/>
      <point x="624.0" y="983.5"/>
      <point x="605" y="993" type="qcurve" smooth="yes"/>
      <point x="587" y="1003"/>
      <point x="547" y="1013"/>
      <point x="515" y="1016" type="qcurve" smooth="yes"/>
      <point x="461" y="1021" type="line"/>
      <point x="455.5" y="1022.0" name="inserted"/>
      <point x="444.0" y="1023.0"/>
      <point x="438" y="1023" type="qcurve" smooth="yes"/>
      <point x="418" y="1024" type="line" smooth="yes"/>
      <point x="405" y="1024"/>
      <point x="397" y="1021"/>
    </contour>
  </outline>
</glyph>
<glyph name="glyph00054" format="1">
  <advance width="1024"/>
  <unicode hex="005C"/>
  <outline>
    <contour>
      <point x="237" y="1016" type="qcurve"/>
      <point x="237.0" y="1016.0" name="inserted"/>
      <point x="237.0" y="1016.0"/>
      <point x="237" y="1016" type="qcurve"/>
      <point x="238.0" y="1013.5" name="inserted"/>
      <point x="243.5" y="1003.0"/>
      <point x="248" y="995" type="qcurve" smooth="yes"/>
      <point x="298" y="908" type="line"/>
      <point x="365" y="786" type="line"/>
      <point x="415" y="695" type="line" smooth="yes"/>
      <point x="452" y="628"/>
      <point x="518" y="499"/>
      <point x="580" y="371" type="qcurve" smooth="yes"/>
      <point x="652" y="227" type="line" smooth="yes"/>
      <point x="673" y="187"/>
      <point x="714" y="101"/>
      <point x="724.5" y="76.5" type="qcurve" smooth="yes" name="inserted"/>
      <point x="735" y="52"/>
      <point x="752" y="15"/>
      <point x="755" y="12" type="qcurve"/>
      <point x="762" y="4"/>
      <point x="782" y="-2"/>
      <point x="788" y="2" type="qcurve"/>
      <point x="792" y="4"/>
      <point x="784" y="31"/>
      <point x="768" y="73" type="qcurve" smooth="yes"/>
      <point x="737" y="144"/>
      <point x="542" y="541"/>
      <point x="490" y="636" type="qcurve" smooth="yes"/>
      <point x="405" y="790"/>
      <point x="281" y="1003"/>
      <point x="272" y="1014" type="qcurve"/>
      <point x="268" y="1017"/>
      <point x="255" y="1022"/>
      <point x="248" y="1023" type="qcurve" smooth="yes"/>
      <point x="236" y="1025"/>
      <point x="233" y="1022"/>
    </contour>
  </outline>
</glyph>
<glyph name="glyph00055" format="1">
  <advance width="1024"/>
  <unicode hex="005D"/>
  <outline>
    <contour>
      <point x="469" y="1023" type="qcurve"/>
      <point x="469.0" y="1023.0" name="inserted"/>
      <point x="469.0" y="1023.0"/>
      <point x="469" y="1023" type="qcurve"/>
      <point x="434" y="1018"/>
      <point x="408" y="1013"/>
      <point x="403" y="1008" type="qcurve"/>
      <point x="393" y="1000"/>
      <point x="402" y="993"/>
      <point x="409" y="989" type="qcurve"/>
      <point x="414" y="987"/>
      <point x="422" y="988"/>
      <point x="429.5" y="992.5" type="qcurve" smooth="yes" name="inserted"/>
      <point x="437" y="997"/>
      <point x="469" y="1002"/>
      <point x="520" y="1006" type="qcurve" smooth="yes"/>
      <point x="532" y="1007"/>
      <point x="540" y="1006"/>
      <point x="541" y="1003" type="qcurve" smooth="yes"/>
      <point x="544" y="993"/>
      <point x="551" y="915"/>
      <point x="553" y="868" type="qcurve" smooth="yes"/>
      <point x="553.5" y="853.5" name="inserted"/>
      <point x="555.0" y="805.0"/>
      <point x="556" y="771" type="qcurve" smooth="yes"/>
      <point x="561" y="484" type="line" smooth="yes"/>
      <point x="562.0" y="450.0" name="inserted"/>
      <point x="563.5" y="401.5"/>
      <point x="564" y="387" type="qcurve" smooth="yes"/>
      <point x="566" y="330"/>
      <point x="581" y="162"/>
      <point x="588" y="110" type="qcurve" smooth="yes"/>
      <point x="595" y="62"/>
      <point x="598" y="26"/>
      <point x="597.0" y="23.5" type="qcurve" smooth="yes" name="inserted"/>
      <point x="596" y="21"/>
      <point x="585" y="20"/>
      <point x="567" y="20" type="qcurve"/>
      <point x="556" y="21"/>
      <point x="539" y="20"/>
      <point x="538" y="20" type="qcurve"/>
      <point x="537" y="16"/>
      <point x="550" y="6"/>
      <point x="559" y="3" type="qcurve"/>
      <point x="572" y="0"/>
      <point x="608" y="1"/>
      <point x="617.0" y="4.0" type="qcurve" smooth="yes" name="inserted"/>
      <point x="621.5" y="5.5" name="inserted"/>
      <point x="626.5" y="10.5"/>
      <point x="627" y="14" type="qcurve"/>
      <point x="629" y="19"/>
      <point x="625" y="66"/>
      <point x="619" y="116" type="qcurve" smooth="yes"/>
      <point x="616" y="142"/>
      <point x="608" y="229"/>
      <point x="604" y="283" type="qcurve" smooth="yes"/>
      <point x="600.5" y="327.0" name="inserted"/>
      <point x="595.0" y="490.5"/>
      <point x="593" y="610" type="qcurve" smooth="yes"/>
      <point x="591" y="751"/>
      <point x="583" y="919"/>
      <point x="576" y="966" type="qcurve" smooth="yes"/>
      <point x="571" y="1002"/>
      <point x="549" y="1025"/>
      <point x="517" y="1024" type="qcurve"/>
      <point x="505" y="1025"/>
      <point x="478" y="1024"/>
    </contour>
  </outline>
</glyph>
<glyph name="glyph00056" format="1">
  <advance width="344"/>
  <unicode hex="005E"/>
  <outline>
    <contour>
      <point x="120" y="1038" type="qcurve"/>
      <point x="120" y="1038" name="inserted"/>
      <point x="120" y="1038"/>
      <point x="120" y="1038" type="qcurve"/>
      <point x="117" y="1029"/>
      <point x="92" y="948"/>
      <point x="82" y="909" type="qcurve" smooth="yes"/>
      <point x="70" y="859"/>
      <point x="59" y="796"/>
      <point x="59" y="775" type="qcurve"/>
      <point x="59" y="760"/>
      <point x="62" y="749"/>
      <point x="67" y="744" type="qcurve" smooth="yes"/>
      <point x="70" y="742"/>
      <point x="78" y="737"/>
      <point x="82" y="737" type="qcurve"/>
      <point x="87" y="737"/>
      <point x="90" y="748"/>
      <point x="91" y="769" type="qcurve" smooth="yes"/>
      <point x="93" y="793"/>
      <point x="103" y="848"/>
      <point x="117" y="902" type="qcurve" smooth="yes" name="inserted"/>
      <point x="131" y="957"/>
      <point x="143" y="993"/>
      <point x="144" y="986" type="qcurve"/>
      <point x="150" y="965"/>
      <point x="171" y="861"/>
      <point x="178" y="824" type="qcurve" smooth="yes"/>
      <point x="183" y="794"/>
      <point x="191" y="770"/>
      <point x="193" y="766" type="qcurve" smooth="yes"/>
      <point x="200" y="759"/>
      <point x="215" y="758"/>
      <point x="217" y="764" type="qcurve"/>
      <point x="218" y="779"/>
      <point x="186" y="940"/>
      <point x="171" y="998" type="qcurve" smooth="yes"/>
      <point x="169" y="1008"/>
      <point x="163" y="1024"/>
      <point x="160" y="1027" type="qcurve"/>
      <point x="152" y="1038"/>
      <point x="126" y="1045"/>
    </contour>
  </outline>
</glyph>
<glyph name="glyph00059" format="1">
  <advance width="548.0"/>
  <unicode hex="0061"/>
  <outline>
    <contour>
      <point x="216" y="473" type="qcurve"/>
      <point x="216" y="473" name="inserted"/>
      <point x="219" y="471"/>
      <point x="219" y="471" type="qcurve"/>
      <point x="178" y="451" name="inserted"/>
      <point x="134" y="337"/>
      <point x="130" y="241" type="qcurve" smooth="yes"/>
      <point x="128" y="182"/>
      <point x="142" y="109"/>
      <point x="152" y="89" type="qcurve"/>
      <point x="158" y="74"/>
      <point x="167" y="66"/>
      <point x="181" y="66" type="qcurve" smooth="yes" name="inserted"/>
      <point x="195" y="67"/>
      <point x="233" y="96"/>
      <point x="249" y="113" type="qcurve" smooth="yes"/>
      <point x="268" y="132"/>
      <point x="302" y="212"/>
      <point x="317" y="266" type="qcurve" smooth="yes"/>
      <point x="322" y="277" name="inserted"/>
      <point x="325" y="306"/>
      <point x="327" y="316" type="qcurve" smooth="yes"/>
      <point x="333" y="338" type="line"/>
      <point x="334" y="340"/>
      <point x="351" y="250"/>
      <point x="353" y="204" type="qcurve" smooth="yes"/>
      <point x="355" y="103"/>
      <point x="362" y="81"/>
      <point x="374" y="45" type="qcurve" smooth="yes"/>
      <point x="381" y="24"/>
      <point x="392" y="-3"/>
      <point x="386" y="79" type="qcurve" smooth="yes"/>
      <point x="383" y="125"/>
      <point x="386" y="165"/>
      <point x="370" y="271" type="qcurve" smooth="yes"/>
      <point x="357" y="359" type="line" smooth="yes"/>
      <point x="353" y="379" name="inserted"/>
      <point x="358" y="414"/>
      <point x="358" y="415" type="qcurve"/>
      <point x="358" y="417"/>
      <point x="408" y="399"/>
      <point x="420" y="391" type="qcurve" smooth="yes"/>
      <point x="451" y="372"/>
      <point x="478" y="375"/>
      <point x="474" y="396" type="qcurve" smooth="yes"/>
      <point x="470" y="401" name="inserted"/>
      <point x="403" y="423"/>
      <point x="377" y="440" type="qcurve" smooth="yes"/>
      <point x="322" y="474"/>
      <point x="316" y="488"/>
      <point x="282" y="489" type="qcurve"/>
      <point x="258" y="491"/>
      <point x="227" y="477"/>
    </contour>
    <contour>
      <point x="297" y="463" type="qcurve"/>
      <point x="297" y="463" name="inserted"/>
      <point x="297" y="455"/>
      <point x="297" y="455" type="qcurve"/>
      <point x="327" y="451"/>
      <point x="334" y="430"/>
      <point x="324" y="390" type="qcurve" smooth="yes"/>
      <point x="295" y="260"/>
      <point x="228" y="109"/>
      <point x="194" y="96" type="qcurve" smooth="yes"/>
      <point x="185" y="91"/>
      <point x="175" y="91"/>
      <point x="172" y="97" type="qcurve"/>
      <point x="159" y="117"/>
      <point x="147" y="283"/>
      <point x="160" y="347" type="qcurve" smooth="yes"/>
      <point x="169" y="383"/>
      <point x="213" y="441"/>
      <point x="229" y="451" type="qcurve" smooth="yes"/>
      <point x="243" y="459"/>
      <point x="271" y="468"/>
    </contour>
  </outline>
</glyph>
